ISO-10303-21;
HEADER;
FILE_DESCRIPTION (( 'STEP AP214' ),
    '1' );
FILE_NAME ('±¦½£ÉÏ¸Ç.STEP',
    '2026-08-16T01:15:55',
    ( '' ),
    ( '' ),
    'SwSTEP 2.0',
    'SolidWorks 2025',
    '' );
FILE_SCHEMA (( 'AUTOMOTIVE_DESIGN' ));
ENDSEC;

DATA;
#1 = EDGE_CURVE ( 'NONE', #504, #117, #490, .T. ) ;
#2 = FACE_OUTER_BOUND ( 'NONE', #255, .T. ) ;
#3 = LINE ( 'NONE', #181, #535 ) ;
#4 =( NAMED_UNIT ( * ) PLANE_ANGLE_UNIT ( ) SI_UNIT ( $, .RADIAN. ) );
#5 = PLANE ( 'NONE',  #215 ) ;
#6 = CARTESIAN_POINT ( 'NONE',  ( 13.99999999999999645, -1.044623529882867130E-15, 56.50000000000000000 ) ) ;
#7 = LINE ( 'NONE', #187, #402 ) ;
#8 = VERTEX_POINT ( 'NONE', #131 ) ;
#9 = VECTOR ( 'NONE', #505, 1000.000000000000000 ) ;
#10 = DIRECTION ( 'NONE',  ( 0.000000000000000000, -0.000000000000000000, -1.000000000000000000 ) ) ;
#11 = CARTESIAN_POINT ( 'NONE',  ( 13.99999999999999645, 0.000000000000000000, -46.00000000000000000 ) ) ;
#12 = VERTEX_POINT ( 'NONE', #444 ) ;
#13 = EDGE_CURVE ( 'NONE', #304, #350, #84, .T. ) ;
#14 = VECTOR ( 'NONE', #217, 1000.000000000000000 ) ;
#15 = PRODUCT_DEFINITION_FORMATION_WITH_SPECIFIED_SOURCE ( 'ä»', '', #81, .NOT_KNOWN. ) ;
#16 = DIRECTION ( 'NONE',  ( -1.000000000000000000, 5.782411586589363555E-16, 0.000000000000000000 ) ) ;
#17 = VERTEX_POINT ( 'NONE', #177 ) ;
#18 = DIRECTION ( 'NONE',  ( 0.000000000000000000, 1.000000000000000000, 0.000000000000000000 ) ) ;
#19 = ADVANCED_FACE ( 'NONE', ( #2 ), #5, .F. ) ;
#20 = CARTESIAN_POINT ( 'NONE',  ( -16.30000000000000071, 0.000000000000000000, -46.00000000000000000 ) ) ;
#21 = LINE ( 'NONE', #245, #354 ) ;
#22 = CARTESIAN_POINT ( 'NONE',  ( -13.79999999999999893, 4.799999999999992717, 56.50000000000000000 ) ) ;
#23 = CARTESIAN_POINT ( 'NONE',  ( -12.00000000000000000, -4.653079368314112328E-15, -46.00000000000000000 ) ) ;
#24 = DIRECTION ( 'NONE',  ( 1.000000000000000000, 1.334402673828313339E-16, -0.000000000000000000 ) ) ;
#25 = FACE_OUTER_BOUND ( 'NONE', #72, .T. ) ;
#26 = ORIENTED_EDGE ( 'NONE', *, *, #235, .F. ) ;
#27 = CARTESIAN_POINT ( 'NONE',  ( 18.29999999999999716, -4.642771243923842242E-17, -46.00000000000000000 ) ) ;
#28 = ADVANCED_FACE ( 'NONE', ( #496 ), #124, .F. ) ;
#29 = FACE_OUTER_BOUND ( 'NONE', #524, .T. ) ;
#30 = VECTOR ( 'NONE', #544, 1000.000000000000000 ) ;
#31 = VECTOR ( 'NONE', #468, 1000.000000000000000 ) ;
#32 = ORIENTED_EDGE ( 'NONE', *, *, #256, .F. ) ;
#33 = ORIENTED_EDGE ( 'NONE', *, *, #469, .F. ) ;
#34 = LINE ( 'NONE', #341, #39 ) ;
#35 = ORIENTED_EDGE ( 'NONE', *, *, #260, .T. ) ;
#36 = VERTEX_POINT ( 'NONE', #91 ) ;
#37 = EDGE_CURVE ( 'NONE', #82, #40, #272, .T. ) ;
#38 = ORIENTED_EDGE ( 'NONE', *, *, #575, .T. ) ;
#39 = VECTOR ( 'NONE', #118, 1000.000000000000000 ) ;
#40 = VERTEX_POINT ( 'NONE', #405 ) ;
#41 = CLOSED_SHELL ( 'NONE', ( #323, #483, #151, #487, #568, #288, #373, #87, #337, #145, #19, #106, #426, #523, #316, #539, #28, #69 ) ) ;
#42 = ORIENTED_EDGE ( 'NONE', *, *, #13, .F. ) ;
#43 = ORIENTED_EDGE ( 'NONE', *, *, #209, .F. ) ;
#44 = ADVANCED_BREP_SHAPE_REPRESENTATION ( '\X2\5b9d52514e0a76d6\X0\', ( #526, #491 ), #393 ) ;
#45 = DIRECTION ( 'NONE',  ( 0.000000000000000000, 1.000000000000000000, 0.000000000000000000 ) ) ;
#46 = DIRECTION ( 'NONE',  ( 1.000000000000000000, 0.000000000000000000, 0.000000000000000000 ) ) ;
#47 = VERTEX_POINT ( 'NONE', #150 ) ;
#48 = CARTESIAN_POINT ( 'NONE',  ( 13.99999999999999645, 2.999999999999995115, -46.00000000000000000 ) ) ;
#49 = EDGE_CURVE ( 'NONE', #169, #82, #203, .T. ) ;
#50 = ORIENTED_EDGE ( 'NONE', *, *, #111, .T. ) ;
#51 = PLANE ( 'NONE',  #311 ) ;
#52 = VERTEX_POINT ( 'NONE', #22 ) ;
#53 = DIRECTION ( 'NONE',  ( -0.000000000000000000, -0.000000000000000000, 1.000000000000000000 ) ) ;
#54 = DIRECTION ( 'NONE',  ( 1.000000000000000000, 2.321385621961927777E-16, -0.000000000000000000 ) ) ;
#55 = EDGE_CURVE ( 'NONE', #36, #251, #113, .T. ) ;
#56 = CARTESIAN_POINT ( 'NONE',  ( 15.79999999999999538, 1.299999999999995159, 56.50000000000000000 ) ) ;
#57 = VECTOR ( 'NONE', #53, 1000.000000000000000 ) ;
#58 = VECTOR ( 'NONE', #285, 1000.000000000000000 ) ;
#59 = DIRECTION ( 'NONE',  ( -0.000000000000000000, -0.000000000000000000, 1.000000000000000000 ) ) ;
#60 = VECTOR ( 'NONE', #492, 1000.000000000000000 ) ;
#61 = FACE_OUTER_BOUND ( 'NONE', #129, .T. ) ;
#62 = CARTESIAN_POINT ( 'NONE',  ( 18.29999999999999716, 1.299999999999995159, -46.00000000000000000 ) ) ;
#63 = EDGE_CURVE ( 'NONE', #350, #439, #430, .T. ) ;
#64 = DIRECTION ( 'NONE',  ( -0.000000000000000000, 0.000000000000000000, 1.000000000000000000 ) ) ;
#65 = DIRECTION ( 'NONE',  ( -1.734723475976807341E-16, -2.314819644696197507E-32, -1.000000000000000000 ) ) ;
#66 = FACE_OUTER_BOUND ( 'NONE', #438, .T. ) ;
#67 = CARTESIAN_POINT ( 'NONE',  ( -9.000000000000001776, 2.999999999999992450, 36.50000000000000711 ) ) ;
#68 = ORIENTED_EDGE ( 'NONE', *, *, #164, .F. ) ;
#69 = ADVANCED_FACE ( 'NONE', ( #116 ), #107, .T. ) ;
#70 = DIRECTION ( 'NONE',  ( 1.734723475976807341E-16, 0.000000000000000000, 1.000000000000000000 ) ) ;
#71 = DIRECTION ( 'NONE',  ( 1.000000000000000000, 1.224646799147353700E-16, -0.000000000000000000 ) ) ;
#72 = EDGE_LOOP ( 'NONE', ( #391, #122, #479, #296 ) ) ;
#73 = VERTEX_POINT ( 'NONE', #291 ) ;
#74 = CARTESIAN_POINT ( 'NONE',  ( -9.000000000000001776, -0.001000000000005336898, 36.50000000000000711 ) ) ;
#75 = VECTOR ( 'NONE', #237, 1000.000000000000000 ) ;
#76 = ORIENTED_EDGE ( 'NONE', *, *, #180, .T. ) ;
#77 = ORIENTED_EDGE ( 'NONE', *, *, #550, .T. ) ;
#78 = EDGE_CURVE ( 'NONE', #123, #17, #289, .T. ) ;
#79 = EDGE_LOOP ( 'NONE', ( #346, #214, #410, #264 ) ) ;
#80 = AXIS2_PLACEMENT_3D ( 'NONE', #319, #489, #450 ) ;
#81 = PRODUCT ( '\X2\5b9d52514e0a76d6\X0\', '\X2\5b9d52514e0a76d6\X0\', '', ( #258 ) ) ;
#82 = VERTEX_POINT ( 'NONE', #333 ) ;
#83 = VECTOR ( 'NONE', #65, 1000.000000000000000 ) ;
#84 = LINE ( 'NONE', #447, #368 ) ;
#85 = DIRECTION ( 'NONE',  ( -1.000000000000000000, 0.000000000000000000, 0.000000000000000000 ) ) ;
#86 = DIRECTION ( 'NONE',  ( 0.000000000000000000, -1.000000000000000000, 0.000000000000000000 ) ) ;
#87 = ADVANCED_FACE ( 'NONE', ( #566 ), #467, .F. ) ;
#88 = CARTESIAN_POINT ( 'NONE',  ( 13.99999999999999645, -1.044623529882867130E-15, 56.50000000000000000 ) ) ;
#89 = CARTESIAN_POINT ( 'NONE',  ( 3.898667015390237095E-31, -3.183503209337287394E-15, -46.00000000000000000 ) ) ;
#90 = CARTESIAN_POINT ( 'NONE',  ( -13.79999999999999893, 1.299999999999991385, -46.00000000000000000 ) ) ;
#91 = CARTESIAN_POINT ( 'NONE',  ( 15.79999999999999538, 1.299999999999995159, -46.00000000000000000 ) ) ;
#92 = CARTESIAN_POINT ( 'NONE',  ( -9.000000000000001776, -0.001000000000005336898, 36.50000000000000711 ) ) ;
#93 = DIRECTION ( 'NONE',  ( 1.000000000000000000, 0.000000000000000000, 0.000000000000000000 ) ) ;
#94 = DIRECTION ( 'NONE',  ( 1.000000000000000000, 2.891205793294678696E-17, -1.734723475976807341E-16 ) ) ;
#95 = ORIENTED_EDGE ( 'NONE', *, *, #127, .T. ) ;
#96 = EDGE_CURVE ( 'NONE', #306, #82, #109, .T. ) ;
#97 = DIRECTION ( 'NONE',  ( 0.000000000000000000, -1.000000000000000000, 0.000000000000000000 ) ) ;
#98 = CARTESIAN_POINT ( 'NONE',  ( 18.29999999999999716, 0.000000000000000000, 0.000000000000000000 ) ) ;
#99 = CARTESIAN_POINT ( 'NONE',  ( -16.30000000000000071, 0.000000000000000000, 56.50000000000000000 ) ) ;
#100 = CARTESIAN_POINT ( 'NONE',  ( -13.79999999999999893, 0.000000000000000000, -46.00000000000000000 ) ) ;
#101 = VERTEX_POINT ( 'NONE', #294 ) ;
#102 = VECTOR ( 'NONE', #335, 1000.000000000000000 ) ;
#103 = FACE_OUTER_BOUND ( 'NONE', #429, .T. ) ;
#104 = VECTOR ( 'NONE', #206, 1000.000000000000000 ) ;
#105 = LINE ( 'NONE', #11, #146 ) ;
#106 = ADVANCED_FACE ( 'NONE', ( #66 ), #478, .F. ) ;
#107 = PLANE ( 'NONE',  #302 ) ;
#108 = DIRECTION ( 'NONE',  ( 0.000000000000000000, -1.000000000000000000, 0.000000000000000000 ) ) ;
#109 = LINE ( 'NONE', #471, #582 ) ;
#110 = CARTESIAN_POINT ( 'NONE',  ( 13.99999999999999645, 2.999999999999995115, 56.50000000000000000 ) ) ;
#111 = EDGE_CURVE ( 'NONE', #538, #121, #379, .T. ) ;
#112 = VECTOR ( 'NONE', #403, 1000.000000000000000 ) ;
#113 = LINE ( 'NONE', #562, #555 ) ;
#114 = DIRECTION ( 'NONE',  ( -1.224646799147353700E-16, 1.000000000000000000, 0.000000000000000000 ) ) ;
#115 = VERTEX_POINT ( 'NONE', #200 ) ;
#116 = FACE_OUTER_BOUND ( 'NONE', #227, .T. ) ;
#117 = VERTEX_POINT ( 'NONE', #247 ) ;
#118 = DIRECTION ( 'NONE',  ( 0.000000000000000000, -1.000000000000000000, 0.000000000000000000 ) ) ;
#119 = ORIENTED_EDGE ( 'NONE', *, *, #270, .T. ) ;
#120 = EDGE_CURVE ( 'NONE', #574, #278, #557, .T. ) ;
#121 = VERTEX_POINT ( 'NONE', #424 ) ;
#122 = ORIENTED_EDGE ( 'NONE', *, *, #171, .F. ) ;
#123 = VERTEX_POINT ( 'NONE', #27 ) ;
#124 = PLANE ( 'NONE',  #443 ) ;
#125 = CARTESIAN_POINT ( 'NONE',  ( 18.29999999999999716, 1.299999999999995159, 0.000000000000000000 ) ) ;
#126 = VECTOR ( 'NONE', #54, 1000.000000000000000 ) ;
#127 = EDGE_CURVE ( 'NONE', #117, #47, #339, .T. ) ;
#128 = VECTOR ( 'NONE', #563, 1000.000000000000000 ) ;
#129 = EDGE_LOOP ( 'NONE', ( #144, #351, #299, #525 ) ) ;
#130 = DIRECTION ( 'NONE',  ( 0.000000000000000000, -1.000000000000000000, 0.000000000000000000 ) ) ;
#131 = CARTESIAN_POINT ( 'NONE',  ( -12.00000000000000000, -4.653079368314112328E-15, 56.50000000000000000 ) ) ;
#132 = CARTESIAN_POINT ( 'NONE',  ( 11.00000000000000000, 4.799999999999992717, 36.50000000000000711 ) ) ;
#133 = ORIENTED_EDGE ( 'NONE', *, *, #171, .T. ) ;
#134 = DIRECTION ( 'NONE',  ( -1.734723475976807341E-16, 0.000000000000000000, -1.000000000000000000 ) ) ;
#135 = CARTESIAN_POINT ( 'NONE',  ( -4.003208021484931636E-16, 2.999999999999993339, -46.00000000000000000 ) ) ;
#136 = ORIENTED_EDGE ( 'NONE', *, *, #506, .T. ) ;
#137 = EDGE_CURVE ( 'NONE', #101, #52, #148, .T. ) ;
#138 = AXIS2_PLACEMENT_3D ( 'NONE', #239, #422, #428 ) ;
#139 = PLANE ( 'NONE',  #242 ) ;
#140 = PLANE ( 'NONE',  #204 ) ;
#141 = EDGE_LOOP ( 'NONE', ( #327, #208, #26, #392, #553, #207, #249, #77 ) ) ;
#142 = LINE ( 'NONE', #361, #332 ) ;
#143 = FACE_OUTER_BOUND ( 'NONE', #579, .T. ) ;
#144 = ORIENTED_EDGE ( 'NONE', *, *, #511, .T. ) ;
#145 = ADVANCED_FACE ( 'NONE', ( #103 ), #417, .F. ) ;
#146 = VECTOR ( 'NONE', #190, 1000.000000000000000 ) ;
#147 = CARTESIAN_POINT ( 'NONE',  ( -16.30000000000000071, 0.000000000000000000, 0.000000000000000000 ) ) ;
#148 = LINE ( 'NONE', #322, #58 ) ;
#149 = DIRECTION ( 'NONE',  ( 1.000000000000000000, 0.000000000000000000, 0.000000000000000000 ) ) ;
#150 = CARTESIAN_POINT ( 'NONE',  ( -16.30000000000000071, 1.299999999999991385, -46.00000000000000000 ) ) ;
#151 = ADVANCED_FACE ( 'NONE', ( #61 ), #140, .F. ) ;
#152 = VECTOR ( 'NONE', #192, 1000.000000000000000 ) ;
#153 = FILL_AREA_STYLE_COLOUR ( '', #155 ) ;
#154 = CARTESIAN_POINT ( 'NONE',  ( 9.969337730825396929E-31, -4.294563400629565722E-15, -46.00000000000000000 ) ) ;
#155 = COLOUR_RGB ( '',0.7921568627450980005, 0.8196078431372548767, 0.9333333333333333481 ) ;
#156 = SURFACE_STYLE_USAGE ( .BOTH. , #381 ) ;
#157 = ORIENTED_EDGE ( 'NONE', *, *, #399, .F. ) ;
#158 = DIRECTION ( 'NONE',  ( -1.000000000000000000, 0.000000000000000000, -0.000000000000000000 ) ) ;
#159 = ORIENTED_EDGE ( 'NONE', *, *, #252, .T. ) ;
#160 = PLANE ( 'NONE',  #138 ) ;
#161 = ORIENTED_EDGE ( 'NONE', *, *, #297, .T. ) ;
#162 = EDGE_LOOP ( 'NONE', ( #35, #163, #549, #570 ) ) ;
#163 = ORIENTED_EDGE ( 'NONE', *, *, #240, .F. ) ;
#164 = EDGE_CURVE ( 'NONE', #394, #397, #275, .T. ) ;
#165 = ORIENTED_EDGE ( 'NONE', *, *, #193, .T. ) ;
#166 = VECTOR ( 'NONE', #547, 1000.000000000000000 ) ;
#167 = ORIENTED_EDGE ( 'NONE', *, *, #78, .T. ) ;
#168 = APPLICATION_CONTEXT ( 'automotive_design' ) ;
#169 = VERTEX_POINT ( 'NONE', #194 ) ;
#170 = FILL_AREA_STYLE ('',( #153 ) ) ;
#171 = EDGE_CURVE ( 'NONE', #36, #40, #232, .T. ) ;
#172 = ORIENTED_EDGE ( 'NONE', *, *, #209, .T. ) ;
#173 = ORIENTED_EDGE ( 'NONE', *, *, #216, .F. ) ;
#174 = CARTESIAN_POINT ( 'NONE',  ( 15.79999999999999538, 4.799999999999992717, -46.00000000000000000 ) ) ;
#175 = UNCERTAINTY_MEASURE_WITH_UNIT (LENGTH_MEASURE( 1.000000000000000082E-05 ), #517, 'distance_accuracy_value', 'NONE');
#176 = VECTOR ( 'NONE', #287, 1000.000000000000000 ) ;
#177 = CARTESIAN_POINT ( 'NONE',  ( 13.99999999999999645, -1.044623234536067166E-15, -46.00000000000000000 ) ) ;
#178 = CARTESIAN_POINT ( 'NONE',  ( -11.99999999999999822, 2.999999999999992006, 56.50000000000000000 ) ) ;
#179 = CARTESIAN_POINT ( 'NONE',  ( -13.79999999999999893, 4.799999999999992717, 0.000000000000000000 ) ) ;
#180 = EDGE_CURVE ( 'NONE', #371, #101, #419, .T. ) ;
#181 = CARTESIAN_POINT ( 'NONE',  ( -16.30000000000000071, 0.000000000000000000, 56.50000000000000000 ) ) ;
#182 = LINE ( 'NONE', #541, #166 ) ;
#183 = DIRECTION ( 'NONE',  ( -0.000000000000000000, -0.000000000000000000, -1.000000000000000000 ) ) ;
#184 = EDGE_CURVE ( 'NONE', #117, #545, #554, .T. ) ;
#185 = DIRECTION ( 'NONE',  ( 0.000000000000000000, 0.000000000000000000, -1.000000000000000000 ) ) ;
#186 = CARTESIAN_POINT ( 'NONE',  ( -16.30000000000000071, 1.299999999999991385, 0.000000000000000000 ) ) ;
#187 = CARTESIAN_POINT ( 'NONE',  ( -13.79999999999999893, 4.799999999999992717, 56.50000000000000000 ) ) ;
#188 = VERTEX_POINT ( 'NONE', #455 ) ;
#189 = CARTESIAN_POINT ( 'NONE',  ( -8.999999999999998224, -0.001000000000005336898, 56.50000000000000000 ) ) ;
#190 = DIRECTION ( 'NONE',  ( 0.000000000000000000, 1.000000000000000000, 0.000000000000000000 ) ) ;
#191 = PRODUCT_DEFINITION_CONTEXT ( 'detailed design', #473, 'design' ) ;
#192 = DIRECTION ( 'NONE',  ( 1.000000000000000000, 0.000000000000000000, 0.000000000000000000 ) ) ;
#193 = EDGE_CURVE ( 'NONE', #52, #115, #7, .T. ) ;
#194 = CARTESIAN_POINT ( 'NONE',  ( 11.00000000000000355, 4.799999999999992717, 56.50000000000000000 ) ) ;
#195 = DIRECTION ( 'NONE',  ( 0.000000000000000000, 1.000000000000000000, 0.000000000000000000 ) ) ;
#196 = LINE ( 'NONE', #560, #14 ) ;
#197 = EDGE_CURVE ( 'NONE', #538, #73, #363, .T. ) ;
#198 = DIRECTION ( 'NONE',  ( 1.000000000000000000, 0.000000000000000000, 0.000000000000000000 ) ) ;
#199 = CARTESIAN_POINT ( 'NONE',  ( 15.79999999999999538, 0.000000000000000000, -46.00000000000000000 ) ) ;
#200 = CARTESIAN_POINT ( 'NONE',  ( -8.999999999999998224, 4.799999999999992717, 56.50000000000000000 ) ) ;
#201 = SURFACE_STYLE_FILL_AREA ( #170 ) ;
#202 = EDGE_LOOP ( 'NONE', ( #338, #477, #224, #532 ) ) ;
#203 = LINE ( 'NONE', #244, #533 ) ;
#204 = AXIS2_PLACEMENT_3D ( 'NONE', #552, #16, #409 ) ;
#205 = AXIS2_PLACEMENT_3D ( 'NONE', #290, #567, #521 ) ;
#206 = DIRECTION ( 'NONE',  ( -2.891205793294678696E-17, 1.000000000000000000, -0.000000000000000000 ) ) ;
#207 = ORIENTED_EDGE ( 'NONE', *, *, #465, .F. ) ;
#208 = ORIENTED_EDGE ( 'NONE', *, *, #297, .F. ) ;
#209 = EDGE_CURVE ( 'NONE', #188, #435, #414, .T. ) ;
#210 = ORIENTED_EDGE ( 'NONE', *, *, #55, .F. ) ;
#211 = ORIENTED_EDGE ( 'NONE', *, *, #111, .F. ) ;
#212 = ORIENTED_EDGE ( 'NONE', *, *, #420, .T. ) ;
#213 = PRESENTATION_LAYER_ASSIGNMENT (  '', '', ( #423 ) ) ;
#214 = ORIENTED_EDGE ( 'NONE', *, *, #137, .F. ) ;
#215 = AXIS2_PLACEMENT_3D ( 'NONE', #179, #86, #358 ) ;
#216 = EDGE_CURVE ( 'NONE', #123, #397, #281, .T. ) ;
#217 = DIRECTION ( 'NONE',  ( -0.000000000000000000, -0.000000000000000000, -1.000000000000000000 ) ) ;
#218 = ORIENTED_EDGE ( 'NONE', *, *, #270, .F. ) ;
#219 = ORIENTED_EDGE ( 'NONE', *, *, #495, .F. ) ;
#220 = LINE ( 'NONE', #352, #60 ) ;
#221 = ORIENTED_EDGE ( 'NONE', *, *, #451, .F. ) ;
#222 = DIRECTION ( 'NONE',  ( -1.000000000000000000, -2.321385621961927777E-16, 0.000000000000000000 ) ) ;
#223 = VECTOR ( 'NONE', #308, 1000.000000000000000 ) ;
#224 = ORIENTED_EDGE ( 'NONE', *, *, #556, .F. ) ;
#225 = CARTESIAN_POINT ( 'NONE',  ( 0.000000000000000000, 0.000000000000000000, 56.50000000000000000 ) ) ;
#226 = CARTESIAN_POINT ( 'NONE',  ( 13.99999999999999645, -1.044623529882867130E-15, 56.50000000000000000 ) ) ;
#227 = EDGE_LOOP ( 'NONE', ( #459, #383, #167, #388, #119, #387, #303, #95, #159, #76, #261, #212 ) ) ;
#228 = CARTESIAN_POINT ( 'NONE',  ( 11.00000000000000000, 2.999999999999994671, 56.50000000000000000 ) ) ;
#229 = FACE_OUTER_BOUND ( 'NONE', #396, .T. ) ;
#230 = CARTESIAN_POINT ( 'NONE',  ( 11.00000000000000000, -0.001000000000005336898, 36.50000000000000711 ) ) ;
#231 = VECTOR ( 'NONE', #59, 1000.000000000000000 ) ;
#232 = LINE ( 'NONE', #458, #75 ) ;
#233 = DIRECTION ( 'NONE',  ( 0.000000000000000000, 0.000000000000000000, -1.000000000000000000 ) ) ;
#234 = DIRECTION ( 'NONE',  ( 0.000000000000000000, 1.000000000000000000, 0.000000000000000000 ) ) ;
#235 = EDGE_CURVE ( 'NONE', #40, #12, #509, .T. ) ;
#236 = PRODUCT_DEFINITION_SHAPE ( 'NONE', 'NONE',  #412 ) ;
#237 = DIRECTION ( 'NONE',  ( -0.000000000000000000, -0.000000000000000000, 1.000000000000000000 ) ) ;
#238 = CARTESIAN_POINT ( 'NONE',  ( 0.000000000000000000, 1.299999999999991385, -46.00000000000000000 ) ) ;
#239 = CARTESIAN_POINT ( 'NONE',  ( 13.99999999999999645, 2.999999999999995115, 56.50000000000000000 ) ) ;
#240 = EDGE_CURVE ( 'NONE', #17, #293, #105, .T. ) ;
#241 = DIRECTION ( 'NONE',  ( 1.000000000000000000, 0.000000000000000000, 0.000000000000000000 ) ) ;
#242 = AXIS2_PLACEMENT_3D ( 'NONE', #186, #97, #10 ) ;
#243 = DIRECTION ( 'NONE',  ( -1.000000000000000000, -1.224646799147353700E-16, 0.000000000000000000 ) ) ;
#244 = CARTESIAN_POINT ( 'NONE',  ( -13.79999999999999893, 4.799999999999992717, 56.50000000000000000 ) ) ;
#245 = CARTESIAN_POINT ( 'NONE',  ( 0.000000000000000000, 4.799999999999992717, -46.00000000000000000 ) ) ;
#246 = ORIENTED_EDGE ( 'NONE', *, *, #279, .F. ) ;
#247 = CARTESIAN_POINT ( 'NONE',  ( -16.30000000000000071, 0.000000000000000000, -46.00000000000000000 ) ) ;
#248 = CARTESIAN_POINT ( 'NONE',  ( 15.79999999999999538, 4.799999999999992717, 0.000000000000000000 ) ) ;
#249 = ORIENTED_EDGE ( 'NONE', *, *, #63, .T. ) ;
#250 = AXIS2_PLACEMENT_3D ( 'NONE', #513, #516, #70 ) ;
#251 = VERTEX_POINT ( 'NONE', #62 ) ;
#252 = EDGE_CURVE ( 'NONE', #47, #371, #367, .T. ) ;
#253 = PLANE ( 'NONE',  #205 ) ;
#254 = ORIENTED_EDGE ( 'NONE', *, *, #506, .F. ) ;
#255 = EDGE_LOOP ( 'NONE', ( #43, #482, #474, #572, #569, #348, #165, #257 ) ) ;
#256 = EDGE_CURVE ( 'NONE', #47, #574, #370, .T. ) ;
#257 = ORIENTED_EDGE ( 'NONE', *, *, #528, .F. ) ;
#258 = PRODUCT_CONTEXT ( 'NONE', #168, 'mechanical' ) ;
#259 = AXIS2_PLACEMENT_3D ( 'NONE', #507, #318, #222 ) ;
#260 = EDGE_CURVE ( 'NONE', #439, #293, #142, .T. ) ;
#261 = ORIENTED_EDGE ( 'NONE', *, *, #406, .T. ) ;
#262 = DIRECTION ( 'NONE',  ( 0.000000000000000000, 0.000000000000000000, 1.000000000000000000 ) ) ;
#263 = AXIS2_PLACEMENT_3D ( 'NONE', #248, #512, #375 ) ;
#264 = ORIENTED_EDGE ( 'NONE', *, *, #345, .T. ) ;
#265 = CARTESIAN_POINT ( 'NONE',  ( 11.00000000000000000, 2.999999999999994671, 36.50000000000000711 ) ) ;
#266 = ORIENTED_EDGE ( 'NONE', *, *, #365, .T. ) ;
#267 = LINE ( 'NONE', #132, #384 ) ;
#268 = ORIENTED_EDGE ( 'NONE', *, *, #380, .T. ) ;
#269 = CARTESIAN_POINT ( 'NONE',  ( 0.000000000000000000, 0.000000000000000000, 56.50000000000000000 ) ) ;
#270 = EDGE_CURVE ( 'NONE', #293, #73, #325, .T. ) ;
#271 = UNCERTAINTY_MEASURE_WITH_UNIT (LENGTH_MEASURE( 1.000000000000000082E-05 ), #366, 'distance_accuracy_value', 'NONE');
#272 = LINE ( 'NONE', #452, #223 ) ;
#273 = FACE_OUTER_BOUND ( 'NONE', #79, .T. ) ;
#274 = PLANE ( 'NONE',  #515 ) ;
#275 = LINE ( 'NONE', #464, #126 ) ;
#276 = CARTESIAN_POINT ( 'NONE',  ( 13.99999999999999645, -1.044623529882867130E-15, 56.50000000000000000 ) ) ;
#277 = DIRECTION ( 'NONE',  ( -0.000000000000000000, -0.000000000000000000, 1.000000000000000000 ) ) ;
#278 = VERTEX_POINT ( 'NONE', #461 ) ;
#279 = EDGE_CURVE ( 'NONE', #278, #52, #320, .T. ) ;
#280 = DIRECTION ( 'NONE',  ( -0.000000000000000000, -1.000000000000000000, -0.000000000000000000 ) ) ;
#281 = LINE ( 'NONE', #98, #432 ) ;
#282 = ORIENTED_EDGE ( 'NONE', *, *, #184, .F. ) ;
#283 = VECTOR ( 'NONE', #183, 1000.000000000000000 ) ;
#284 = VECTOR ( 'NONE', #558, 1000.000000000000000 ) ;
#285 = DIRECTION ( 'NONE',  ( -0.000000000000000000, -0.000000000000000000, 1.000000000000000000 ) ) ;
#286 = ORIENTED_EDGE ( 'NONE', *, *, #127, .F. ) ;
#287 = DIRECTION ( 'NONE',  ( 1.000000000000000000, 0.000000000000000000, 0.000000000000000000 ) ) ;
#288 = ADVANCED_FACE ( 'NONE', ( #143 ), #326, .F. ) ;
#289 = LINE ( 'NONE', #154, #102 ) ;
#290 = CARTESIAN_POINT ( 'NONE',  ( 15.79999999999999538, 1.299999999999995159, 0.000000000000000000 ) ) ;
#291 = CARTESIAN_POINT ( 'NONE',  ( -11.99999999999999822, 2.999999999999992006, -46.00000000000000000 ) ) ;
#292 = CARTESIAN_POINT ( 'NONE',  ( -12.00000000000000000, 6.938893903907236266E-15, -46.00000000000000000 ) ) ;
#293 = VERTEX_POINT ( 'NONE', #48 ) ;
#294 = CARTESIAN_POINT ( 'NONE',  ( -13.79999999999999893, 4.799999999999992717, -46.00000000000000000 ) ) ;
#295 = LINE ( 'NONE', #331, #104 ) ;
#296 = ORIENTED_EDGE ( 'NONE', *, *, #96, .T. ) ;
#297 = EDGE_CURVE ( 'NONE', #12, #397, #401, .T. ) ;
#298 = DIRECTION ( 'NONE',  ( 1.000000000000000000, 1.334402673828313339E-16, -0.000000000000000000 ) ) ;
#299 = ORIENTED_EDGE ( 'NONE', *, *, #197, .F. ) ;
#300 = LINE ( 'NONE', #349, #336 ) ;
#301 = EDGE_LOOP ( 'NONE', ( #449, #33, #211, #481, #218, #340, #565, #42 ) ) ;
#302 = AXIS2_PLACEMENT_3D ( 'NONE', #385, #330, #559 ) ;
#303 = ORIENTED_EDGE ( 'NONE', *, *, #1, .T. ) ;
#304 = VERTEX_POINT ( 'NONE', #265 ) ;
#305 = EDGE_CURVE ( 'NONE', #8, #538, #357, .T. ) ;
#306 = VERTEX_POINT ( 'NONE', #174 ) ;
#307 = AXIS2_PLACEMENT_3D ( 'NONE', #92, #534, #317 ) ;
#308 = DIRECTION ( 'NONE',  ( 0.000000000000000000, -1.000000000000000000, 0.000000000000000000 ) ) ;
#309 = DIRECTION ( 'NONE',  ( 5.782411586589363555E-16, 1.000000000000000000, -0.000000000000000000 ) ) ;
#310 = VECTOR ( 'NONE', #298, 1000.000000000000000 ) ;
#311 = AXIS2_PLACEMENT_3D ( 'NONE', #225, #185, #85 ) ;
#312 = ORIENTED_EDGE ( 'NONE', *, *, #305, .T. ) ;
#313 = DIRECTION ( 'NONE',  ( -0.000000000000000000, -0.000000000000000000, -1.000000000000000000 ) ) ;
#314 = SHAPE_DEFINITION_REPRESENTATION ( #236, #44 ) ;
#315 = DIRECTION ( 'NONE',  ( 0.000000000000000000, 0.000000000000000000, -1.000000000000000000 ) ) ;
#316 = ADVANCED_FACE ( 'NONE', ( #273 ), #583, .F. ) ;
#317 = DIRECTION ( 'NONE',  ( -1.000000000000000000, 0.000000000000000000, -0.000000000000000000 ) ) ;
#318 = DIRECTION ( 'NONE',  ( -2.321385621961927777E-16, 1.000000000000000000, 0.000000000000000000 ) ) ;
#319 = CARTESIAN_POINT ( 'NONE',  ( -13.79999999999999893, 1.299999999999991385, 0.000000000000000000 ) ) ;
#320 = LINE ( 'NONE', #499, #378 ) ;
#321 =( NAMED_UNIT ( * ) SI_UNIT ( $, .STERADIAN. ) SOLID_ANGLE_UNIT ( ) );
#322 = CARTESIAN_POINT ( 'NONE',  ( -13.79999999999999893, 4.799999999999992717, 0.000000000000000000 ) ) ;
#323 = ADVANCED_FACE ( 'NONE', ( #359 ), #446, .F. ) ;
#324 = FACE_OUTER_BOUND ( 'NONE', #162, .T. ) ;
#325 = LINE ( 'NONE', #135, #9 ) ;
#326 = PLANE ( 'NONE',  #259 ) ;
#327 = ORIENTED_EDGE ( 'NONE', *, *, #164, .T. ) ;
#328 = VECTOR ( 'NONE', #421, 1000.000000000000000 ) ;
#329 = CARTESIAN_POINT ( 'NONE',  ( -11.99999999999999822, 2.999999999999992006, 56.50000000000000000 ) ) ;
#330 = DIRECTION ( 'NONE',  ( 0.000000000000000000, 0.000000000000000000, -1.000000000000000000 ) ) ;
#331 = CARTESIAN_POINT ( 'NONE',  ( 11.00000000000000355, -0.001000000000005336898, 56.50000000000000000 ) ) ;
#332 = VECTOR ( 'NONE', #542, 1000.000000000000000 ) ;
#333 = CARTESIAN_POINT ( 'NONE',  ( 15.79999999999999538, 4.799999999999992717, 56.50000000000000000 ) ) ;
#334 = PRESENTATION_STYLE_ASSIGNMENT (( #156 ) ) ;
#335 = DIRECTION ( 'NONE',  ( -1.000000000000000000, -2.321385621961927777E-16, 0.000000000000000000 ) ) ;
#336 = VECTOR ( 'NONE', #71, 1000.000000000000000 ) ;
#337 = ADVANCED_FACE ( 'NONE', ( #540 ), #497, .F. ) ;
#338 = ORIENTED_EDGE ( 'NONE', *, *, #399, .T. ) ;
#339 = LINE ( 'NONE', #20, #382 ) ;
#340 = ORIENTED_EDGE ( 'NONE', *, *, #260, .F. ) ;
#341 = CARTESIAN_POINT ( 'NONE',  ( 18.29999999999999716, 0.000000000000000000, -46.00000000000000000 ) ) ;
#342 = ORIENTED_EDGE ( 'NONE', *, *, #235, .T. ) ;
#343 = ORIENTED_EDGE ( 'NONE', *, *, #13, .T. ) ;
#344 = EDGE_LOOP ( 'NONE', ( #342, #221, #210, #133 ) ) ;
#345 = EDGE_CURVE ( 'NONE', #371, #278, #453, .T. ) ;
#346 = ORIENTED_EDGE ( 'NONE', *, *, #279, .T. ) ;
#347 = CARTESIAN_POINT ( 'NONE',  ( 0.000000000000000000, 0.000000000000000000, 0.000000000000000000 ) ) ;
#348 = ORIENTED_EDGE ( 'NONE', *, *, #137, .T. ) ;
#349 = CARTESIAN_POINT ( 'NONE',  ( -12.00000000000000000, -4.653079368314112328E-15, 56.50000000000000000 ) ) ;
#350 = VERTEX_POINT ( 'NONE', #228 ) ;
#351 = ORIENTED_EDGE ( 'NONE', *, *, #445, .F. ) ;
#352 = CARTESIAN_POINT ( 'NONE',  ( -9.000000000000001776, 2.999999999999992450, 36.50000000000000711 ) ) ;
#353 = VECTOR ( 'NONE', #241, 1000.000000000000000 ) ;
#354 = VECTOR ( 'NONE', #149, 1000.000000000000000 ) ;
#355 = EDGE_CURVE ( 'NONE', #169, #188, #267, .T. ) ;
#356 = CARTESIAN_POINT ( 'NONE',  ( -16.30000000000000071, 0.000000000000000000, 0.000000000000000000 ) ) ;
#357 = LINE ( 'NONE', #178, #486 ) ;
#358 = DIRECTION ( 'NONE',  ( 0.000000000000000000, -0.000000000000000000, -1.000000000000000000 ) ) ;
#359 = FACE_OUTER_BOUND ( 'NONE', #520, .T. ) ;
#360 = DIRECTION ( 'NONE',  ( -2.891205793294678696E-17, 1.000000000000000000, -0.000000000000000000 ) ) ;
#361 = CARTESIAN_POINT ( 'NONE',  ( 13.99999999999999645, 2.999999999999995115, 56.50000000000000000 ) ) ;
#362 = LINE ( 'NONE', #543, #573 ) ;
#363 = LINE ( 'NONE', #329, #283 ) ;
#364 = ORIENTED_EDGE ( 'NONE', *, *, #252, .F. ) ;
#365 = EDGE_CURVE ( 'NONE', #394, #17, #407, .T. ) ;
#366 =( LENGTH_UNIT ( ) NAMED_UNIT ( * ) SI_UNIT ( .MILLI., .METRE. ) );
#367 = LINE ( 'NONE', #238, #152 ) ;
#368 = VECTOR ( 'NONE', #581, 1000.000000000000000 ) ;
#369 = PRODUCT_RELATED_PRODUCT_CATEGORY ( 'part', '', ( #81 ) ) ;
#370 = LINE ( 'NONE', #548, #231 ) ;
#371 = VERTEX_POINT ( 'NONE', #90 ) ;
#372 = DIRECTION ( 'NONE',  ( -1.734723475976807341E-16, 0.000000000000000000, -1.000000000000000000 ) ) ;
#373 = ADVANCED_FACE ( 'NONE', ( #398 ), #51, .F. ) ;
#374 = CARTESIAN_POINT ( 'NONE',  ( 18.29999999999999716, 1.299999999999995159, 0.000000000000000000 ) ) ;
#375 = DIRECTION ( 'NONE',  ( -0.000000000000000000, 0.000000000000000000, 1.000000000000000000 ) ) ;
#376 = DIRECTION ( 'NONE',  ( 1.000000000000000000, 0.000000000000000000, 0.000000000000000000 ) ) ;
#377 = CARTESIAN_POINT ( 'NONE',  ( -12.00000000000000000, -4.653079368314112328E-15, 56.50000000000000000 ) ) ;
#378 = VECTOR ( 'NONE', #234, 1000.000000000000000 ) ;
#379 = LINE ( 'NONE', #427, #564 ) ;
#380 = EDGE_CURVE ( 'NONE', #545, #574, #3, .T. ) ;
#381 = SURFACE_SIDE_STYLE ('',( #201 ) ) ;
#382 = VECTOR ( 'NONE', #195, 1000.000000000000000 ) ;
#383 = ORIENTED_EDGE ( 'NONE', *, *, #495, .T. ) ;
#384 = VECTOR ( 'NONE', #134, 1000.000000000000000 ) ;
#385 = CARTESIAN_POINT ( 'NONE',  ( 0.000000000000000000, 0.000000000000000000, -46.00000000000000000 ) ) ;
#386 = PLANE ( 'NONE',  #470 ) ;
#387 = ORIENTED_EDGE ( 'NONE', *, *, #445, .T. ) ;
#388 = ORIENTED_EDGE ( 'NONE', *, *, #240, .T. ) ;
#389 = EDGE_CURVE ( 'NONE', #527, #304, #220, .T. ) ;
#390 = EDGE_LOOP ( 'NONE', ( #38, #172, #157, #456 ) ) ;
#391 = ORIENTED_EDGE ( 'NONE', *, *, #37, .T. ) ;
#392 = ORIENTED_EDGE ( 'NONE', *, *, #37, .F. ) ;
#393 =( GEOMETRIC_REPRESENTATION_CONTEXT ( 3 ) GLOBAL_UNCERTAINTY_ASSIGNED_CONTEXT ( ( #271 ) ) GLOBAL_UNIT_ASSIGNED_CONTEXT ( ( #366, #4, #551 ) ) REPRESENTATION_CONTEXT ( 'NONE', 'WORKASPACE' ) );
#394 = VERTEX_POINT ( 'NONE', #88 ) ;
#395 = FACE_OUTER_BOUND ( 'NONE', #301, .T. ) ;
#396 = EDGE_LOOP ( 'NONE', ( #433, #437, #364, #529 ) ) ;
#397 = VERTEX_POINT ( 'NONE', #448 ) ;
#398 = FACE_OUTER_BOUND ( 'NONE', #141, .T. ) ;
#399 = EDGE_CURVE ( 'NONE', #527, #435, #425, .T. ) ;
#400 = ORIENTED_EDGE ( 'NONE', *, *, #511, .F. ) ;
#401 = LINE ( 'NONE', #580, #411 ) ;
#402 = VECTOR ( 'NONE', #466, 1000.000000000000000 ) ;
#403 = DIRECTION ( 'NONE',  ( -1.000000000000000000, -1.224646799147353700E-16, 0.000000000000000000 ) ) ;
#404 = CARTESIAN_POINT ( 'NONE',  ( -13.79999999999999893, 1.299999999999991385, 0.000000000000000000 ) ) ;
#405 = CARTESIAN_POINT ( 'NONE',  ( 15.79999999999999538, 1.299999999999995159, 56.50000000000000000 ) ) ;
#406 = EDGE_CURVE ( 'NONE', #101, #306, #21, .T. ) ;
#407 = LINE ( 'NONE', #6, #434 ) ;
#408 = LINE ( 'NONE', #189, #501 ) ;
#409 = DIRECTION ( 'NONE',  ( -5.782411586589363555E-16, -1.000000000000000000, 0.000000000000000000 ) ) ;
#410 = ORIENTED_EDGE ( 'NONE', *, *, #180, .F. ) ;
#411 = VECTOR ( 'NONE', #130, 1000.000000000000000 ) ;
#412 = PRODUCT_DEFINITION ( 'æœ', '', #15, #191 ) ;
#413 = CARTESIAN_POINT ( 'NONE',  ( -9.000000000000001776, 2.999999999999993339, 36.50000000000000711 ) ) ;
#414 = LINE ( 'NONE', #503, #30 ) ;
#415 = VECTOR ( 'NONE', #280, 1000.000000000000000 ) ;
#416 = CARTESIAN_POINT ( 'NONE',  ( -16.30000000000000071, 1.299999999999991385, 56.50000000000000000 ) ) ;
#417 = PLANE ( 'NONE',  #508 ) ;
#418 = ORIENTED_EDGE ( 'NONE', *, *, #193, .F. ) ;
#419 = LINE ( 'NONE', #100, #462 ) ;
#420 = EDGE_CURVE ( 'NONE', #306, #36, #514, .T. ) ;
#421 = DIRECTION ( 'NONE',  ( -0.000000000000000000, -0.000000000000000000, 1.000000000000000000 ) ) ;
#422 = DIRECTION ( 'NONE',  ( -1.334402673828313339E-16, 1.000000000000000000, 0.000000000000000000 ) ) ;
#423 = STYLED_ITEM ( 'NONE', ( #334 ), #526 ) ;
#424 = CARTESIAN_POINT ( 'NONE',  ( -8.999999999999996447, 2.999999999999992450, 56.50000000000000000 ) ) ;
#425 = LINE ( 'NONE', #74, #128 ) ;
#426 = ADVANCED_FACE ( 'NONE', ( #431 ), #253, .F. ) ;
#427 = CARTESIAN_POINT ( 'NONE',  ( 13.99999999999999645, 2.999999999999995115, 56.50000000000000000 ) ) ;
#428 = DIRECTION ( 'NONE',  ( -1.000000000000000000, -1.334402673828313339E-16, 0.000000000000000000 ) ) ;
#429 = EDGE_LOOP ( 'NONE', ( #518, #442, #500, #343 ) ) ;
#430 = LINE ( 'NONE', #519, #310 ) ;
#431 = FACE_OUTER_BOUND ( 'NONE', #344, .T. ) ;
#432 = VECTOR ( 'NONE', #277, 1000.000000000000000 ) ;
#433 = ORIENTED_EDGE ( 'NONE', *, *, #120, .T. ) ;
#434 = VECTOR ( 'NONE', #313, 1000.000000000000000 ) ;
#435 = VERTEX_POINT ( 'NONE', #530 ) ;
#436 = LINE ( 'NONE', #125, #31 ) ;
#437 = ORIENTED_EDGE ( 'NONE', *, *, #345, .F. ) ;
#438 = EDGE_LOOP ( 'NONE', ( #161, #173, #219, #522 ) ) ;
#439 = VERTEX_POINT ( 'NONE', #110 ) ;
#440 = EDGE_LOOP ( 'NONE', ( #268, #32, #286, #488 ) ) ;
#441 =( GEOMETRIC_REPRESENTATION_CONTEXT ( 3 ) GLOBAL_UNCERTAINTY_ASSIGNED_CONTEXT ( ( #175 ) ) GLOBAL_UNIT_ASSIGNED_CONTEXT ( ( #517, #502, #321 ) ) REPRESENTATION_CONTEXT ( 'NONE', 'WORKASPACE' ) );
#442 = ORIENTED_EDGE ( 'NONE', *, *, #355, .T. ) ;
#443 = AXIS2_PLACEMENT_3D ( 'NONE', #356, #536, #315 ) ;
#444 = CARTESIAN_POINT ( 'NONE',  ( 18.29999999999999716, 1.299999999999995159, 56.50000000000000000 ) ) ;
#445 = EDGE_CURVE ( 'NONE', #73, #504, #472, .T. ) ;
#446 = PLANE ( 'NONE',  #561 ) ;
#447 = CARTESIAN_POINT ( 'NONE',  ( 11.00000000000000000, 2.999999999999994671, 36.50000000000000711 ) ) ;
#448 = CARTESIAN_POINT ( 'NONE',  ( 18.29999999999999716, 0.000000000000000000, 56.50000000000000000 ) ) ;
#449 = ORIENTED_EDGE ( 'NONE', *, *, #389, .F. ) ;
#450 = DIRECTION ( 'NONE',  ( 0.000000000000000000, 0.000000000000000000, -1.000000000000000000 ) ) ;
#451 = EDGE_CURVE ( 'NONE', #251, #12, #436, .T. ) ;
#452 = CARTESIAN_POINT ( 'NONE',  ( 15.79999999999999538, 4.799999999999992717, 56.50000000000000000 ) ) ;
#453 = LINE ( 'NONE', #404, #57 ) ;
#454 = LINE ( 'NONE', #276, #415 ) ;
#455 = CARTESIAN_POINT ( 'NONE',  ( 11.00000000000000000, 4.799999999999992717, 36.50000000000000711 ) ) ;
#456 = ORIENTED_EDGE ( 'NONE', *, *, #389, .T. ) ;
#457 = DIRECTION ( 'NONE',  ( -2.891205793294678696E-17, 1.000000000000000000, -0.000000000000000000 ) ) ;
#458 = CARTESIAN_POINT ( 'NONE',  ( 15.79999999999999538, 1.299999999999995159, 0.000000000000000000 ) ) ;
#459 = ORIENTED_EDGE ( 'NONE', *, *, #55, .T. ) ;
#460 = CARTESIAN_POINT ( 'NONE',  ( -11.99999999999999822, 2.999999999999992006, 56.50000000000000000 ) ) ;
#461 = CARTESIAN_POINT ( 'NONE',  ( -13.79999999999999893, 1.299999999999991385, 56.50000000000000000 ) ) ;
#462 = VECTOR ( 'NONE', #18, 1000.000000000000000 ) ;
#463 = VECTOR ( 'NONE', #108, 1000.000000000000000 ) ;
#464 = CARTESIAN_POINT ( 'NONE',  ( 18.49999999999999645, 0.000000000000000000, 56.50000000000000000 ) ) ;
#465 = EDGE_CURVE ( 'NONE', #350, #169, #295, .T. ) ;
#466 = DIRECTION ( 'NONE',  ( 1.000000000000000000, 0.000000000000000000, 0.000000000000000000 ) ) ;
#467 = PLANE ( 'NONE',  #250 ) ;
#468 = DIRECTION ( 'NONE',  ( -0.000000000000000000, -0.000000000000000000, 1.000000000000000000 ) ) ;
#469 = EDGE_CURVE ( 'NONE', #121, #527, #476, .T. ) ;
#470 = AXIS2_PLACEMENT_3D ( 'NONE', #377, #114, #243 ) ;
#471 = CARTESIAN_POINT ( 'NONE',  ( 15.79999999999999538, 4.799999999999992717, 0.000000000000000000 ) ) ;
#472 = LINE ( 'NONE', #292, #284 ) ;
#473 = APPLICATION_CONTEXT ( 'automotive_design' ) ;
#474 = ORIENTED_EDGE ( 'NONE', *, *, #49, .T. ) ;
#475 = CARTESIAN_POINT ( 'NONE',  ( -16.30000000000000071, 1.299999999999991385, 56.50000000000000000 ) ) ;
#476 = LINE ( 'NONE', #67, #83 ) ;
#477 = ORIENTED_EDGE ( 'NONE', *, *, #528, .T. ) ;
#478 = PLANE ( 'NONE',  #480 ) ;
#479 = ORIENTED_EDGE ( 'NONE', *, *, #420, .F. ) ;
#480 = AXIS2_PLACEMENT_3D ( 'NONE', #374, #158, #64 ) ;
#481 = ORIENTED_EDGE ( 'NONE', *, *, #197, .T. ) ;
#482 = ORIENTED_EDGE ( 'NONE', *, *, #355, .F. ) ;
#483 = ADVANCED_FACE ( 'NONE', ( #29 ), #386, .F. ) ;
#484 = ORIENTED_EDGE ( 'NONE', *, *, #556, .T. ) ;
#485 = ORIENTED_EDGE ( 'NONE', *, *, #216, .T. ) ;
#486 = VECTOR ( 'NONE', #309, 1000.000000000000000 ) ;
#487 = ADVANCED_FACE ( 'NONE', ( #395 ), #160, .F. ) ;
#488 = ORIENTED_EDGE ( 'NONE', *, *, #184, .T. ) ;
#489 = DIRECTION ( 'NONE',  ( 1.000000000000000000, -0.000000000000000000, 0.000000000000000000 ) ) ;
#490 = LINE ( 'NONE', #89, #112 ) ;
#491 = AXIS2_PLACEMENT_3D ( 'NONE', #347, #262, #46 ) ;
#492 = DIRECTION ( 'NONE',  ( 1.000000000000000000, 1.334402673828313339E-16, 0.000000000000000000 ) ) ;
#493 = ORIENTED_EDGE ( 'NONE', *, *, #380, .F. ) ;
#494 = DIRECTION ( 'NONE',  ( -1.000000000000000000, 0.000000000000000000, 0.000000000000000000 ) ) ;
#495 = EDGE_CURVE ( 'NONE', #251, #123, #34, .T. ) ;
#496 = FACE_OUTER_BOUND ( 'NONE', #440, .T. ) ;
#497 = PLANE ( 'NONE',  #307 ) ;
#498 = APPLICATION_PROTOCOL_DEFINITION ( 'draft international standard', 'automotive_design', 1998, #168 ) ;
#499 = CARTESIAN_POINT ( 'NONE',  ( -13.79999999999999893, 1.299999999999991385, 56.50000000000000000 ) ) ;
#500 = ORIENTED_EDGE ( 'NONE', *, *, #575, .F. ) ;
#501 = VECTOR ( 'NONE', #457, 1000.000000000000000 ) ;
#502 =( NAMED_UNIT ( * ) PLANE_ANGLE_UNIT ( ) SI_UNIT ( $, .RADIAN. ) );
#503 = CARTESIAN_POINT ( 'NONE',  ( -9.000000000000001776, 4.799999999999992717, 36.50000000000000711 ) ) ;
#504 = VERTEX_POINT ( 'NONE', #23 ) ;
#505 = DIRECTION ( 'NONE',  ( -1.000000000000000000, -1.334402673828313339E-16, 0.000000000000000000 ) ) ;
#506 = EDGE_CURVE ( 'NONE', #545, #8, #300, .T. ) ;
#507 = CARTESIAN_POINT ( 'NONE',  ( 18.49999999999999645, 0.000000000000000000, 56.50000000000000000 ) ) ;
#508 = AXIS2_PLACEMENT_3D ( 'NONE', #230, #94, #372 ) ;
#509 = LINE ( 'NONE', #56, #176 ) ;
#510 = DIRECTION ( 'NONE',  ( -0.000000000000000000, -0.000000000000000000, 1.000000000000000000 ) ) ;
#511 = EDGE_CURVE ( 'NONE', #8, #504, #196, .T. ) ;
#512 = DIRECTION ( 'NONE',  ( -1.000000000000000000, 0.000000000000000000, -0.000000000000000000 ) ) ;
#513 = CARTESIAN_POINT ( 'NONE',  ( -9.000000000000001776, -0.001000000000005336898, 36.50000000000000711 ) ) ;
#514 = LINE ( 'NONE', #199, #463 ) ;
#515 = AXIS2_PLACEMENT_3D ( 'NONE', #226, #93, #233 ) ;
#516 = DIRECTION ( 'NONE',  ( -1.000000000000000000, -2.891205793294678696E-17, 1.734723475976807341E-16 ) ) ;
#517 =( LENGTH_UNIT ( ) NAMED_UNIT ( * ) SI_UNIT ( .MILLI., .METRE. ) );
#518 = ORIENTED_EDGE ( 'NONE', *, *, #465, .T. ) ;
#519 = CARTESIAN_POINT ( 'NONE',  ( 13.99999999999999645, 2.999999999999995115, 56.50000000000000000 ) ) ;
#520 = EDGE_LOOP ( 'NONE', ( #484, #418, #246, #571, #493, #136, #312, #50 ) ) ;
#521 = DIRECTION ( 'NONE',  ( 0.000000000000000000, -0.000000000000000000, -1.000000000000000000 ) ) ;
#522 = ORIENTED_EDGE ( 'NONE', *, *, #451, .T. ) ;
#523 = ADVANCED_FACE ( 'NONE', ( #25 ), #577, .F. ) ;
#524 = EDGE_LOOP ( 'NONE', ( #254, #282, #576, #400 ) ) ;
#525 = ORIENTED_EDGE ( 'NONE', *, *, #305, .F. ) ;
#526 = MANIFOLD_SOLID_BREP ( '\X2\51f853f0\X0\-\X2\62c94f38\X0\2', #41 ) ;
#527 = VERTEX_POINT ( 'NONE', #413 ) ;
#528 = EDGE_CURVE ( 'NONE', #435, #115, #182, .T. ) ;
#529 = ORIENTED_EDGE ( 'NONE', *, *, #256, .T. ) ;
#530 = CARTESIAN_POINT ( 'NONE',  ( -9.000000000000001776, 4.799999999999992717, 36.50000000000000711 ) ) ;
#531 = ORIENTED_EDGE ( 'NONE', *, *, #78, .F. ) ;
#532 = ORIENTED_EDGE ( 'NONE', *, *, #469, .T. ) ;
#533 = VECTOR ( 'NONE', #198, 1000.000000000000000 ) ;
#534 = DIRECTION ( 'NONE',  ( 0.000000000000000000, 0.000000000000000000, -1.000000000000000000 ) ) ;
#535 = VECTOR ( 'NONE', #45, 1000.000000000000000 ) ;
#536 = DIRECTION ( 'NONE',  ( 1.000000000000000000, -0.000000000000000000, 0.000000000000000000 ) ) ;
#537 = DIRECTION ( 'NONE',  ( 0.000000000000000000, 0.000000000000000000, -1.000000000000000000 ) ) ;
#538 = VERTEX_POINT ( 'NONE', #460 ) ;
#539 = ADVANCED_FACE ( 'NONE', ( #229 ), #139, .F. ) ;
#540 = FACE_OUTER_BOUND ( 'NONE', #390, .T. ) ;
#541 = CARTESIAN_POINT ( 'NONE',  ( -9.000000000000001776, 4.799999999999992717, 36.50000000000000711 ) ) ;
#542 = DIRECTION ( 'NONE',  ( -0.000000000000000000, -0.000000000000000000, -1.000000000000000000 ) ) ;
#543 = CARTESIAN_POINT ( 'NONE',  ( 11.00000000000000000, -0.001000000000005336898, 36.50000000000000711 ) ) ;
#544 = DIRECTION ( 'NONE',  ( -1.000000000000000000, 0.000000000000000000, 0.000000000000000000 ) ) ;
#545 = VERTEX_POINT ( 'NONE', #99 ) ;
#546 = MECHANICAL_DESIGN_GEOMETRIC_PRESENTATION_REPRESENTATION (  '', ( #423 ), #441 ) ;
#547 = DIRECTION ( 'NONE',  ( 1.734723475976807341E-16, 0.000000000000000000, 1.000000000000000000 ) ) ;
#548 = CARTESIAN_POINT ( 'NONE',  ( -16.30000000000000071, 1.299999999999991385, 0.000000000000000000 ) ) ;
#549 = ORIENTED_EDGE ( 'NONE', *, *, #365, .F. ) ;
#550 = EDGE_CURVE ( 'NONE', #439, #394, #454, .T. ) ;
#551 =( NAMED_UNIT ( * ) SI_UNIT ( $, .STERADIAN. ) SOLID_ANGLE_UNIT ( ) );
#552 = CARTESIAN_POINT ( 'NONE',  ( -11.99999999999999822, 2.999999999999992006, 56.50000000000000000 ) ) ;
#553 = ORIENTED_EDGE ( 'NONE', *, *, #49, .F. ) ;
#554 = LINE ( 'NONE', #147, #328 ) ;
#555 = VECTOR ( 'NONE', #376, 1000.000000000000000 ) ;
#556 = EDGE_CURVE ( 'NONE', #121, #115, #408, .T. ) ;
#557 = LINE ( 'NONE', #475, #353 ) ;
#558 = DIRECTION ( 'NONE',  ( -5.782411586589363555E-16, -1.000000000000000000, 0.000000000000000000 ) ) ;
#559 = DIRECTION ( 'NONE',  ( -1.000000000000000000, 0.000000000000000000, -0.000000000000000000 ) ) ;
#560 = CARTESIAN_POINT ( 'NONE',  ( -12.00000000000000000, -4.653079368314112328E-15, 56.50000000000000000 ) ) ;
#561 = AXIS2_PLACEMENT_3D ( 'NONE', #269, #537, #494 ) ;
#562 = CARTESIAN_POINT ( 'NONE',  ( 0.000000000000000000, 1.299999999999995159, -46.00000000000000000 ) ) ;
#563 = DIRECTION ( 'NONE',  ( -2.891205793294678696E-17, 1.000000000000000000, -0.000000000000000000 ) ) ;
#564 = VECTOR ( 'NONE', #24, 1000.000000000000000 ) ;
#565 = ORIENTED_EDGE ( 'NONE', *, *, #63, .F. ) ;
#566 = FACE_OUTER_BOUND ( 'NONE', #202, .T. ) ;
#567 = DIRECTION ( 'NONE',  ( 0.000000000000000000, -1.000000000000000000, 0.000000000000000000 ) ) ;
#568 = ADVANCED_FACE ( 'NONE', ( #324 ), #274, .F. ) ;
#569 = ORIENTED_EDGE ( 'NONE', *, *, #406, .F. ) ;
#570 = ORIENTED_EDGE ( 'NONE', *, *, #550, .F. ) ;
#571 = ORIENTED_EDGE ( 'NONE', *, *, #120, .F. ) ;
#572 = ORIENTED_EDGE ( 'NONE', *, *, #96, .F. ) ;
#573 = VECTOR ( 'NONE', #360, 1000.000000000000000 ) ;
#574 = VERTEX_POINT ( 'NONE', #416 ) ;
#575 = EDGE_CURVE ( 'NONE', #304, #188, #362, .T. ) ;
#576 = ORIENTED_EDGE ( 'NONE', *, *, #1, .F. ) ;
#577 = PLANE ( 'NONE',  #263 ) ;
#578 = APPLICATION_PROTOCOL_DEFINITION ( 'draft international standard', 'automotive_design', 1998, #473 ) ;
#579 = EDGE_LOOP ( 'NONE', ( #266, #531, #485, #68 ) ) ;
#580 = CARTESIAN_POINT ( 'NONE',  ( 18.29999999999999716, 1.299999999999995159, 56.50000000000000000 ) ) ;
#581 = DIRECTION ( 'NONE',  ( 1.734723475976807341E-16, 2.314819644696197507E-32, 1.000000000000000000 ) ) ;
#582 = VECTOR ( 'NONE', #510, 1000.000000000000000 ) ;
#583 = PLANE ( 'NONE',  #80 ) ;
ENDSEC;
END-ISO-10303-21;
