ISO-10303-21;
HEADER;
FILE_DESCRIPTION (( 'STEP AP214' ),
    '1' );
FILE_NAME ('tracker…œ∞Î√Ê.STEP',
    '2026-08-16T01:17:38',
    ( '' ),
    ( '' ),
    'SwSTEP 2.0',
    'SolidWorks 2025',
    '' );
FILE_SCHEMA (( 'AUTOMOTIVE_DESIGN' ));
ENDSEC;

DATA;
#1 = DIRECTION ( 'NONE',  ( 0.000000000000000000, -1.000000000000000000, 0.000000000000000000 ) ) ;
#2 = ADVANCED_FACE ( 'NONE', ( #387 ), #611, .F. ) ;
#3 = EDGE_LOOP ( 'NONE', ( #501, #284 ) ) ;
#4 = CARTESIAN_POINT ( 'NONE',  ( -12.99999999999999822, 20.00000000000000355, 9.199999999999999289 ) ) ;
#5 = CARTESIAN_POINT ( 'NONE',  ( 8.000000000000008882, -27.00000000000000711, 9.199999999999999289 ) ) ;
#6 = VERTEX_POINT ( 'NONE', #1222 ) ;
#7 = ADVANCED_FACE ( 'NONE', ( #399 ), #828, .F. ) ;
#8 = EDGE_LOOP ( 'NONE', ( #548, #886, #1078, #861 ) ) ;
#9 = DIRECTION ( 'NONE',  ( 1.000000000000000000, -1.734723475976800981E-15, 0.000000000000000000 ) ) ;
#10 = EDGE_LOOP ( 'NONE', ( #218, #1018 ) ) ;
#11 = APPLICATION_PROTOCOL_DEFINITION ( 'draft international standard', 'automotive_design', 1998, #484 ) ;
#12 = DIRECTION ( 'NONE',  ( 0.000000000000000000, -0.000000000000000000, 1.000000000000000000 ) ) ;
#13 = SURFACE_SIDE_STYLE ('',( #1152 ) ) ;
#14 = VERTEX_POINT ( 'NONE', #1112 ) ;
#15 = CARTESIAN_POINT ( 'NONE',  ( -2.999999999999993783, -30.00000000000000711, 9.199999999999999289 ) ) ;
#16 = ADVANCED_FACE ( 'NONE', ( #920 ), #1336, .F. ) ;
#17 = ORIENTED_EDGE ( 'NONE', *, *, #200, .T. ) ;
#18 = VECTOR ( 'NONE', #451, 1000.000000000000000 ) ;
#19 = LINE ( 'NONE', #870, #670 ) ;
#20 = EDGE_LOOP ( 'NONE', ( #491, #391, #307, #1167 ) ) ;
#21 = FACE_BOUND ( 'NONE', #219, .T. ) ;
#22 = FACE_OUTER_BOUND ( 'NONE', #1028, .T. ) ;
#23 = ORIENTED_EDGE ( 'NONE', *, *, #610, .F. ) ;
#24 = CARTESIAN_POINT ( 'NONE',  ( -2.999999999999993783, -30.00000000000000711, 13.19999999999999929 ) ) ;
#25 = EDGE_CURVE ( 'NONE', #14, #1088, #194, .T. ) ;
#26 = EDGE_CURVE ( 'NONE', #1088, #328, #575, .T. ) ;
#27 = FACE_OUTER_BOUND ( 'NONE', #1008, .T. ) ;
#28 = CARTESIAN_POINT ( 'NONE',  ( 13.00000000000000888, -33.00100000000000477, 11.19999999999999929 ) ) ;
#29 = DIRECTION ( 'NONE',  ( -0.000000000000000000, -0.000000000000000000, -1.000000000000000000 ) ) ;
#30 = EDGE_LOOP ( 'NONE', ( #504, #913, #1000, #208 ) ) ;
#31 = ORIENTED_EDGE ( 'NONE', *, *, #1273, .F. ) ;
#32 = CYLINDRICAL_SURFACE ( 'NONE', #483, 1.249999999999999334 ) ;
#33 = EDGE_CURVE ( 'NONE', #677, #432, #714, .T. ) ;
#34 = CIRCLE ( 'NONE', #540, 1.249999999999999334 ) ;
#35 = LINE ( 'NONE', #777, #297 ) ;
#36 = VERTEX_POINT ( 'NONE', #406 ) ;
#37 = CYLINDRICAL_SURFACE ( 'NONE', #1162, 1.249999999999999334 ) ;
#38 = LINE ( 'NONE', #1189, #319 ) ;
#39 = VECTOR ( 'NONE', #664, 1000.000000000000000 ) ;
#40 = CIRCLE ( 'NONE', #815, 1.249999999999999334 ) ;
#41 = LINE ( 'NONE', #992, #765 ) ;
#42 = ADVANCED_FACE ( 'NONE', ( #162 ), #578, .F. ) ;
#43 = ORIENTED_EDGE ( 'NONE', *, *, #1224, .T. ) ;
#44 = DIRECTION ( 'NONE',  ( 0.000000000000000000, 1.000000000000000000, 0.000000000000000000 ) ) ;
#45 = LINE ( 'NONE', #1066, #898 ) ;
#46 = VERTEX_POINT ( 'NONE', #1317 ) ;
#47 = DIRECTION ( 'NONE',  ( 0.000000000000000000, 0.000000000000000000, -1.000000000000000000 ) ) ;
#48 = LINE ( 'NONE', #1332, #858 ) ;
#49 = CARTESIAN_POINT ( 'NONE',  ( -12.99999999999999467, -27.00000000000001066, 6.000000000000000000 ) ) ;
#50 = ORIENTED_EDGE ( 'NONE', *, *, #118, .F. ) ;
#51 = DIRECTION ( 'NONE',  ( 0.000000000000000000, 0.000000000000000000, 1.000000000000000000 ) ) ;
#52 = ORIENTED_EDGE ( 'NONE', *, *, #140, .F. ) ;
#53 = LINE ( 'NONE', #1194, #1293 ) ;
#54 = EDGE_CURVE ( 'NONE', #92, #89, #381, .T. ) ;
#55 = CARTESIAN_POINT ( 'NONE',  ( -15.00000000000000178, 20.00000000000000000, 0.000000000000000000 ) ) ;
#56 = PRODUCT_DEFINITION_FORMATION_WITH_SPECIFIED_SOURCE ( '‰ª', '', #357, .NOT_KNOWN. ) ;
#57 = AXIS2_PLACEMENT_3D ( 'NONE', #296, #452, #1082 ) ;
#58 = AXIS2_PLACEMENT_3D ( 'NONE', #216, #940, #440 ) ;
#59 = ORIENTED_EDGE ( 'NONE', *, *, #753, .T. ) ;
#60 = LINE ( 'NONE', #290, #293 ) ;
#61 = ADVANCED_FACE ( 'NONE', ( #691 ), #171, .F. ) ;
#62 = DIRECTION ( 'NONE',  ( -0.000000000000000000, 1.000000000000000000, -0.000000000000000000 ) ) ;
#63 = ORIENTED_EDGE ( 'NONE', *, *, #652, .T. ) ;
#64 = EDGE_CURVE ( 'NONE', #1320, #92, #102, .T. ) ;
#65 = DIRECTION ( 'NONE',  ( -0.000000000000000000, 1.000000000000000000, -0.000000000000000000 ) ) ;
#66 = CARTESIAN_POINT ( 'NONE',  ( -12.99999999999999645, 17.00000000000000355, 13.00000000000000000 ) ) ;
#67 = VERTEX_POINT ( 'NONE', #1154 ) ;
#68 = EDGE_LOOP ( 'NONE', ( #294, #1271 ) ) ;
#69 = LINE ( 'NONE', #880, #812 ) ;
#70 = PLANE ( 'NONE',  #767 ) ;
#71 = ORIENTED_EDGE ( 'NONE', *, *, #396, .F. ) ;
#72 = DIRECTION ( 'NONE',  ( 0.000000000000000000, 1.000000000000000000, 0.000000000000000000 ) ) ;
#73 = CARTESIAN_POINT ( 'NONE',  ( 8.000000000000008882, -27.00000000000000711, 9.199999999999999289 ) ) ;
#74 = LINE ( 'NONE', #1021, #1213 ) ;
#75 = ORIENTED_EDGE ( 'NONE', *, *, #156, .T. ) ;
#76 = CARTESIAN_POINT ( 'NONE',  ( -12.99999999999999467, -33.00000000000000000, 6.000000000000000000 ) ) ;
#77 = VECTOR ( 'NONE', #673, 1000.000000000000000 ) ;
#78 = EDGE_LOOP ( 'NONE', ( #172, #950 ) ) ;
#79 = DIRECTION ( 'NONE',  ( -1.000000000000000000, -8.673617379884004904E-16, 0.000000000000000000 ) ) ;
#80 = AXIS2_PLACEMENT_3D ( 'NONE', #1355, #1052, #1165 ) ;
#81 = CARTESIAN_POINT ( 'NONE',  ( -7.999999999999996447, 17.00000000000000355, 11.19999999999999929 ) ) ;
#82 = EDGE_CURVE ( 'NONE', #520, #432, #91, .T. ) ;
#83 = ORIENTED_EDGE ( 'NONE', *, *, #1267, .T. ) ;
#84 = VERTEX_POINT ( 'NONE', #644 ) ;
#85 = ORIENTED_EDGE ( 'NONE', *, *, #376, .F. ) ;
#86 = FACE_OUTER_BOUND ( 'NONE', #129, .T. ) ;
#87 = DIRECTION ( 'NONE',  ( 0.000000000000000000, 1.000000000000000000, 0.000000000000000000 ) ) ;
#88 = DIRECTION ( 'NONE',  ( -0.000000000000000000, 1.000000000000000000, -0.000000000000000000 ) ) ;
#89 = VERTEX_POINT ( 'NONE', #24 ) ;
#90 = CARTESIAN_POINT ( 'NONE',  ( -13.99999999999999467, 17.00000000000000355, 6.000000000000000000 ) ) ;
#91 = CIRCLE ( 'NONE', #1345, 1.249999999999999334 ) ;
#92 = VERTEX_POINT ( 'NONE', #15 ) ;
#93 = ADVANCED_FACE ( 'NONE', ( #836 ), #726, .T. ) ;
#94 = CARTESIAN_POINT ( 'NONE',  ( 13.00000000000000888, 14.00000000000000533, 11.19999999999999929 ) ) ;
#95 = ORIENTED_EDGE ( 'NONE', *, *, #1131, .T. ) ;
#96 = PRODUCT_CONTEXT ( 'NONE', #1281, 'mechanical' ) ;
#97 = DIRECTION ( 'NONE',  ( 1.000000000000000000, -0.000000000000000000, -0.000000000000000000 ) ) ;
#98 = PLANE ( 'NONE',  #737 ) ;
#99 = AXIS2_PLACEMENT_3D ( 'NONE', #897, #1309, #161 ) ;
#100 = ORIENTED_EDGE ( 'NONE', *, *, #518, .T. ) ;
#101 = AXIS2_PLACEMENT_3D ( 'NONE', #941, #620, #325 ) ;
#102 = LINE ( 'NONE', #743, #594 ) ;
#103 = PRODUCT_RELATED_PRODUCT_CATEGORY ( 'part', '', ( #357 ) ) ;
#104 = VECTOR ( 'NONE', #1044, 1000.000000000000000 ) ;
#105 = LINE ( 'NONE', #1156, #168 ) ;
#106 = VERTEX_POINT ( 'NONE', #1358 ) ;
#107 =( NAMED_UNIT ( * ) SI_UNIT ( $, .STERADIAN. ) SOLID_ANGLE_UNIT ( ) );
#108 = DIRECTION ( 'NONE',  ( 1.000000000000000000, 0.000000000000000000, 0.000000000000000000 ) ) ;
#109 = DIRECTION ( 'NONE',  ( 0.000000000000000000, 0.000000000000000000, 1.000000000000000000 ) ) ;
#110 = VERTEX_POINT ( 'NONE', #1059 ) ;
#111 = EDGE_CURVE ( 'NONE', #718, #536, #160, .T. ) ;
#112 = DIRECTION ( 'NONE',  ( -1.000000000000000000, 0.000000000000000000, 0.000000000000000000 ) ) ;
#113 = VECTOR ( 'NONE', #563, 1000.000000000000000 ) ;
#114 = CARTESIAN_POINT ( 'NONE',  ( -12.99999999999999467, -30.00000000000000711, 13.19999999999999929 ) ) ;
#115 = ORIENTED_EDGE ( 'NONE', *, *, #376, .T. ) ;
#116 = CARTESIAN_POINT ( 'NONE',  ( -12.99999999999999467, -30.00000000000000711, 9.199999999999999289 ) ) ;
#117 = CARTESIAN_POINT ( 'NONE',  ( 8.000000000000008882, -30.00000000000000711, 13.19999999999999929 ) ) ;
#118 = EDGE_CURVE ( 'NONE', #84, #676, #972, .T. ) ;
#119 = VERTEX_POINT ( 'NONE', #736 ) ;
#120 = VECTOR ( 'NONE', #934, 1000.000000000000000 ) ;
#121 = ORIENTED_EDGE ( 'NONE', *, *, #596, .F. ) ;
#122 = EDGE_CURVE ( 'NONE', #110, #480, #1272, .T. ) ;
#123 = LINE ( 'NONE', #4, #436 ) ;
#124 = CYLINDRICAL_SURFACE ( 'NONE', #101, 1.249999999999999334 ) ;
#125 = VERTEX_POINT ( 'NONE', #327 ) ;
#126 = EDGE_CURVE ( 'NONE', #337, #204, #869, .T. ) ;
#127 = PRESENTATION_LAYER_ASSIGNMENT (  '', '', ( #275 ) ) ;
#128 = VECTOR ( 'NONE', #654, 1000.000000000000000 ) ;
#129 = EDGE_LOOP ( 'NONE', ( #1314, #993, #786, #43 ) ) ;
#130 = AXIS2_PLACEMENT_3D ( 'NONE', #537, #332, #1065 ) ;
#131 = CIRCLE ( 'NONE', #478, 1.249999999999999334 ) ;
#132 = DIRECTION ( 'NONE',  ( -1.000000000000000000, 0.000000000000000000, 0.000000000000000000 ) ) ;
#133 = ORIENTED_EDGE ( 'NONE', *, *, #233, .F. ) ;
#134 = EDGE_CURVE ( 'NONE', #1298, #842, #311, .T. ) ;
#135 = UNCERTAINTY_MEASURE_WITH_UNIT (LENGTH_MEASURE( 1.000000000000000082E-05 ), #719, 'distance_accuracy_value', 'NONE');
#136 = DIRECTION ( 'NONE',  ( 1.000000000000000000, 0.000000000000000000, 0.000000000000000000 ) ) ;
#137 = ORIENTED_EDGE ( 'NONE', *, *, #919, .T. ) ;
#138 = LINE ( 'NONE', #875, #113 ) ;
#139 = PLANE ( 'NONE',  #581 ) ;
#140 = EDGE_CURVE ( 'NONE', #421, #1055, #244, .T. ) ;
#141 = VECTOR ( 'NONE', #690, 1000.000000000000000 ) ;
#142 = LINE ( 'NONE', #246, #624 ) ;
#143 = ORIENTED_EDGE ( 'NONE', *, *, #1330, .T. ) ;
#144 = DIRECTION ( 'NONE',  ( 0.000000000000000000, 0.000000000000000000, -1.000000000000000000 ) ) ;
#145 = VECTOR ( 'NONE', #309, 1000.000000000000000 ) ;
#146 = AXIS2_PLACEMENT_3D ( 'NONE', #658, #350, #771 ) ;
#147 = LINE ( 'NONE', #933, #813 ) ;
#148 = DIRECTION ( 'NONE',  ( 1.000000000000000000, 0.000000000000000000, 0.000000000000000000 ) ) ;
#149 = VERTEX_POINT ( 'NONE', #890 ) ;
#150 = EDGE_CURVE ( 'NONE', #1329, #247, #363, .T. ) ;
#151 = EDGE_LOOP ( 'NONE', ( #1231, #430, #1275, #600 ) ) ;
#152 = FACE_OUTER_BOUND ( 'NONE', #1041, .T. ) ;
#153 = CARTESIAN_POINT ( 'NONE',  ( 2.500000000000003997, 17.00000000000000355, 12.44999999999999929 ) ) ;
#154 = DIRECTION ( 'NONE',  ( 0.000000000000000000, -0.000000000000000000, 1.000000000000000000 ) ) ;
#155 = EDGE_LOOP ( 'NONE', ( #1181, #542 ) ) ;
#156 = EDGE_CURVE ( 'NONE', #916, #479, #74, .T. ) ;
#157 = DIRECTION ( 'NONE',  ( 1.000000000000000000, 0.000000000000000000, 0.000000000000000000 ) ) ;
#158 = DIRECTION ( 'NONE',  ( -1.000000000000000000, -1.119176436114069085E-16, 0.000000000000000000 ) ) ;
#159 = ORIENTED_EDGE ( 'NONE', *, *, #863, .F. ) ;
#160 = CIRCLE ( 'NONE', #874, 1.250000000000000222 ) ;
#161 = DIRECTION ( 'NONE',  ( 0.000000000000000000, 0.000000000000000000, -1.000000000000000000 ) ) ;
#162 = FACE_OUTER_BOUND ( 'NONE', #963, .T. ) ;
#163 = CARTESIAN_POINT ( 'NONE',  ( 0.000000000000000000, 0.000000000000000000, 13.00000000000000000 ) ) ;
#164 = AXIS2_PLACEMENT_3D ( 'NONE', #682, #72, #51 ) ;
#165 = DIRECTION ( 'NONE',  ( 0.000000000000000000, 1.000000000000000000, 0.000000000000000000 ) ) ;
#166 = VECTOR ( 'NONE', #645, 1000.000000000000000 ) ;
#167 = VERTEX_POINT ( 'NONE', #918 ) ;
#168 = VECTOR ( 'NONE', #1244, 1000.000000000000000 ) ;
#169 = CYLINDRICAL_SURFACE ( 'NONE', #1199, 1.249999999999999334 ) ;
#170 = LINE ( 'NONE', #270, #384 ) ;
#171 = PLANE ( 'NONE',  #685 ) ;
#172 = ORIENTED_EDGE ( 'NONE', *, *, #82, .F. ) ;
#173 = CARTESIAN_POINT ( 'NONE',  ( 13.00000000000000888, 17.00000000000000355, 11.19999999999999929 ) ) ;
#174 = CARTESIAN_POINT ( 'NONE',  ( 18.00000000000001066, -30.00000000000000711, 9.199999999999999289 ) ) ;
#175 = ORIENTED_EDGE ( 'NONE', *, *, #1322, .F. ) ;
#176 = FACE_BOUND ( 'NONE', #449, .T. ) ;
#177 = ORIENTED_EDGE ( 'NONE', *, *, #467, .F. ) ;
#178 = LINE ( 'NONE', #76, #1176 ) ;
#179 = LINE ( 'NONE', #55, #564 ) ;
#180 = EDGE_CURVE ( 'NONE', #46, #677, #34, .T. ) ;
#181 = ORIENTED_EDGE ( 'NONE', *, *, #761, .T. ) ;
#182 = CARTESIAN_POINT ( 'NONE',  ( -12.99999999999999467, -30.00000000000000711, 46.34482300479488259 ) ) ;
#183 = ORIENTED_EDGE ( 'NONE', *, *, #281, .T. ) ;
#184 = VECTOR ( 'NONE', #443, 1000.000000000000000 ) ;
#185 = ADVANCED_FACE ( 'NONE', ( #1316, #1233, #176, #1030 ), #1017, .F. ) ;
#186 = ORIENTED_EDGE ( 'NONE', *, *, #513, .F. ) ;
#187 = LINE ( 'NONE', #603, #1288 ) ;
#188 = ORIENTED_EDGE ( 'NONE', *, *, #207, .F. ) ;
#189 = ORIENTED_EDGE ( 'NONE', *, *, #1094, .F. ) ;
#190 = LINE ( 'NONE', #1015, #369 ) ;
#191 = VECTOR ( 'NONE', #984, 1000.000000000000000 ) ;
#192 = VECTOR ( 'NONE', #884, 1000.000000000000000 ) ;
#193 = FACE_OUTER_BOUND ( 'NONE', #1085, .T. ) ;
#194 = LINE ( 'NONE', #1010, #120 ) ;
#195 = DIRECTION ( 'NONE',  ( 1.000000000000000000, 0.000000000000000000, -0.000000000000000000 ) ) ;
#196 = CARTESIAN_POINT ( 'NONE',  ( 2.500000000000003997, 17.00000000000000355, 11.19999999999999929 ) ) ;
#197 = ORIENTED_EDGE ( 'NONE', *, *, #1196, .T. ) ;
#198 = DIRECTION ( 'NONE',  ( 0.000000000000000000, -0.000000000000000000, 1.000000000000000000 ) ) ;
#199 = CARTESIAN_POINT ( 'NONE',  ( 13.00000000000000888, -30.00000000000000711, 12.44999999999999929 ) ) ;
#200 = EDGE_CURVE ( 'NONE', #480, #730, #928, .T. ) ;
#201 = VERTEX_POINT ( 'NONE', #279 ) ;
#202 = CARTESIAN_POINT ( 'NONE',  ( 20.00000000000000355, 20.00000000000000355, 0.000000000000000000 ) ) ;
#203 = DIRECTION ( 'NONE',  ( -0.000000000000000000, -0.000000000000000000, -1.000000000000000000 ) ) ;
#204 = VERTEX_POINT ( 'NONE', #66 ) ;
#205 = CARTESIAN_POINT ( 'NONE',  ( 0.000000000000000000, 0.000000000000000000, 9.199999999999999289 ) ) ;
#206 = FACE_OUTER_BOUND ( 'NONE', #799, .T. ) ;
#207 = EDGE_CURVE ( 'NONE', #676, #973, #170, .T. ) ;
#208 = ORIENTED_EDGE ( 'NONE', *, *, #64, .F. ) ;
#209 = LINE ( 'NONE', #1259, #668 ) ;
#210 = DIRECTION ( 'NONE',  ( -0.000000000000000000, 0.000000000000000000, 1.000000000000000000 ) ) ;
#211 = AXIS2_PLACEMENT_3D ( 'NONE', #1127, #601, #195 ) ;
#212 = ORIENTED_EDGE ( 'NONE', *, *, #761, .F. ) ;
#213 = EDGE_CURVE ( 'NONE', #561, #282, #609, .T. ) ;
#214 = ORIENTED_EDGE ( 'NONE', *, *, #82, .T. ) ;
#215 = APPLICATION_PROTOCOL_DEFINITION ( 'draft international standard', 'automotive_design', 1998, #1281 ) ;
#216 = CARTESIAN_POINT ( 'NONE',  ( -15.00000000000000178, 20.00000000000000000, 2.000000000000000000 ) ) ;
#217 = FACE_OUTER_BOUND ( 'NONE', #847, .T. ) ;
#218 = ORIENTED_EDGE ( 'NONE', *, *, #111, .F. ) ;
#219 = EDGE_LOOP ( 'NONE', ( #23, #947 ) ) ;
#220 = EDGE_CURVE ( 'NONE', #106, #1298, #393, .T. ) ;
#221 = DIRECTION ( 'NONE',  ( -0.000000000000000000, -0.000000000000000000, -1.000000000000000000 ) ) ;
#222 = ORIENTED_EDGE ( 'NONE', *, *, #1211, .T. ) ;
#223 = ORIENTED_EDGE ( 'NONE', *, *, #703, .F. ) ;
#224 = DIRECTION ( 'NONE',  ( 0.000000000000000000, 0.000000000000000000, 1.000000000000000000 ) ) ;
#225 = EDGE_CURVE ( 'NONE', #718, #1329, #911, .T. ) ;
#226 = PLANE ( 'NONE',  #1266 ) ;
#227 = LINE ( 'NONE', #891, #191 ) ;
#228 = ORIENTED_EDGE ( 'NONE', *, *, #126, .F. ) ;
#229 = VECTOR ( 'NONE', #674, 1000.000000000000000 ) ;
#230 = VECTOR ( 'NONE', #324, 1000.000000000000000 ) ;
#231 = DIRECTION ( 'NONE',  ( -0.000000000000000000, 0.000000000000000000, 1.000000000000000000 ) ) ;
#232 = ORIENTED_EDGE ( 'NONE', *, *, #937, .T. ) ;
#233 = EDGE_CURVE ( 'NONE', #167, #1268, #716, .T. ) ;
#234 = CIRCLE ( 'NONE', #530, 1.250000000000000222 ) ;
#235 = ORIENTED_EDGE ( 'NONE', *, *, #541, .F. ) ;
#236 = FACE_OUTER_BOUND ( 'NONE', #925, .T. ) ;
#237 = DIRECTION ( 'NONE',  ( 1.000000000000000000, 1.107270303814983417E-16, 0.000000000000000000 ) ) ;
#238 = CARTESIAN_POINT ( 'NONE',  ( 2.500000000000003997, 17.00000000000000355, 9.950000000000001066 ) ) ;
#239 = ORIENTED_EDGE ( 'NONE', *, *, #889, .F. ) ;
#240 = ORIENTED_EDGE ( 'NONE', *, *, #610, .T. ) ;
#241 = DIRECTION ( 'NONE',  ( -1.000000000000000000, -8.673617379884004904E-16, 0.000000000000000000 ) ) ;
#242 = DIRECTION ( 'NONE',  ( -0.000000000000000000, -0.000000000000000000, -1.000000000000000000 ) ) ;
#243 = EDGE_CURVE ( 'NONE', #1333, #305, #252, .T. ) ;
#244 = LINE ( 'NONE', #565, #938 ) ;
#245 = CARTESIAN_POINT ( 'NONE',  ( -14.99999999999999467, -33.00000000000000000, 15.19999999999999929 ) ) ;
#246 = CARTESIAN_POINT ( 'NONE',  ( 8.000000000000008882, -30.00000000000000711, -2.201754250991384332 ) ) ;
#247 = VERTEX_POINT ( 'NONE', #577 ) ;
#248 = ORIENTED_EDGE ( 'NONE', *, *, #844, .T. ) ;
#249 = CARTESIAN_POINT ( 'NONE',  ( 19.00000000000001776, -29.99999999999999645, 6.000000000000000000 ) ) ;
#250 = VECTOR ( 'NONE', #800, 1000.000000000000000 ) ;
#251 = CARTESIAN_POINT ( 'NONE',  ( 19.00000000000000711, 17.00000000000000355, 6.000000000000000000 ) ) ;
#252 = CIRCLE ( 'NONE', #1238, 1.249999999999999334 ) ;
#253 = AXIS2_PLACEMENT_3D ( 'NONE', #991, #237, #329 ) ;
#254 = DIRECTION ( 'NONE',  ( 5.782411586589358625E-16, -1.000000000000000000, 0.000000000000000000 ) ) ;
#255 = AXIS2_PLACEMENT_3D ( 'NONE', #286, #710, #1129 ) ;
#256 = EDGE_CURVE ( 'NONE', #480, #1250, #60, .T. ) ;
#257 = CARTESIAN_POINT ( 'NONE',  ( -7.999999999999992895, -30.00000000000000711, 11.19999999999999929 ) ) ;
#258 = ORIENTED_EDGE ( 'NONE', *, *, #792, .T. ) ;
#259 = FACE_OUTER_BOUND ( 'NONE', #569, .T. ) ;
#260 = EDGE_CURVE ( 'NONE', #337, #397, #1210, .T. ) ;
#261 = CARTESIAN_POINT ( 'NONE',  ( -12.99999999999999467, -30.00000000000000711, 46.34482300479488259 ) ) ;
#262 = ADVANCED_FACE ( 'NONE', ( #22 ), #98, .F. ) ;
#263 = EDGE_LOOP ( 'NONE', ( #793, #189, #595, #698 ) ) ;
#264 = DIRECTION ( 'NONE',  ( -2.214540607629966587E-16, 1.000000000000000000, -0.000000000000000000 ) ) ;
#265 = CARTESIAN_POINT ( 'NONE',  ( -15.00000000000000178, -22.49999999999999645, 11.19999999999999929 ) ) ;
#266 = ORIENTED_EDGE ( 'NONE', *, *, #1297, .F. ) ;
#267 = ORIENTED_EDGE ( 'NONE', *, *, #864, .T. ) ;
#268 = CARTESIAN_POINT ( 'NONE',  ( -12.99999999999999467, -27.00000000000001066, 46.34482300479488259 ) ) ;
#269 = CARTESIAN_POINT ( 'NONE',  ( -15.00000000000000178, 20.00000000000000000, 15.19999999999999929 ) ) ;
#270 = CARTESIAN_POINT ( 'NONE',  ( -15.00000000000000178, -22.49999999999999645, 11.19999999999999929 ) ) ;
#271 = ORIENTED_EDGE ( 'NONE', *, *, #871, .F. ) ;
#272 = ORIENTED_EDGE ( 'NONE', *, *, #1032, .T. ) ;
#273 = DIRECTION ( 'NONE',  ( 1.000000000000000000, 9.912705577010325549E-17, 0.000000000000000000 ) ) ;
#274 = CARTESIAN_POINT ( 'NONE',  ( 18.00000000000001066, -30.00000000000000711, 46.34482300479488259 ) ) ;
#275 = STYLED_ITEM ( 'NONE', ( #750 ), #347 ) ;
#276 = VERTEX_POINT ( 'NONE', #1145 ) ;
#277 = CARTESIAN_POINT ( 'NONE',  ( -7.999999999999992895, -30.00000000000000711, 9.950000000000001066 ) ) ;
#278 = CARTESIAN_POINT ( 'NONE',  ( -12.99999999999999467, -22.50000000000000000, 11.19999999999999929 ) ) ;
#279 = CARTESIAN_POINT ( 'NONE',  ( 18.00000000000001066, -33.00000000000000000, 15.19999999999999929 ) ) ;
#280 = CARTESIAN_POINT ( 'NONE',  ( -7.999999999999996447, -33.00100000000000477, 11.19999999999999929 ) ) ;
#281 = EDGE_CURVE ( 'NONE', #713, #511, #1277, .T. ) ;
#282 = VERTEX_POINT ( 'NONE', #1159 ) ;
#283 = DIRECTION ( 'NONE',  ( -0.000000000000000000, -0.000000000000000000, -1.000000000000000000 ) ) ;
#284 = ORIENTED_EDGE ( 'NONE', *, *, #937, .F. ) ;
#285 = VERTEX_POINT ( 'NONE', #532 ) ;
#286 = CARTESIAN_POINT ( 'NONE',  ( 13.00000000000000888, -27.00000000000000711, 11.19999999999999929 ) ) ;
#287 = ORIENTED_EDGE ( 'NONE', *, *, #1359, .F. ) ;
#288 = ADVANCED_FACE ( 'NONE', ( #628 ), #970, .T. ) ;
#289 = PLANE ( 'NONE',  #1087 ) ;
#290 = CARTESIAN_POINT ( 'NONE',  ( -13.99999999999998934, -29.99999999999999645, 6.000000000000000000 ) ) ;
#291 = CARTESIAN_POINT ( 'NONE',  ( 13.00000000000000888, -30.00000000000000711, 11.19999999999999929 ) ) ;
#292 = DIRECTION ( 'NONE',  ( -1.000000000000000000, 0.000000000000000000, 0.000000000000000000 ) ) ;
#293 = VECTOR ( 'NONE', #380, 1000.000000000000000 ) ;
#294 = ORIENTED_EDGE ( 'NONE', *, *, #26, .F. ) ;
#295 = ADVANCED_FACE ( 'NONE', ( #315 ), #1252, .T. ) ;
#296 = CARTESIAN_POINT ( 'NONE',  ( 0.000000000000000000, 0.000000000000000000, 11.19999999999999929 ) ) ;
#297 = VECTOR ( 'NONE', #1185, 1000.000000000000000 ) ;
#298 = CARTESIAN_POINT ( 'NONE',  ( -7.999999999999996447, 14.00000000000000533, 11.19999999999999929 ) ) ;
#299 = CIRCLE ( 'NONE', #255, 1.249999999999999334 ) ;
#300 = VERTEX_POINT ( 'NONE', #956 ) ;
#301 = DIRECTION ( 'NONE',  ( 1.000000000000000000, 0.000000000000000000, 0.000000000000000000 ) ) ;
#302 = ORIENTED_EDGE ( 'NONE', *, *, #462, .F. ) ;
#303 = CARTESIAN_POINT ( 'NONE',  ( 18.00000000000001066, 14.00000000000000533, 13.00000000000000000 ) ) ;
#304 = ADVANCED_FACE ( 'NONE', ( #412 ), #124, .F. ) ;
#305 = VERTEX_POINT ( 'NONE', #1036 ) ;
#306 = LINE ( 'NONE', #826, #883 ) ;
#307 = ORIENTED_EDGE ( 'NONE', *, *, #902, .F. ) ;
#308 = CARTESIAN_POINT ( 'NONE',  ( 18.00000000000001066, -33.00000000000000000, 9.199999999999999289 ) ) ;
#309 = DIRECTION ( 'NONE',  ( 0.000000000000000000, 1.000000000000000000, 0.000000000000000000 ) ) ;
#310 = VERTEX_POINT ( 'NONE', #5 ) ;
#311 = LINE ( 'NONE', #721, #960 ) ;
#312 = AXIS2_PLACEMENT_3D ( 'NONE', #291, #1103, #1343 ) ;
#313 = EDGE_LOOP ( 'NONE', ( #873, #570, #887, #437 ) ) ;
#314 = DIRECTION ( 'NONE',  ( -0.000000000000000000, -0.000000000000000000, -1.000000000000000000 ) ) ;
#315 = FACE_OUTER_BOUND ( 'NONE', #816, .T. ) ;
#316 = VECTOR ( 'NONE', #283, 1000.000000000000000 ) ;
#317 = ORIENTED_EDGE ( 'NONE', *, *, #881, .F. ) ;
#318 = AXIS2_PLACEMENT_3D ( 'NONE', #182, #926, #198 ) ;
#319 = VECTOR ( 'NONE', #1092, 1000.000000000000000 ) ;
#320 = EDGE_CURVE ( 'NONE', #722, #328, #962, .T. ) ;
#321 = DIRECTION ( 'NONE',  ( -1.000000000000000000, -0.000000000000000000, -0.000000000000000000 ) ) ;
#322 = VERTEX_POINT ( 'NONE', #425 ) ;
#323 = ADVANCED_FACE ( 'NONE', ( #217 ), #867, .F. ) ;
#324 = DIRECTION ( 'NONE',  ( 0.000000000000000000, 1.000000000000000000, 0.000000000000000000 ) ) ;
#325 = DIRECTION ( 'NONE',  ( 0.000000000000000000, 0.000000000000000000, -1.000000000000000000 ) ) ;
#326 = ORIENTED_EDGE ( 'NONE', *, *, #122, .T. ) ;
#327 = CARTESIAN_POINT ( 'NONE',  ( -15.00000000000000178, -12.50000000000000000, 15.19999999999999929 ) ) ;
#328 = VERTEX_POINT ( 'NONE', #199 ) ;
#329 = DIRECTION ( 'NONE',  ( -1.107270303814983417E-16, 1.000000000000000000, 0.000000000000000000 ) ) ;
#330 = CARTESIAN_POINT ( 'NONE',  ( -7.999999999999996447, -33.00100000000000477, 9.950000000000001066 ) ) ;
#331 = ORIENTED_EDGE ( 'NONE', *, *, #616, .T. ) ;
#332 = DIRECTION ( 'NONE',  ( -0.000000000000000000, -1.000000000000000000, -0.000000000000000000 ) ) ;
#333 =( NAMED_UNIT ( * ) PLANE_ANGLE_UNIT ( ) SI_UNIT ( $, .RADIAN. ) );
#334 = ORIENTED_EDGE ( 'NONE', *, *, #401, .F. ) ;
#335 = AXIS2_PLACEMENT_3D ( 'NONE', #1089, #893, #1187 ) ;
#336 = PRODUCT_DEFINITION_CONTEXT ( 'detailed design', #484, 'design' ) ;
#337 = VERTEX_POINT ( 'NONE', #636 ) ;
#338 = DIRECTION ( 'NONE',  ( 0.000000000000000000, 0.000000000000000000, 1.000000000000000000 ) ) ;
#339 = VECTOR ( 'NONE', #862, 1000.000000000000000 ) ;
#340 = FACE_OUTER_BOUND ( 'NONE', #1126, .T. ) ;
#341 = EDGE_CURVE ( 'NONE', #342, #773, #1053, .T. ) ;
#342 = VERTEX_POINT ( 'NONE', #733 ) ;
#343 = AXIS2_PLACEMENT_3D ( 'NONE', #1301, #489, #273 ) ;
#344 = ORIENTED_EDGE ( 'NONE', *, *, #1114, .T. ) ;
#345 = VECTOR ( 'NONE', #1046, 1000.000000000000000 ) ;
#346 = DIRECTION ( 'NONE',  ( 0.000000000000000000, -1.000000000000000000, 0.000000000000000000 ) ) ;
#347 = MANIFOLD_SOLID_BREP ( '\X2\52079664\X0\-\X2\62c94f38\X0\7', #597 ) ;
#348 = VECTOR ( 'NONE', #617, 1000.000000000000000 ) ;
#349 = ADVANCED_FACE ( 'NONE', ( #1011, #454 ), #538, .F. ) ;
#350 = DIRECTION ( 'NONE',  ( 0.000000000000000000, 1.000000000000000000, 0.000000000000000000 ) ) ;
#351 = LINE ( 'NONE', #550, #1219 ) ;
#352 = ORIENTED_EDGE ( 'NONE', *, *, #207, .T. ) ;
#353 = CARTESIAN_POINT ( 'NONE',  ( -7.999999999999992895, -27.00000000000001066, 11.19999999999999929 ) ) ;
#354 = EDGE_CURVE ( 'NONE', #1250, #985, #351, .T. ) ;
#355 = FACE_OUTER_BOUND ( 'NONE', #30, .T. ) ;
#356 = FACE_OUTER_BOUND ( 'NONE', #671, .T. ) ;
#357 = PRODUCT ( 'tracker\X2\4e0a534a9762\X0\', 'tracker\X2\4e0a534a9762\X0\', '', ( #96 ) ) ;
#358 = CARTESIAN_POINT ( 'NONE',  ( -12.99999999999999822, 20.00000000000000355, 15.19999999999999929 ) ) ;
#359 = EDGE_LOOP ( 'NONE', ( #50, #378, #593, #629, #438, #896, #573, #188 ) ) ;
#360 = CARTESIAN_POINT ( 'NONE',  ( 13.00000000000000888, 17.00000000000000355, 12.44999999999999929 ) ) ;
#361 = CARTESIAN_POINT ( 'NONE',  ( -12.99999999999999467, -12.49999999999999822, 15.19999999999999929 ) ) ;
#362 = EDGE_CURVE ( 'NONE', #699, #342, #142, .T. ) ;
#363 = CIRCLE ( 'NONE', #1128, 1.249999999999999334 ) ;
#364 = CARTESIAN_POINT ( 'NONE',  ( -15.00000000000000178, 20.00000000000000000, 0.000000000000000000 ) ) ;
#365 = ORIENTED_EDGE ( 'NONE', *, *, #1236, .T. ) ;
#366 = EDGE_LOOP ( 'NONE', ( #1157, #83, #175, #1174, #831, #239, #52, #681, #1173, #1100, #544, #31, #618, #413, #806, #755 ) ) ;
#367 = AXIS2_PLACEMENT_3D ( 'NONE', #94, #1339, #958 ) ;
#368 = DIRECTION ( 'NONE',  ( -0.000000000000000000, 1.000000000000000000, -0.000000000000000000 ) ) ;
#369 = VECTOR ( 'NONE', #1002, 1000.000000000000000 ) ;
#370 = DIRECTION ( 'NONE',  ( 5.782411586589358625E-16, -1.000000000000000000, 0.000000000000000000 ) ) ;
#371 = EDGE_CURVE ( 'NONE', #204, #904, #975, .T. ) ;
#372 = CARTESIAN_POINT ( 'NONE',  ( 18.00000000000001066, -27.00000000000000711, 13.19999999999999929 ) ) ;
#373 = EDGE_LOOP ( 'NONE', ( #809, #1325, #591, #768 ) ) ;
#374 = EDGE_LOOP ( 'NONE', ( #223, #811, #708, #639 ) ) ;
#375 = CARTESIAN_POINT ( 'NONE',  ( -7.999999999999992895, -23.46446609406726935, 11.19999999999999929 ) ) ;
#376 = EDGE_CURVE ( 'NONE', #110, #463, #227, .T. ) ;
#377 = DIRECTION ( 'NONE',  ( -0.000000000000000000, 1.000000000000000000, -0.000000000000000000 ) ) ;
#378 = ORIENTED_EDGE ( 'NONE', *, *, #881, .T. ) ;
#379 = FACE_OUTER_BOUND ( 'NONE', #444, .T. ) ;
#380 = DIRECTION ( 'NONE',  ( 0.000000000000000000, 0.000000000000000000, -1.000000000000000000 ) ) ;
#381 = LINE ( 'NONE', #804, #1192 ) ;
#382 = DIRECTION ( 'NONE',  ( -0.000000000000000000, -0.000000000000000000, -1.000000000000000000 ) ) ;
#383 = ORIENTED_EDGE ( 'NONE', *, *, #943, .F. ) ;
#384 = VECTOR ( 'NONE', #700, 1000.000000000000000 ) ;
#385 = CARTESIAN_POINT ( 'NONE',  ( -13.99999999999998934, -29.99999999999999645, 6.000000000000000000 ) ) ;
#386 = ADVANCED_FACE ( 'NONE', ( #340 ), #885, .T. ) ;
#387 = FACE_OUTER_BOUND ( 'NONE', #1191, .T. ) ;
#388 = DIRECTION ( 'NONE',  ( -0.000000000000000000, -0.000000000000000000, 1.000000000000000000 ) ) ;
#389 = DIRECTION ( 'NONE',  ( -1.000000000000000000, -2.214540607629966834E-16, 0.000000000000000000 ) ) ;
#390 = VECTOR ( 'NONE', #453, 1000.000000000000000 ) ;
#391 = ORIENTED_EDGE ( 'NONE', *, *, #1282, .T. ) ;
#392 = DIRECTION ( 'NONE',  ( 1.000000000000000000, 0.000000000000000000, -0.000000000000000000 ) ) ;
#393 = LINE ( 'NONE', #802, #557 ) ;
#394 = CARTESIAN_POINT ( 'NONE',  ( 2.500000000000003997, -33.00100000000000477, 11.19999999999999929 ) ) ;
#395 = DIRECTION ( 'NONE',  ( -0.000000000000000000, 1.000000000000000000, -0.000000000000000000 ) ) ;
#396 = EDGE_CURVE ( 'NONE', #1050, #322, #69, .T. ) ;
#397 = VERTEX_POINT ( 'NONE', #1290 ) ;
#398 = CARTESIAN_POINT ( 'NONE',  ( -12.99999999999999467, -33.00000000000000000, 15.19999999999999929 ) ) ;
#399 = FACE_OUTER_BOUND ( 'NONE', #995, .T. ) ;
#400 = LINE ( 'NONE', #1080, #1239 ) ;
#401 = EDGE_CURVE ( 'NONE', #1298, #89, #772, .T. ) ;
#402 = CARTESIAN_POINT ( 'NONE',  ( 18.00000000000001066, -33.00000000000000000, 9.199999999999999289 ) ) ;
#403 = ORIENTED_EDGE ( 'NONE', *, *, #243, .F. ) ;
#404 = DIRECTION ( 'NONE',  ( 1.000000000000000000, 1.119176436114069085E-16, 0.000000000000000000 ) ) ;
#405 = CARTESIAN_POINT ( 'NONE',  ( -7.999999999999992895, -23.46446609406726935, 9.950000000000001066 ) ) ;
#406 = CARTESIAN_POINT ( 'NONE',  ( 13.00000000000000888, 17.00000000000000355, 9.950000000000001066 ) ) ;
#407 = CARTESIAN_POINT ( 'NONE',  ( 19.00000000000000711, 17.00000000000000355, 2.000000000000000000 ) ) ;
#408 = EDGE_CURVE ( 'NONE', #1321, #201, #1283, .T. ) ;
#409 = ORIENTED_EDGE ( 'NONE', *, *, #156, .F. ) ;
#410 = DIRECTION ( 'NONE',  ( -0.000000000000000000, -0.000000000000000000, -1.000000000000000000 ) ) ;
#411 = FACE_OUTER_BOUND ( 'NONE', #1291, .T. ) ;
#412 = FACE_OUTER_BOUND ( 'NONE', #8, .T. ) ;
#413 = ORIENTED_EDGE ( 'NONE', *, *, #977, .F. ) ;
#414 = CARTESIAN_POINT ( 'NONE',  ( 18.00000000000001066, -27.00000000000000711, 5.999999999999998224 ) ) ;
#415 = EDGE_CURVE ( 'NONE', #511, #426, #45, .T. ) ;
#416 = ORIENTED_EDGE ( 'NONE', *, *, #256, .F. ) ;
#417 = CARTESIAN_POINT ( 'NONE',  ( -12.99999999999999467, -12.49999999999999822, 11.19999999999999929 ) ) ;
#418 = CARTESIAN_POINT ( 'NONE',  ( 0.000000000000000000, 0.000000000000000000, 15.19999999999999929 ) ) ;
#419 = ORIENTED_EDGE ( 'NONE', *, *, #547, .T. ) ;
#420 = DIRECTION ( 'NONE',  ( 1.000000000000000000, 0.000000000000000000, 0.000000000000000000 ) ) ;
#421 = VERTEX_POINT ( 'NONE', #358 ) ;
#422 = DIRECTION ( 'NONE',  ( 0.000000000000000000, 0.000000000000000000, -1.000000000000000000 ) ) ;
#423 = EDGE_LOOP ( 'NONE', ( #177, #1186 ) ) ;
#424 = CARTESIAN_POINT ( 'NONE',  ( 18.00000000000001066, 14.00000000000000533, 46.34482300479488259 ) ) ;
#425 = CARTESIAN_POINT ( 'NONE',  ( -12.99999999999999467, -22.50000000000000000, 15.19999999999999929 ) ) ;
#426 = VERTEX_POINT ( 'NONE', #979 ) ;
#427 = CARTESIAN_POINT ( 'NONE',  ( 2.500000000000003997, 17.00000000000000355, 11.19999999999999929 ) ) ;
#428 = EDGE_CURVE ( 'NONE', #794, #421, #35, .T. ) ;
#429 = AXIS2_PLACEMENT_3D ( 'NONE', #819, #825, #1234 ) ;
#430 = ORIENTED_EDGE ( 'NONE', *, *, #233, .T. ) ;
#431 = CARTESIAN_POINT ( 'NONE',  ( 18.00000000000001066, 20.00000000000000355, 15.19999999999999929 ) ) ;
#432 = VERTEX_POINT ( 'NONE', #238 ) ;
#433 = DIRECTION ( 'NONE',  ( -0.000000000000000000, 1.000000000000000000, 0.000000000000000000 ) ) ;
#434 = DIRECTION ( 'NONE',  ( -0.000000000000000000, -1.000000000000000000, -0.000000000000000000 ) ) ;
#435 = ORIENTED_EDGE ( 'NONE', *, *, #745, .T. ) ;
#436 = VECTOR ( 'NONE', #1170, 1000.000000000000000 ) ;
#437 = ORIENTED_EDGE ( 'NONE', *, *, #1236, .F. ) ;
#438 = ORIENTED_EDGE ( 'NONE', *, *, #592, .T. ) ;
#439 = DIRECTION ( 'NONE',  ( 0.000000000000000000, -1.000000000000000000, 0.000000000000000000 ) ) ;
#440 = DIRECTION ( 'NONE',  ( -1.309225264888156130E-16, 1.000000000000000000, 0.000000000000000000 ) ) ;
#441 = FILL_AREA_STYLE_COLOUR ( '', #879 ) ;
#442 = ORIENTED_EDGE ( 'NONE', *, *, #587, .F. ) ;
#443 = DIRECTION ( 'NONE',  ( 1.107270303814983294E-16, -1.000000000000000000, 0.000000000000000000 ) ) ;
#444 = EDGE_LOOP ( 'NONE', ( #827, #495, #121, #899 ) ) ;
#445 = FACE_OUTER_BOUND ( 'NONE', #373, .T. ) ;
#446 = EDGE_CURVE ( 'NONE', #822, #1055, #41, .T. ) ;
#447 = LINE ( 'NONE', #1062, #924 ) ;
#448 = CARTESIAN_POINT ( 'NONE',  ( -13.99999999999999467, 17.00000000000000355, 2.000000000000000000 ) ) ;
#449 = EDGE_LOOP ( 'NONE', ( #271, #403 ) ) ;
#450 = ORIENTED_EDGE ( 'NONE', *, *, #997, .F. ) ;
#451 = DIRECTION ( 'NONE',  ( -1.000000000000000000, -0.000000000000000000, -0.000000000000000000 ) ) ;
#452 = DIRECTION ( 'NONE',  ( 0.000000000000000000, 0.000000000000000000, 1.000000000000000000 ) ) ;
#453 = DIRECTION ( 'NONE',  ( -0.000000000000000000, -1.000000000000000000, -0.000000000000000000 ) ) ;
#454 = FACE_BOUND ( 'NONE', #313, .T. ) ;
#455 = ORIENTED_EDGE ( 'NONE', *, *, #683, .F. ) ;
#456 = ADVANCED_FACE ( 'NONE', ( #465 ), #1323, .F. ) ;
#457 =( GEOMETRIC_REPRESENTATION_CONTEXT ( 3 ) GLOBAL_UNCERTAINTY_ASSIGNED_CONTEXT ( ( #653 ) ) GLOBAL_UNIT_ASSIGNED_CONTEXT ( ( #1057, #333, #834 ) ) REPRESENTATION_CONTEXT ( 'NONE', 'WORKASPACE' ) );
#458 = AXIS2_PLACEMENT_3D ( 'NONE', #640, #757, #969 ) ;
#459 = DIRECTION ( 'NONE',  ( 0.000000000000000000, 0.000000000000000000, -1.000000000000000000 ) ) ;
#460 = CARTESIAN_POINT ( 'NONE',  ( -12.99999999999999645, 17.00000000000000355, 46.34482300479488259 ) ) ;
#461 = ORIENTED_EDGE ( 'NONE', *, *, #696, .T. ) ;
#462 = EDGE_CURVE ( 'NONE', #201, #650, #1190, .T. ) ;
#463 = VERTEX_POINT ( 'NONE', #448 ) ;
#464 = DIRECTION ( 'NONE',  ( 1.309225264888156130E-16, -1.000000000000000000, 0.000000000000000000 ) ) ;
#465 = FACE_OUTER_BOUND ( 'NONE', #779, .T. ) ;
#466 = ORIENTED_EDGE ( 'NONE', *, *, #997, .T. ) ;
#467 = EDGE_CURVE ( 'NONE', #1208, #36, #1110, .T. ) ;
#468 = EDGE_CURVE ( 'NONE', #730, #300, #566, .T. ) ;
#469 = CARTESIAN_POINT ( 'NONE',  ( -12.99999999999999467, -22.50000000000000000, 11.19999999999999929 ) ) ;
#470 = CARTESIAN_POINT ( 'NONE',  ( 13.00000000000000888, 14.00000000000000533, 11.19999999999999929 ) ) ;
#471 = CARTESIAN_POINT ( 'NONE',  ( -12.99999999999999645, -33.00000000000000000, 9.199999999999999289 ) ) ;
#472 = ORIENTED_EDGE ( 'NONE', *, *, #415, .F. ) ;
#473 = DIRECTION ( 'NONE',  ( 6.546126324440781884E-17, -1.000000000000000000, 0.000000000000000000 ) ) ;
#474 = FACE_OUTER_BOUND ( 'NONE', #976, .T. ) ;
#475 = ORIENTED_EDGE ( 'NONE', *, *, #774, .F. ) ;
#476 = DIRECTION ( 'NONE',  ( 1.000000000000000000, 0.000000000000000000, 0.000000000000000000 ) ) ;
#477 = DIRECTION ( 'NONE',  ( -0.000000000000000000, 1.000000000000000000, -0.000000000000000000 ) ) ;
#478 = AXIS2_PLACEMENT_3D ( 'NONE', #470, #895, #1305 ) ;
#479 = VERTEX_POINT ( 'NONE', #364 ) ;
#480 = VERTEX_POINT ( 'NONE', #1216 ) ;
#481 = DIRECTION ( 'NONE',  ( 0.000000000000000000, -1.000000000000000000, 0.000000000000000000 ) ) ;
#482 = DIRECTION ( 'NONE',  ( 0.000000000000000000, 0.000000000000000000, 1.000000000000000000 ) ) ;
#483 = AXIS2_PLACEMENT_3D ( 'NONE', #888, #661, #1074 ) ;
#484 = APPLICATION_CONTEXT ( 'automotive_design' ) ;
#485 = EDGE_CURVE ( 'NONE', #92, #842, #1180, .T. ) ;
#486 = ORIENTED_EDGE ( 'NONE', *, *, #415, .T. ) ;
#487 = DIRECTION ( 'NONE',  ( 0.000000000000000000, 0.000000000000000000, 1.000000000000000000 ) ) ;
#488 = ORIENTED_EDGE ( 'NONE', *, *, #225, .T. ) ;
#489 = DIRECTION ( 'NONE',  ( 9.912705577010325549E-17, -1.000000000000000000, 0.000000000000000000 ) ) ;
#490 = ADVANCED_FACE ( 'NONE', ( #86 ), #823, .T. ) ;
#491 = ORIENTED_EDGE ( 'NONE', *, *, #1322, .T. ) ;
#492 = AXIS2_PLACEMENT_3D ( 'NONE', #280, #701, #1118 ) ;
#493 = LINE ( 'NONE', #268, #316 ) ;
#494 = CARTESIAN_POINT ( 'NONE',  ( 18.00000000000001066, 17.00000000000000355, 46.34482300479488259 ) ) ;
#495 = ORIENTED_EDGE ( 'NONE', *, *, #341, .T. ) ;
#496 = ADVANCED_FACE ( 'NONE', ( #355 ), #760, .F. ) ;
#497 = CARTESIAN_POINT ( 'NONE',  ( -7.999999999999996447, 14.00000000000000533, 12.44999999999999929 ) ) ;
#498 = VECTOR ( 'NONE', #321, 1000.000000000000000 ) ;
#499 = AXIS2_PLACEMENT_3D ( 'NONE', #729, #1, #422 ) ;
#500 = AXIS2_PLACEMENT_3D ( 'NONE', #1315, #1326, #392 ) ;
#501 = ORIENTED_EDGE ( 'NONE', *, *, #180, .F. ) ;
#502 = CARTESIAN_POINT ( 'NONE',  ( -12.99999999999999467, 14.00000000000000533, 46.34482300479488259 ) ) ;
#503 = ORIENTED_EDGE ( 'NONE', *, *, #943, .T. ) ;
#504 = ORIENTED_EDGE ( 'NONE', *, *, #711, .T. ) ;
#505 = EDGE_CURVE ( 'NONE', #167, #1333, #558, .T. ) ;
#506 = DIRECTION ( 'NONE',  ( -6.546126324440780651E-17, 1.000000000000000000, 0.000000000000000000 ) ) ;
#507 = ORIENTED_EDGE ( 'NONE', *, *, #1273, .T. ) ;
#508 = ORIENTED_EDGE ( 'NONE', *, *, #428, .T. ) ;
#509 = DIRECTION ( 'NONE',  ( -0.000000000000000000, -1.000000000000000000, -0.000000000000000000 ) ) ;
#510 = ADVANCED_FACE ( 'NONE', ( #776 ), #1177, .F. ) ;
#511 = VERTEX_POINT ( 'NONE', #770 ) ;
#512 = CARTESIAN_POINT ( 'NONE',  ( 18.00000000000001066, -33.00000000000000000, 6.000000000000000000 ) ) ;
#513 = EDGE_CURVE ( 'NONE', #426, #916, #447, .T. ) ;
#514 = CARTESIAN_POINT ( 'NONE',  ( -7.999999999999992895, -27.00000000000001066, 9.950000000000001066 ) ) ;
#515 = ORIENTED_EDGE ( 'NONE', *, *, #122, .F. ) ;
#516 = DIRECTION ( 'NONE',  ( -0.000000000000000000, -0.000000000000000000, 1.000000000000000000 ) ) ;
#517 = VECTOR ( 'NONE', #818, 1000.000000000000000 ) ;
#518 = EDGE_CURVE ( 'NONE', #607, #1143, #38, .T. ) ;
#519 = DIRECTION ( 'NONE',  ( -0.000000000000000000, -1.000000000000000000, -0.000000000000000000 ) ) ;
#520 = VERTEX_POINT ( 'NONE', #153 ) ;
#521 = AXIS2_PLACEMENT_3D ( 'NONE', #173, #589, #659 ) ;
#522 = PLANE ( 'NONE',  #626 ) ;
#523 = CARTESIAN_POINT ( 'NONE',  ( 0.000000000000000000, 0.000000000000000000, 13.19999999999999929 ) ) ;
#524 = ORIENTED_EDGE ( 'NONE', *, *, #663, .F. ) ;
#525 = AXIS2_PLACEMENT_3D ( 'NONE', #28, #877, #224 ) ;
#526 = DIRECTION ( 'NONE',  ( 5.782411586589358625E-16, -1.000000000000000000, 0.000000000000000000 ) ) ;
#527 = DIRECTION ( 'NONE',  ( 0.000000000000000000, 0.000000000000000000, 1.000000000000000000 ) ) ;
#528 = ORIENTED_EDGE ( 'NONE', *, *, #468, .F. ) ;
#529 = EDGE_CURVE ( 'NONE', #973, #322, #814, .T. ) ;
#530 = AXIS2_PLACEMENT_3D ( 'NONE', #353, #571, #157 ) ;
#531 = FACE_BOUND ( 'NONE', #155, .T. ) ;
#532 = CARTESIAN_POINT ( 'NONE',  ( -12.99999999999999467, -12.49999999999999822, 11.19999999999999929 ) ) ;
#533 = VERTEX_POINT ( 'NONE', #923 ) ;
#534 = DIRECTION ( 'NONE',  ( 0.000000000000000000, 0.000000000000000000, 1.000000000000000000 ) ) ;
#535 = CARTESIAN_POINT ( 'NONE',  ( -2.999999999999995559, -27.00000000000000711, -2.201754250991384332 ) ) ;
#536 = VERTEX_POINT ( 'NONE', #1106 ) ;
#537 = CARTESIAN_POINT ( 'NONE',  ( -7.999999999999996447, 14.00000000000000533, 11.19999999999999929 ) ) ;
#538 = PLANE ( 'NONE',  #1024 ) ;
#539 = ORIENTED_EDGE ( 'NONE', *, *, #1172, .T. ) ;
#540 = AXIS2_PLACEMENT_3D ( 'NONE', #1140, #509, #1109 ) ;
#541 = EDGE_CURVE ( 'NONE', #1268, #305, #48, .T. ) ;
#542 = ORIENTED_EDGE ( 'NONE', *, *, #1073, .F. ) ;
#543 = CARTESIAN_POINT ( 'NONE',  ( 20.00000000000001066, -33.00000000000000000, 15.19999999999999929 ) ) ;
#544 = ORIENTED_EDGE ( 'NONE', *, *, #396, .T. ) ;
#545 = VECTOR ( 'NONE', #840, 1000.000000000000000 ) ;
#546 = CARTESIAN_POINT ( 'NONE',  ( -7.999999999999992895, -27.00000000000001066, 11.19999999999999929 ) ) ;
#547 = EDGE_CURVE ( 'NONE', #699, #310, #999, .T. ) ;
#548 = ORIENTED_EDGE ( 'NONE', *, *, #320, .F. ) ;
#549 = CARTESIAN_POINT ( 'NONE',  ( -12.99999999999999467, -12.49999999999999822, 15.19999999999999929 ) ) ;
#550 = CARTESIAN_POINT ( 'NONE',  ( -13.99999999999998934, -29.99999999999999645, 2.000000000000000000 ) ) ;
#551 = ORIENTED_EDGE ( 'NONE', *, *, #996, .F. ) ;
#552 = EDGE_LOOP ( 'NONE', ( #515, #1043, #528, #1225 ) ) ;
#553 = EDGE_CURVE ( 'NONE', #463, #1250, #821, .T. ) ;
#554 = DIRECTION ( 'NONE',  ( 0.000000000000000000, -1.000000000000000000, 0.000000000000000000 ) ) ;
#555 = ORIENTED_EDGE ( 'NONE', *, *, #596, .T. ) ;
#556 = CARTESIAN_POINT ( 'NONE',  ( -2.999999999999995559, -27.00000000000000711, 13.19999999999999929 ) ) ;
#557 = VECTOR ( 'NONE', #720, 1000.000000000000000 ) ;
#558 = LINE ( 'NONE', #330, #229 ) ;
#559 = LINE ( 'NONE', #245, #39 ) ;
#560 = DIRECTION ( 'NONE',  ( -0.000000000000000000, -0.000000000000000000, -1.000000000000000000 ) ) ;
#561 = VERTEX_POINT ( 'NONE', #1230 ) ;
#562 = ADVANCED_BREP_SHAPE_REPRESENTATION ( 'tracker\X2\4e0a534a9762\X0\', ( #347, #810 ), #649 ) ;
#563 = DIRECTION ( 'NONE',  ( 0.000000000000000000, 1.000000000000000000, 0.000000000000000000 ) ) ;
#564 = VECTOR ( 'NONE', #1312, 1000.000000000000000 ) ;
#565 = CARTESIAN_POINT ( 'NONE',  ( -12.99999999999999822, 20.00000000000000355, 15.19999999999999929 ) ) ;
#566 = LINE ( 'NONE', #872, #1241 ) ;
#567 = EDGE_CURVE ( 'NONE', #650, #149, #582, .T. ) ;
#568 = ORIENTED_EDGE ( 'NONE', *, *, #33, .F. ) ;
#569 = EDGE_LOOP ( 'NONE', ( #258, #317, #1139, #1247 ) ) ;
#570 = ORIENTED_EDGE ( 'NONE', *, *, #1267, .F. ) ;
#571 = DIRECTION ( 'NONE',  ( -1.119176436114069085E-16, 1.000000000000000000, -0.000000000000000000 ) ) ;
#572 = LINE ( 'NONE', #1304, #602 ) ;
#573 = ORIENTED_EDGE ( 'NONE', *, *, #1131, .F. ) ;
#574 = CARTESIAN_POINT ( 'NONE',  ( 13.00000000000000888, -33.00100000000000477, 12.44999999999999929 ) ) ;
#575 = CIRCLE ( 'NONE', #312, 1.249999999999999334 ) ;
#576 = ORIENTED_EDGE ( 'NONE', *, *, #256, .T. ) ;
#577 = CARTESIAN_POINT ( 'NONE',  ( -7.999999999999992895, -30.00000000000000711, 12.44999999999999929 ) ) ;
#578 = CYLINDRICAL_SURFACE ( 'NONE', #1104, 1.249999999999999334 ) ;
#579 = DIRECTION ( 'NONE',  ( -1.000000000000000000, -1.119176436114069085E-16, 0.000000000000000000 ) ) ;
#580 = EDGE_CURVE ( 'NONE', #722, #14, #299, .T. ) ;
#581 = AXIS2_PLACEMENT_3D ( 'NONE', #398, #1296, #473 ) ;
#582 = LINE ( 'NONE', #174, #1308 ) ;
#583 = VERTEX_POINT ( 'NONE', #1202 ) ;
#584 = EDGE_LOOP ( 'NONE', ( #1124, #687, #334, #1346 ) ) ;
#585 = DIRECTION ( 'NONE',  ( -1.000000000000000000, 0.000000000000000000, 0.000000000000000000 ) ) ;
#586 = CARTESIAN_POINT ( 'NONE',  ( 18.00000000000001066, 17.00000000000000355, 46.34482300479488259 ) ) ;
#587 = EDGE_CURVE ( 'NONE', #282, #746, #590, .T. ) ;
#588 = CARTESIAN_POINT ( 'NONE',  ( 18.00000000000001066, -33.00000000000000000, 15.19999999999999929 ) ) ;
#589 = DIRECTION ( 'NONE',  ( 0.000000000000000000, 1.000000000000000000, 0.000000000000000000 ) ) ;
#590 = LINE ( 'NONE', #903, #1006 ) ;
#591 = ORIENTED_EDGE ( 'NONE', *, *, #213, .T. ) ;
#592 = EDGE_CURVE ( 'NONE', #479, #511, #179, .T. ) ;
#593 = ORIENTED_EDGE ( 'NONE', *, *, #1114, .F. ) ;
#594 = VECTOR ( 'NONE', #526, 1000.000000000000000 ) ;
#595 = ORIENTED_EDGE ( 'NONE', *, *, #468, .T. ) ;
#596 = EDGE_CURVE ( 'NONE', #310, #773, #805, .T. ) ;
#597 = CLOSED_SHELL ( 'NONE', ( #16, #1354, #7, #42, #510, #1255, #965, #288, #295, #1023, #1037, #185, #832, #61, #798, #820, #987, #262, #456, #323, #1039, #727, #93, #1101, #2, #1068, #1229, #796, #496, #1051, #304, #1184, #1313, #622, #490, #349, #783, #894, #642, #386, #951 ) ) ;
#598 = FACE_BOUND ( 'NONE', #68, .T. ) ;
#599 = DIRECTION ( 'NONE',  ( 0.000000000000000000, 0.000000000000000000, 1.000000000000000000 ) ) ;
#600 = ORIENTED_EDGE ( 'NONE', *, *, #871, .T. ) ;
#601 = DIRECTION ( 'NONE',  ( 0.000000000000000000, 0.000000000000000000, 1.000000000000000000 ) ) ;
#602 = VECTOR ( 'NONE', #370, 1000.000000000000000 ) ;
#603 = CARTESIAN_POINT ( 'NONE',  ( 13.00000000000000888, -33.00100000000000477, 9.950000000000001066 ) ) ;
#604 = AXIS2_PLACEMENT_3D ( 'NONE', #523, #109, #949 ) ;
#605 = AXIS2_PLACEMENT_3D ( 'NONE', #910, #346, #144 ) ;
#606 = EDGE_CURVE ( 'NONE', #583, #36, #187, .T. ) ;
#607 = VERTEX_POINT ( 'NONE', #1012 ) ;
#608 = CARTESIAN_POINT ( 'NONE',  ( 18.00000000000001066, -27.00000000000000711, 46.34482300479488259 ) ) ;
#609 = LINE ( 'NONE', #1327, #1149 ) ;
#610 = EDGE_CURVE ( 'NONE', #6, #583, #131, .T. ) ;
#611 = CYLINDRICAL_SURFACE ( 'NONE', #735, 1.249999999999999334 ) ;
#612 = CARTESIAN_POINT ( 'NONE',  ( -14.99999999999999467, -33.00000000000000000, 15.19999999999999929 ) ) ;
#613 = ORIENTED_EDGE ( 'NONE', *, *, #553, .F. ) ;
#614 = CARTESIAN_POINT ( 'NONE',  ( 0.000000000000000000, 0.000000000000000000, 0.000000000000000000 ) ) ;
#615 = FACE_BOUND ( 'NONE', #789, .T. ) ;
#616 = EDGE_CURVE ( 'NONE', #119, #106, #1319, .T. ) ;
#617 = DIRECTION ( 'NONE',  ( -0.000000000000000000, -0.000000000000000000, 1.000000000000000000 ) ) ;
#618 = ORIENTED_EDGE ( 'NONE', *, *, #774, .T. ) ;
#619 = DIRECTION ( 'NONE',  ( 0.000000000000000000, 0.000000000000000000, 1.000000000000000000 ) ) ;
#620 = DIRECTION ( 'NONE',  ( -0.000000000000000000, -1.000000000000000000, -0.000000000000000000 ) ) ;
#621 = ORIENTED_EDGE ( 'NONE', *, *, #1359, .T. ) ;
#622 = ADVANCED_FACE ( 'NONE', ( #797 ), #1206, .F. ) ;
#623 = LINE ( 'NONE', #853, #630 ) ;
#624 = VECTOR ( 'NONE', #388, 1000.000000000000000 ) ;
#625 = ORIENTED_EDGE ( 'NONE', *, *, #1076, .T. ) ;
#626 = AXIS2_PLACEMENT_3D ( 'NONE', #1151, #210, #108 ) ;
#627 = CARTESIAN_POINT ( 'NONE',  ( -15.00000000000000178, 20.00000000000000000, 2.000000000000000000 ) ) ;
#628 = FACE_OUTER_BOUND ( 'NONE', #656, .T. ) ;
#629 = ORIENTED_EDGE ( 'NONE', *, *, #838, .T. ) ;
#630 = VECTOR ( 'NONE', #519, 1000.000000000000000 ) ;
#631 = CARTESIAN_POINT ( 'NONE',  ( 18.00000000000001066, 17.00000000000000355, 13.00000000000000000 ) ) ;
#632 = ORIENTED_EDGE ( 'NONE', *, *, #408, .T. ) ;
#633 = LINE ( 'NONE', #1249, #104 ) ;
#634 = ORIENTED_EDGE ( 'NONE', *, *, #567, .F. ) ;
#635 = PLANE ( 'NONE',  #80 ) ;
#636 = CARTESIAN_POINT ( 'NONE',  ( 18.00000000000001066, 17.00000000000000355, 13.00000000000000000 ) ) ;
#637 = ORIENTED_EDGE ( 'NONE', *, *, #33, .T. ) ;
#638 = EDGE_CURVE ( 'NONE', #561, #149, #1217, .T. ) ;
#639 = ORIENTED_EDGE ( 'NONE', *, *, #638, .F. ) ;
#640 = CARTESIAN_POINT ( 'NONE',  ( -7.999999999999996447, 17.00000000000000355, 11.19999999999999929 ) ) ;
#641 = FILL_AREA_STYLE ('',( #441 ) ) ;
#642 = ADVANCED_FACE ( 'NONE', ( #1116 ), #70, .T. ) ;
#643 = ORIENTED_EDGE ( 'NONE', *, *, #126, .T. ) ;
#644 = CARTESIAN_POINT ( 'NONE',  ( -15.00000000000000178, -12.50000000000000000, 11.19999999999999929 ) ) ;
#645 = DIRECTION ( 'NONE',  ( -1.000000000000000000, -8.673617379884004904E-16, 0.000000000000000000 ) ) ;
#646 = DIRECTION ( 'NONE',  ( 0.000000000000000000, 0.000000000000000000, -1.000000000000000000 ) ) ;
#647 = FACE_BOUND ( 'NONE', #3, .T. ) ;
#648 = DIRECTION ( 'NONE',  ( -0.000000000000000000, -1.000000000000000000, -0.000000000000000000 ) ) ;
#649 =( GEOMETRIC_REPRESENTATION_CONTEXT ( 3 ) GLOBAL_UNCERTAINTY_ASSIGNED_CONTEXT ( ( #135 ) ) GLOBAL_UNIT_ASSIGNED_CONTEXT ( ( #719, #731, #107 ) ) REPRESENTATION_CONTEXT ( 'NONE', 'WORKASPACE' ) );
#650 = VERTEX_POINT ( 'NONE', #402 ) ;
#651 = VECTOR ( 'NONE', #1334, 1000.000000000000000 ) ;
#652 = EDGE_CURVE ( 'NONE', #421, #1054, #633, .T. ) ;
#653 = UNCERTAINTY_MEASURE_WITH_UNIT (LENGTH_MEASURE( 1.000000000000000082E-05 ), #1057, 'distance_accuracy_value', 'NONE');
#654 = DIRECTION ( 'NONE',  ( 1.000000000000000000, 0.000000000000000000, 0.000000000000000000 ) ) ;
#655 = ORIENTED_EDGE ( 'NONE', *, *, #25, .F. ) ;
#656 = EDGE_LOOP ( 'NONE', ( #1279, #331, #1200, #839 ) ) ;
#657 = DIRECTION ( 'NONE',  ( 0.000000000000000000, 0.000000000000000000, 1.000000000000000000 ) ) ;
#658 = CARTESIAN_POINT ( 'NONE',  ( -14.99999999999999467, -33.00000000000000000, 2.000000000000000000 ) ) ;
#659 = DIRECTION ( 'NONE',  ( 0.000000000000000000, 0.000000000000000000, 1.000000000000000000 ) ) ;
#660 = VERTEX_POINT ( 'NONE', #407 ) ;
#661 = DIRECTION ( 'NONE',  ( -0.000000000000000000, 1.000000000000000000, -0.000000000000000000 ) ) ;
#662 = VECTOR ( 'NONE', #88, 1000.000000000000000 ) ;
#663 = EDGE_CURVE ( 'NONE', #46, #520, #105, .T. ) ;
#664 = DIRECTION ( 'NONE',  ( 1.000000000000000000, 0.000000000000000000, 0.000000000000000000 ) ) ;
#665 = DIRECTION ( 'NONE',  ( -0.000000000000000000, -0.000000000000000000, 1.000000000000000000 ) ) ;
#666 = ORIENTED_EDGE ( 'NONE', *, *, #529, .F. ) ;
#667 = EDGE_CURVE ( 'NONE', #536, #247, #623, .T. ) ;
#668 = VECTOR ( 'NONE', #410, 1000.000000000000000 ) ;
#669 = AXIS2_PLACEMENT_3D ( 'NONE', #418, #841, #1166 ) ;
#670 = VECTOR ( 'NONE', #242, 1000.000000000000000 ) ;
#671 = EDGE_LOOP ( 'NONE', ( #486, #287, #1357, #1218, #383, #475, #551, #183 ) ) ;
#672 = LINE ( 'NONE', #994, #728 ) ;
#673 = DIRECTION ( 'NONE',  ( 0.000000000000000000, 0.000000000000000000, -1.000000000000000000 ) ) ;
#674 = DIRECTION ( 'NONE',  ( -0.000000000000000000, 1.000000000000000000, -0.000000000000000000 ) ) ;
#675 = PLANE ( 'NONE',  #1242 ) ;
#676 = VERTEX_POINT ( 'NONE', #931 ) ;
#677 = VERTEX_POINT ( 'NONE', #1142 ) ;
#678 = VECTOR ( 'NONE', #241, 1000.000000000000000 ) ;
#679 = LINE ( 'NONE', #556, #192 ) ;
#680 = PLANE ( 'NONE',  #1175 ) ;
#681 = ORIENTED_EDGE ( 'NONE', *, *, #428, .F. ) ;
#682 = CARTESIAN_POINT ( 'NONE',  ( 13.00000000000000888, 17.00000000000000355, 11.19999999999999929 ) ) ;
#683 = EDGE_CURVE ( 'NONE', #1321, #822, #1265, .T. ) ;
#684 = CARTESIAN_POINT ( 'NONE',  ( -12.99999999999999467, -12.49999999999999822, 11.19999999999999929 ) ) ;
#685 = AXIS2_PLACEMENT_3D ( 'NONE', #588, #942, #1248 ) ;
#686 = DIRECTION ( 'NONE',  ( -1.734723475976800981E-15, -1.000000000000000000, 0.000000000000000000 ) ) ;
#687 = ORIENTED_EDGE ( 'NONE', *, *, #54, .T. ) ;
#688 = EDGE_CURVE ( 'NONE', #676, #1050, #306, .T. ) ;
#689 = CARTESIAN_POINT ( 'NONE',  ( -12.99999999999999822, 20.00000000000000355, 9.199999999999999289 ) ) ;
#690 = DIRECTION ( 'NONE',  ( -0.000000000000000000, -1.000000000000000000, -0.000000000000000000 ) ) ;
#691 = FACE_OUTER_BOUND ( 'NONE', #1031, .T. ) ;
#692 = VECTOR ( 'NONE', #434, 1000.000000000000000 ) ;
#693 = DIRECTION ( 'NONE',  ( 1.000000000000000000, 0.000000000000000000, -0.000000000000000000 ) ) ;
#694 = CARTESIAN_POINT ( 'NONE',  ( -12.99999999999999645, -30.00000000000000711, 9.199999999999999289 ) ) ;
#695 = DIRECTION ( 'NONE',  ( -0.000000000000000000, -0.000000000000000000, -1.000000000000000000 ) ) ;
#696 = EDGE_CURVE ( 'NONE', #432, #520, #40, .T. ) ;
#697 = VECTOR ( 'NONE', #1120, 1000.000000000000000 ) ;
#698 = ORIENTED_EDGE ( 'NONE', *, *, #1297, .T. ) ;
#699 = VERTEX_POINT ( 'NONE', #945 ) ;
#700 = DIRECTION ( 'NONE',  ( -0.000000000000000000, -0.000000000000000000, 1.000000000000000000 ) ) ;
#701 = DIRECTION ( 'NONE',  ( -0.000000000000000000, 1.000000000000000000, -0.000000000000000000 ) ) ;
#702 = CARTESIAN_POINT ( 'NONE',  ( -13.99999999999998934, -29.99999999999999645, 2.000000000000000000 ) ) ;
#703 = EDGE_CURVE ( 'NONE', #342, #561, #1148, .T. ) ;
#704 = DIRECTION ( 'NONE',  ( 1.000000000000000000, -1.734723475976800981E-15, 0.000000000000000000 ) ) ;
#705 = ORIENTED_EDGE ( 'NONE', *, *, #606, .T. ) ;
#706 = CYLINDRICAL_SURFACE ( 'NONE', #99, 1.249999999999999334 ) ;
#707 = DIRECTION ( 'NONE',  ( -0.000000000000000000, -1.000000000000000000, -0.000000000000000000 ) ) ;
#708 = ORIENTED_EDGE ( 'NONE', *, *, #1076, .F. ) ;
#709 = DIRECTION ( 'NONE',  ( 0.000000000000000000, 0.000000000000000000, 1.000000000000000000 ) ) ;
#710 = DIRECTION ( 'NONE',  ( -1.119176436114069085E-16, 1.000000000000000000, -0.000000000000000000 ) ) ;
#711 = EDGE_CURVE ( 'NONE', #1320, #119, #953, .T. ) ;
#712 = AXIS2_PLACEMENT_3D ( 'NONE', #494, #481, #1342 ) ;
#713 = VERTEX_POINT ( 'NONE', #612 ) ;
#714 = LINE ( 'NONE', #1135, #662 ) ;
#715 = CIRCLE ( 'NONE', #164, 1.249999999999999334 ) ;
#716 = CIRCLE ( 'NONE', #944, 1.249999999999999334 ) ;
#717 = VECTOR ( 'NONE', #908, 1000.000000000000000 ) ;
#718 = VERTEX_POINT ( 'NONE', #514 ) ;
#719 =( LENGTH_UNIT ( ) NAMED_UNIT ( * ) SI_UNIT ( .MILLI., .METRE. ) );
#720 = DIRECTION ( 'NONE',  ( 0.000000000000000000, -1.000000000000000000, 0.000000000000000000 ) ) ;
#721 = CARTESIAN_POINT ( 'NONE',  ( -12.99999999999999467, -30.00000000000000711, 46.34482300479488259 ) ) ;
#722 = VERTEX_POINT ( 'NONE', #837 ) ;
#723 = CARTESIAN_POINT ( 'NONE',  ( 2.500000000000003997, 14.00000000000000533, 11.19999999999999929 ) ) ;
#724 = CARTESIAN_POINT ( 'NONE',  ( 20.00000000000000355, 20.00000000000000355, 2.000000000000000000 ) ) ;
#725 = EDGE_LOOP ( 'NONE', ( #742, #1256, #466, #1117 ) ) ;
#726 = PLANE ( 'NONE',  #780 ) ;
#727 = ADVANCED_FACE ( 'NONE', ( #206 ), #1161, .F. ) ;
#728 = VECTOR ( 'NONE', #579, 1000.000000000000000 ) ;
#729 = CARTESIAN_POINT ( 'NONE',  ( 13.00000000000000888, -30.00000000000000711, 11.19999999999999929 ) ) ;
#730 = VERTEX_POINT ( 'NONE', #1040 ) ;
#731 =( NAMED_UNIT ( * ) PLANE_ANGLE_UNIT ( ) SI_UNIT ( $, .RADIAN. ) );
#732 = FACE_OUTER_BOUND ( 'NONE', #20, .T. ) ;
#733 = CARTESIAN_POINT ( 'NONE',  ( 8.000000000000010658, -30.00000000000000711, 13.19999999999999929 ) ) ;
#734 = EDGE_LOOP ( 'NONE', ( #1130, #508, #63, #344 ) ) ;
#735 = AXIS2_PLACEMENT_3D ( 'NONE', #394, #929, #709 ) ;
#736 = CARTESIAN_POINT ( 'NONE',  ( -2.999999999999995559, -27.00000000000000711, 13.19999999999999929 ) ) ;
#737 = AXIS2_PLACEMENT_3D ( 'NONE', #724, #1356, #1270 ) ;
#738 = ORIENTED_EDGE ( 'NONE', *, *, #663, .T. ) ;
#739 = CIRCLE ( 'NONE', #986, 1.249999999999999334 ) ;
#740 = FACE_BOUND ( 'NONE', #1310, .T. ) ;
#741 = DIRECTION ( 'NONE',  ( -0.000000000000000000, -0.000000000000000000, -1.000000000000000000 ) ) ;
#742 = ORIENTED_EDGE ( 'NONE', *, *, #446, .T. ) ;
#743 = CARTESIAN_POINT ( 'NONE',  ( -2.999999999999995559, -27.00000000000000711, 9.199999999999999289 ) ) ;
#744 = LINE ( 'NONE', #782, #1178 ) ;
#745 = EDGE_CURVE ( 'NONE', #583, #6, #974, .T. ) ;
#746 = VERTEX_POINT ( 'NONE', #414 ) ;
#747 = DIRECTION ( 'NONE',  ( 0.000000000000000000, 0.000000000000000000, 1.000000000000000000 ) ) ;
#748 = CARTESIAN_POINT ( 'NONE',  ( -15.00000000000000178, -12.50000000000000000, 11.19999999999999929 ) ) ;
#749 = VECTOR ( 'NONE', #368, 1000.000000000000000 ) ;
#750 = PRESENTATION_STYLE_ASSIGNMENT (( #860 ) ) ;
#751 = ORIENTED_EDGE ( 'NONE', *, *, #580, .F. ) ;
#752 = PRODUCT_DEFINITION_SHAPE ( 'NONE', 'NONE',  #1138 ) ;
#753 = EDGE_CURVE ( 'NONE', #328, #1088, #1134, .T. ) ;
#754 = VECTOR ( 'NONE', #44, 1000.000000000000000 ) ;
#755 = ORIENTED_EDGE ( 'NONE', *, *, #220, .F. ) ;
#756 = EDGE_CURVE ( 'NONE', #1143, #1321, #1257, .T. ) ;
#757 = DIRECTION ( 'NONE',  ( 0.000000000000000000, 1.000000000000000000, 0.000000000000000000 ) ) ;
#758 = DIRECTION ( 'NONE',  ( 1.000000000000000000, 0.000000000000000000, 0.000000000000000000 ) ) ;
#759 = ORIENTED_EDGE ( 'NONE', *, *, #213, .F. ) ;
#760 = PLANE ( 'NONE',  #830 ) ;
#761 = EDGE_CURVE ( 'NONE', #660, #463, #744, .T. ) ;
#762 = AXIS2_PLACEMENT_3D ( 'NONE', #849, #1261, #758 ) ;
#763 = DIRECTION ( 'NONE',  ( -2.214540607629966587E-16, 1.000000000000000000, -0.000000000000000000 ) ) ;
#764 = ORIENTED_EDGE ( 'NONE', *, *, #529, .T. ) ;
#765 = VECTOR ( 'NONE', #132, 1000.000000000000000 ) ;
#766 = VECTOR ( 'NONE', #221, 1000.000000000000000 ) ;
#767 = AXIS2_PLACEMENT_3D ( 'NONE', #1324, #389, #1223 ) ;
#768 = ORIENTED_EDGE ( 'NONE', *, *, #1146, .T. ) ;
#769 = DIRECTION ( 'NONE',  ( -0.000000000000000000, -1.000000000000000000, -0.000000000000000000 ) ) ;
#770 = CARTESIAN_POINT ( 'NONE',  ( -14.99999999999999467, -33.00000000000000000, 0.000000000000000000 ) ) ;
#771 = DIRECTION ( 'NONE',  ( 0.000000000000000000, -0.000000000000000000, 1.000000000000000000 ) ) ;
#772 = LINE ( 'NONE', #1294, #128 ) ;
#773 = VERTEX_POINT ( 'NONE', #1075 ) ;
#774 = EDGE_CURVE ( 'NONE', #67, #1153, #19, .T. ) ;
#775 = CARTESIAN_POINT ( 'NONE',  ( -12.99999999999999645, -30.00000000000000711, 9.199999999999999289 ) ) ;
#776 = FACE_OUTER_BOUND ( 'NONE', #971, .T. ) ;
#777 = CARTESIAN_POINT ( 'NONE',  ( -12.99999999999999467, -33.00000000000000000, 15.19999999999999929 ) ) ;
#778 = ORIENTED_EDGE ( 'NONE', *, *, #638, .T. ) ;
#779 = EDGE_LOOP ( 'NONE', ( #75, #1262, #1169, #1014, #1228, #455, #1258, #909 ) ) ;
#780 = AXIS2_PLACEMENT_3D ( 'NONE', #205, #534, #952 ) ;
#781 = LINE ( 'NONE', #790, #930 ) ;
#782 = CARTESIAN_POINT ( 'NONE',  ( -13.99999999999999467, 17.00000000000000355, 2.000000000000000000 ) ) ;
#783 = ADVANCED_FACE ( 'NONE', ( #27 ), #1081, .T. ) ;
#784 = DIRECTION ( 'NONE',  ( 0.000000000000000000, 1.000000000000000000, 0.000000000000000000 ) ) ;
#785 = DIRECTION ( 'NONE',  ( 0.000000000000000000, -0.000000000000000000, -1.000000000000000000 ) ) ;
#786 = ORIENTED_EDGE ( 'NONE', *, *, #1155, .T. ) ;
#787 = VECTOR ( 'NONE', #741, 1000.000000000000000 ) ;
#788 = VECTOR ( 'NONE', #476, 1000.000000000000000 ) ;
#789 = EDGE_LOOP ( 'NONE', ( #1022, #751 ) ) ;
#790 = CARTESIAN_POINT ( 'NONE',  ( 19.00000000000000711, 17.00000000000000355, 2.000000000000000000 ) ) ;
#791 = CARTESIAN_POINT ( 'NONE',  ( -15.00000000000000178, -22.49999999999999645, 15.19999999999999929 ) ) ;
#792 = EDGE_CURVE ( 'NONE', #794, #125, #1060, .T. ) ;
#793 = ORIENTED_EDGE ( 'NONE', *, *, #1211, .F. ) ;
#794 = VERTEX_POINT ( 'NONE', #361 ) ;
#795 = CARTESIAN_POINT ( 'NONE',  ( -12.99999999999999467, 14.00000000000000533, 13.00000000000000000 ) ) ;
#796 = ADVANCED_FACE ( 'NONE', ( #445 ), #1280, .T. ) ;
#797 = FACE_OUTER_BOUND ( 'NONE', #803, .T. ) ;
#798 = ADVANCED_FACE ( 'NONE', ( #876 ), #139, .F. ) ;
#799 = EDGE_LOOP ( 'NONE', ( #1168, #625, #419, #1203, #1253, #1020, #1045, #503 ) ) ;
#800 = DIRECTION ( 'NONE',  ( -0.000000000000000000, -0.000000000000000000, -1.000000000000000000 ) ) ;
#801 = CARTESIAN_POINT ( 'NONE',  ( 8.000000000000008882, -30.00000000000000711, -2.201754250991384332 ) ) ;
#802 = CARTESIAN_POINT ( 'NONE',  ( -12.99999999999999467, -27.00000000000001066, 13.19999999999999929 ) ) ;
#803 = EDGE_LOOP ( 'NONE', ( #764, #71, #980, #352 ) ) ;
#804 = CARTESIAN_POINT ( 'NONE',  ( -2.999999999999993783, -30.00000000000000711, -2.201754250991384332 ) ) ;
#805 = LINE ( 'NONE', #915, #717 ) ;
#806 = ORIENTED_EDGE ( 'NONE', *, *, #134, .F. ) ;
#807 = CARTESIAN_POINT ( 'NONE',  ( 18.00000000000001066, 20.00000000000000355, 15.19999999999999929 ) ) ;
#808 = FACE_OUTER_BOUND ( 'NONE', #374, .T. ) ;
#809 = ORIENTED_EDGE ( 'NONE', *, *, #341, .F. ) ;
#810 = AXIS2_PLACEMENT_3D ( 'NONE', #614, #747, #1164 ) ;
#811 = ORIENTED_EDGE ( 'NONE', *, *, #362, .F. ) ;
#812 = VECTOR ( 'NONE', #665, 1000.000000000000000 ) ;
#813 = VECTOR ( 'NONE', #1133, 1000.000000000000000 ) ;
#814 = LINE ( 'NONE', #791, #1064 ) ;
#815 = AXIS2_PLACEMENT_3D ( 'NONE', #196, #829, #527 ) ;
#816 = EDGE_LOOP ( 'NONE', ( #632, #267, #100, #1058 ) ) ;
#817 = PLANE ( 'NONE',  #1004 ) ;
#818 = DIRECTION ( 'NONE',  ( 1.000000000000000000, 0.000000000000000000, 0.000000000000000000 ) ) ;
#819 = CARTESIAN_POINT ( 'NONE',  ( -7.999999999999992895, -23.46446609406726935, 11.19999999999999929 ) ) ;
#820 = ADVANCED_FACE ( 'NONE', ( #1086 ), #1096, .F. ) ;
#821 = LINE ( 'NONE', #1019, #697 ) ;
#822 = VERTEX_POINT ( 'NONE', #1276 ) ;
#823 = PLANE ( 'NONE',  #57 ) ;
#824 = DIRECTION ( 'NONE',  ( 0.000000000000000000, 0.000000000000000000, 1.000000000000000000 ) ) ;
#825 = DIRECTION ( 'NONE',  ( -0.000000000000000000, -1.000000000000000000, -0.000000000000000000 ) ) ;
#826 = CARTESIAN_POINT ( 'NONE',  ( -15.00000000000000178, -22.49999999999999645, 11.19999999999999929 ) ) ;
#827 = ORIENTED_EDGE ( 'NONE', *, *, #362, .T. ) ;
#828 = CYLINDRICAL_SURFACE ( 'NONE', #492, 1.249999999999999334 ) ;
#829 = DIRECTION ( 'NONE',  ( 0.000000000000000000, 1.000000000000000000, 0.000000000000000000 ) ) ;
#830 = AXIS2_PLACEMENT_3D ( 'NONE', #1274, #1197, #254 ) ;
#831 = ORIENTED_EDGE ( 'NONE', *, *, #371, .T. ) ;
#832 = ADVANCED_FACE ( 'NONE', ( #21, #647, #740, #732 ), #635, .F. ) ;
#833 = LINE ( 'NONE', #303, #230 ) ;
#834 =( NAMED_UNIT ( * ) SI_UNIT ( $, .STERADIAN. ) SOLID_ANGLE_UNIT ( ) );
#835 = ORIENTED_EDGE ( 'NONE', *, *, #1083, .T. ) ;
#836 = FACE_OUTER_BOUND ( 'NONE', #725, .T. ) ;
#837 = CARTESIAN_POINT ( 'NONE',  ( 13.00000000000000888, -27.00000000000000711, 12.44999999999999929 ) ) ;
#838 = EDGE_CURVE ( 'NONE', #1054, #479, #1158, .T. ) ;
#839 = ORIENTED_EDGE ( 'NONE', *, *, #401, .T. ) ;
#840 = DIRECTION ( 'NONE',  ( -0.000000000000000000, -0.000000000000000000, -1.000000000000000000 ) ) ;
#841 = DIRECTION ( 'NONE',  ( 0.000000000000000000, 0.000000000000000000, 1.000000000000000000 ) ) ;
#842 = VERTEX_POINT ( 'NONE', #116 ) ;
#843 = CARTESIAN_POINT ( 'NONE',  ( -15.00000000000000178, -12.50000000000000000, 11.19999999999999929 ) ) ;
#844 = EDGE_CURVE ( 'NONE', #1268, #167, #1328, .T. ) ;
#845 = ORIENTED_EDGE ( 'NONE', *, *, #592, .F. ) ;
#846 = DIRECTION ( 'NONE',  ( -0.000000000000000000, -0.000000000000000000, -1.000000000000000000 ) ) ;
#847 = EDGE_LOOP ( 'NONE', ( #845, #409, #186, #472 ) ) ;
#848 = FACE_OUTER_BOUND ( 'NONE', #989, .T. ) ;
#849 = CARTESIAN_POINT ( 'NONE',  ( 0.000000000000000000, 0.000000000000000000, 0.000000000000000000 ) ) ;
#850 = ORIENTED_EDGE ( 'NONE', *, *, #1146, .F. ) ;
#851 = DIRECTION ( 'NONE',  ( 0.000000000000000000, 1.000000000000000000, 0.000000000000000000 ) ) ;
#852 = EDGE_CURVE ( 'NONE', #285, #794, #948, .T. ) ;
#853 = CARTESIAN_POINT ( 'NONE',  ( -7.999999999999992895, -23.46446609406726935, 12.44999999999999929 ) ) ;
#854 = VECTOR ( 'NONE', #1113, 1000.000000000000000 ) ;
#855 = MECHANICAL_DESIGN_GEOMETRIC_PRESENTATION_REPRESENTATION (  '', ( #275 ), #457 ) ;
#856 = CIRCLE ( 'NONE', #458, 1.249999999999999334 ) ;
#857 = ORIENTED_EDGE ( 'NONE', *, *, #902, .T. ) ;
#858 = VECTOR ( 'NONE', #395, 1000.000000000000000 ) ;
#859 = LINE ( 'NONE', #424, #545 ) ;
#860 = SURFACE_STYLE_USAGE ( .BOTH. , #13 ) ;
#861 = ORIENTED_EDGE ( 'NONE', *, *, #26, .T. ) ;
#862 = DIRECTION ( 'NONE',  ( 0.000000000000000000, -1.000000000000000000, 0.000000000000000000 ) ) ;
#863 = EDGE_CURVE ( 'NONE', #1143, #916, #866, .T. ) ;
#864 = EDGE_CURVE ( 'NONE', #201, #607, #961, .T. ) ;
#865 = ORIENTED_EDGE ( 'NONE', *, *, #919, .F. ) ;
#866 = LINE ( 'NONE', #955, #766 ) ;
#867 = PLANE ( 'NONE',  #762 ) ;
#868 = ORIENTED_EDGE ( 'NONE', *, *, #260, .F. ) ;
#869 = LINE ( 'NONE', #631, #981 ) ;
#870 = CARTESIAN_POINT ( 'NONE',  ( -12.99999999999999467, -33.00000000000000000, 15.19999999999999929 ) ) ;
#871 = EDGE_CURVE ( 'NONE', #305, #1333, #856, .T. ) ;
#872 = CARTESIAN_POINT ( 'NONE',  ( 19.00000000000000711, 17.00000000000000355, 6.000000000000000000 ) ) ;
#873 = ORIENTED_EDGE ( 'NONE', *, *, #1282, .F. ) ;
#874 = AXIS2_PLACEMENT_3D ( 'NONE', #546, #1349, #420 ) ;
#875 = CARTESIAN_POINT ( 'NONE',  ( 18.00000000000001066, 17.00000000000000355, 9.199999999999999289 ) ) ;
#876 = FACE_OUTER_BOUND ( 'NONE', #366, .T. ) ;
#877 = DIRECTION ( 'NONE',  ( -0.000000000000000000, 1.000000000000000000, -0.000000000000000000 ) ) ;
#878 = CARTESIAN_POINT ( 'NONE',  ( 19.00000000000001776, -29.99999999999999645, 2.000000000000000000 ) ) ;
#879 = COLOUR_RGB ( '',0.7921568627450980005, 0.8196078431372548767, 0.9333333333333333481 ) ;
#880 = CARTESIAN_POINT ( 'NONE',  ( -12.99999999999999467, -22.50000000000000000, 11.19999999999999929 ) ) ;
#881 = EDGE_CURVE ( 'NONE', #84, #125, #1246, .T. ) ;
#882 = EDGE_LOOP ( 'NONE', ( #932, #1237, #1264, #1245 ) ) ;
#883 = VECTOR ( 'NONE', #9, 1000.000000000000000 ) ;
#884 = DIRECTION ( 'NONE',  ( 5.782411586589358625E-16, -1.000000000000000000, 0.000000000000000000 ) ) ;
#885 = PLANE ( 'NONE',  #1136 ) ;
#886 = ORIENTED_EDGE ( 'NONE', *, *, #580, .T. ) ;
#887 = ORIENTED_EDGE ( 'NONE', *, *, #1330, .F. ) ;
#888 = CARTESIAN_POINT ( 'NONE',  ( 13.00000000000000888, -33.00100000000000477, 11.19999999999999929 ) ) ;
#889 = EDGE_CURVE ( 'NONE', #1055, #904, #123, .T. ) ;
#890 = CARTESIAN_POINT ( 'NONE',  ( 18.00000000000001066, -30.00000000000000711, 9.199999999999999289 ) ) ;
#891 = CARTESIAN_POINT ( 'NONE',  ( -13.99999999999999467, 17.00000000000000355, 6.000000000000000000 ) ) ;
#892 = ORIENTED_EDGE ( 'NONE', *, *, #711, .F. ) ;
#893 = DIRECTION ( 'NONE',  ( -1.119176436114069085E-16, 1.000000000000000000, -0.000000000000000000 ) ) ;
#894 = ADVANCED_FACE ( 'NONE', ( #411 ), #226, .T. ) ;
#895 = DIRECTION ( 'NONE',  ( -0.000000000000000000, -1.000000000000000000, -0.000000000000000000 ) ) ;
#896 = ORIENTED_EDGE ( 'NONE', *, *, #281, .F. ) ;
#897 = CARTESIAN_POINT ( 'NONE',  ( 13.00000000000000888, -23.46446609406726935, 11.19999999999999929 ) ) ;
#898 = VECTOR ( 'NONE', #136, 1000.000000000000000 ) ;
#899 = ORIENTED_EDGE ( 'NONE', *, *, #547, .F. ) ;
#900 = CARTESIAN_POINT ( 'NONE',  ( 20.00000000000000355, 20.00000000000000355, 15.19999999999999929 ) ) ;
#901 = DIRECTION ( 'NONE',  ( -8.673617379884004904E-16, 1.000000000000000000, 0.000000000000000000 ) ) ;
#902 = EDGE_CURVE ( 'NONE', #1193, #533, #859, .T. ) ;
#903 = CARTESIAN_POINT ( 'NONE',  ( 18.00000000000001066, -27.00000000000000711, 46.34482300479488259 ) ) ;
#904 = VERTEX_POINT ( 'NONE', #1251 ) ;
#905 = LINE ( 'NONE', #502, #250 ) ;
#906 = PLANE ( 'NONE',  #500 ) ;
#907 = VERTEX_POINT ( 'NONE', #1269 ) ;
#908 = DIRECTION ( 'NONE',  ( -0.000000000000000000, -0.000000000000000000, 1.000000000000000000 ) ) ;
#909 = ORIENTED_EDGE ( 'NONE', *, *, #863, .T. ) ;
#910 = CARTESIAN_POINT ( 'NONE',  ( -7.999999999999992895, -30.00000000000000711, 11.19999999999999929 ) ) ;
#911 = LINE ( 'NONE', #405, #141 ) ;
#912 = ORIENTED_EDGE ( 'NONE', *, *, #505, .T. ) ;
#913 = ORIENTED_EDGE ( 'NONE', *, *, #1091, .T. ) ;
#914 = DIRECTION ( 'NONE',  ( -1.000000000000000000, -0.000000000000000000, -0.000000000000000000 ) ) ;
#915 = CARTESIAN_POINT ( 'NONE',  ( 8.000000000000008882, -27.00000000000000711, -2.201754250991384332 ) ) ;
#916 = VERTEX_POINT ( 'NONE', #202 ) ;
#917 = LINE ( 'NONE', #90, #651 ) ;
#918 = CARTESIAN_POINT ( 'NONE',  ( -7.999999999999996447, 14.00000000000000533, 9.950000000000001066 ) ) ;
#919 = EDGE_CURVE ( 'NONE', #1193, #337, #833, .T. ) ;
#920 = FACE_OUTER_BOUND ( 'NONE', #882, .T. ) ;
#921 = CARTESIAN_POINT ( 'NONE',  ( -12.99999999999999467, -33.00000000000000000, 15.19999999999999929 ) ) ;
#922 = VECTOR ( 'NONE', #585, 1000.000000000000000 ) ;
#923 = CARTESIAN_POINT ( 'NONE',  ( 18.00000000000001066, 14.00000000000000533, 5.999999999999998224 ) ) ;
#924 = VECTOR ( 'NONE', #983, 1000.000000000000000 ) ;
#925 = EDGE_LOOP ( 'NONE', ( #643, #1048, #835, #137 ) ) ;
#926 = DIRECTION ( 'NONE',  ( 0.000000000000000000, 1.000000000000000000, 0.000000000000000000 ) ) ;
#927 = AXIS2_PLACEMENT_3D ( 'NONE', #1352, #1235, #292 ) ;
#928 = LINE ( 'NONE', #385, #517 ) ;
#929 = DIRECTION ( 'NONE',  ( -0.000000000000000000, 1.000000000000000000, -0.000000000000000000 ) ) ;
#930 = VECTOR ( 'NONE', #264, 1000.000000000000000 ) ;
#931 = CARTESIAN_POINT ( 'NONE',  ( -15.00000000000000178, -22.49999999999999645, 11.19999999999999929 ) ) ;
#932 = ORIENTED_EDGE ( 'NONE', *, *, #111, .T. ) ;
#933 = CARTESIAN_POINT ( 'NONE',  ( -12.99999999999999645, 17.00000000000000355, 9.199999999999999289 ) ) ;
#934 = DIRECTION ( 'NONE',  ( -0.000000000000000000, -1.000000000000000000, -0.000000000000000000 ) ) ;
#935 = CIRCLE ( 'NONE', #335, 1.249999999999999334 ) ;
#936 = DIRECTION ( 'NONE',  ( -6.546126324440781884E-17, 1.000000000000000000, -0.000000000000000000 ) ) ;
#937 = EDGE_CURVE ( 'NONE', #677, #46, #739, .T. ) ;
#938 = VECTOR ( 'NONE', #1093, 1000.000000000000000 ) ;
#939 = ORIENTED_EDGE ( 'NONE', *, *, #587, .T. ) ;
#940 = DIRECTION ( 'NONE',  ( 1.000000000000000000, 1.309225264888156130E-16, -0.000000000000000000 ) ) ;
#941 = CARTESIAN_POINT ( 'NONE',  ( 13.00000000000000888, -23.46446609406726935, 11.19999999999999929 ) ) ;
#942 = DIRECTION ( 'NONE',  ( 1.000000000000000000, 0.000000000000000000, 0.000000000000000000 ) ) ;
#943 = EDGE_CURVE ( 'NONE', #1153, #650, #1042, .T. ) ;
#944 = AXIS2_PLACEMENT_3D ( 'NONE', #298, #707, #599 ) ;
#945 = CARTESIAN_POINT ( 'NONE',  ( 8.000000000000008882, -30.00000000000000711, 9.199999999999999289 ) ) ;
#946 = VECTOR ( 'NONE', #516, 1000.000000000000000 ) ;
#947 = ORIENTED_EDGE ( 'NONE', *, *, #745, .F. ) ;
#948 = LINE ( 'NONE', #417, #946 ) ;
#949 = DIRECTION ( 'NONE',  ( 1.000000000000000000, 0.000000000000000000, -0.000000000000000000 ) ) ;
#950 = ORIENTED_EDGE ( 'NONE', *, *, #696, .F. ) ;
#951 = ADVANCED_FACE ( 'NONE', ( #848 ), #522, .T. ) ;
#952 = DIRECTION ( 'NONE',  ( 1.000000000000000000, 0.000000000000000000, -0.000000000000000000 ) ) ;
#953 = LINE ( 'NONE', #535, #348 ) ;
#954 = ORIENTED_EDGE ( 'NONE', *, *, #667, .F. ) ;
#955 = CARTESIAN_POINT ( 'NONE',  ( 20.00000000000000355, 20.00000000000000355, 2.000000000000000000 ) ) ;
#956 = CARTESIAN_POINT ( 'NONE',  ( 19.00000000000000711, 17.00000000000000355, 6.000000000000000000 ) ) ;
#957 = ORIENTED_EDGE ( 'NONE', *, *, #371, .F. ) ;
#958 = DIRECTION ( 'NONE',  ( 0.000000000000000000, 0.000000000000000000, 1.000000000000000000 ) ) ;
#959 = ORIENTED_EDGE ( 'NONE', *, *, #354, .F. ) ;
#960 = VECTOR ( 'NONE', #1038, 1000.000000000000000 ) ;
#961 = LINE ( 'NONE', #543, #345 ) ;
#962 = LINE ( 'NONE', #1348, #692 ) ;
#963 = EDGE_LOOP ( 'NONE', ( #1072, #637, #461, #524 ) ) ;
#964 = DIRECTION ( 'NONE',  ( 0.000000000000000000, 0.000000000000000000, 1.000000000000000000 ) ) ;
#965 = ADVANCED_FACE ( 'NONE', ( #531, #1260 ), #675, .F. ) ;
#966 = VERTEX_POINT ( 'NONE', #49 ) ;
#967 = VECTOR ( 'NONE', #47, 1000.000000000000000 ) ;
#968 = ORIENTED_EDGE ( 'NONE', *, *, #1141, .F. ) ;
#969 = DIRECTION ( 'NONE',  ( 0.000000000000000000, 0.000000000000000000, 1.000000000000000000 ) ) ;
#970 = PLANE ( 'NONE',  #604 ) ;
#971 = EDGE_LOOP ( 'NONE', ( #240, #705, #1340, #1067 ) ) ;
#972 = LINE ( 'NONE', #843, #339 ) ;
#973 = VERTEX_POINT ( 'NONE', #1070 ) ;
#974 = CIRCLE ( 'NONE', #367, 1.249999999999999334 ) ;
#975 = LINE ( 'NONE', #460, #1198 ) ;
#976 = EDGE_LOOP ( 'NONE', ( #539, #1204, #59, #655 ) ) ;
#977 = EDGE_CURVE ( 'NONE', #842, #1153, #978, .T. ) ;
#978 = LINE ( 'NONE', #471, #390 ) ;
#979 = CARTESIAN_POINT ( 'NONE',  ( 20.00000000000001066, -33.00000000000000000, 0.000000000000000000 ) ) ;
#980 = ORIENTED_EDGE ( 'NONE', *, *, #688, .F. ) ;
#981 = VECTOR ( 'NONE', #112, 1000.000000000000000 ) ;
#982 = CARTESIAN_POINT ( 'NONE',  ( 13.00000000000000888, -30.00000000000000711, 9.950000000000001066 ) ) ;
#983 = DIRECTION ( 'NONE',  ( -1.309225264888156130E-16, 1.000000000000000000, -0.000000000000000000 ) ) ;
#984 = DIRECTION ( 'NONE',  ( 0.000000000000000000, 0.000000000000000000, -1.000000000000000000 ) ) ;
#985 = VERTEX_POINT ( 'NONE', #878 ) ;
#986 = AXIS2_PLACEMENT_3D ( 'NONE', #723, #1144, #619 ) ;
#987 = ADVANCED_FACE ( 'NONE', ( #356 ), #1289, .F. ) ;
#988 = VECTOR ( 'NONE', #158, 1000.000000000000000 ) ;
#989 = EDGE_LOOP ( 'NONE', ( #1278, #1284, #222, #181 ) ) ;
#990 = LINE ( 'NONE', #469, #754 ) ;
#991 = CARTESIAN_POINT ( 'NONE',  ( -13.99999999999999467, 17.00000000000000355, 6.000000000000000000 ) ) ;
#992 = CARTESIAN_POINT ( 'NONE',  ( 18.00000000000001066, 20.00000000000000355, 9.199999999999999289 ) ) ;
#993 = ORIENTED_EDGE ( 'NONE', *, *, #688, .T. ) ;
#994 = CARTESIAN_POINT ( 'NONE',  ( 18.00000000000001066, -27.00000000000000711, 13.19999999999999929 ) ) ;
#995 = EDGE_LOOP ( 'NONE', ( #248, #912, #1307, #235 ) ) ;
#996 = EDGE_CURVE ( 'NONE', #713, #67, #559, .T. ) ;
#997 = EDGE_CURVE ( 'NONE', #904, #397, #147, .T. ) ;
#998 = LINE ( 'NONE', #249, #967 ) ;
#999 = LINE ( 'NONE', #1099, #1243 ) ;
#1000 = ORIENTED_EDGE ( 'NONE', *, *, #54, .F. ) ;
#1001 = ORIENTED_EDGE ( 'NONE', *, *, #408, .F. ) ;
#1002 = DIRECTION ( 'NONE',  ( -1.000000000000000000, -1.119176436114069085E-16, 0.000000000000000000 ) ) ;
#1003 = VECTOR ( 'NONE', #914, 1000.000000000000000 ) ;
#1004 = AXIS2_PLACEMENT_3D ( 'NONE', #801, #1209, #1226 ) ;
#1005 = CARTESIAN_POINT ( 'NONE',  ( 2.500000000000003997, -33.00100000000000477, 11.19999999999999929 ) ) ;
#1006 = VECTOR ( 'NONE', #382, 1000.000000000000000 ) ;
#1007 = DIRECTION ( 'NONE',  ( 1.000000000000000000, -1.734723475976800981E-15, 0.000000000000000000 ) ) ;
#1008 = EDGE_LOOP ( 'NONE', ( #613, #85, #326, #576 ) ) ;
#1009 = CARTESIAN_POINT ( 'NONE',  ( -7.999999999999996447, -33.00100000000000477, 11.19999999999999929 ) ) ;
#1010 = CARTESIAN_POINT ( 'NONE',  ( 13.00000000000000888, -23.46446609406726935, 9.950000000000001066 ) ) ;
#1011 = FACE_OUTER_BOUND ( 'NONE', #552, .T. ) ;
#1012 = CARTESIAN_POINT ( 'NONE',  ( 20.00000000000001066, -33.00000000000000000, 15.19999999999999929 ) ) ;
#1013 = EDGE_CURVE ( 'NONE', #310, #1320, #1016, .T. ) ;
#1014 = ORIENTED_EDGE ( 'NONE', *, *, #140, .T. ) ;
#1015 = CARTESIAN_POINT ( 'NONE',  ( 18.00000000000001066, -27.00000000000000711, 5.999999999999998224 ) ) ;
#1016 = LINE ( 'NONE', #73, #922 ) ;
#1017 = PLANE ( 'NONE',  #712 ) ;
#1018 = ORIENTED_EDGE ( 'NONE', *, *, #1122, .F. ) ;
#1019 = CARTESIAN_POINT ( 'NONE',  ( -13.99999999999999467, 17.00000000000000355, 2.000000000000000000 ) ) ;
#1020 = ORIENTED_EDGE ( 'NONE', *, *, #485, .T. ) ;
#1021 = CARTESIAN_POINT ( 'NONE',  ( -15.00000000000000178, 20.00000000000000000, 0.000000000000000000 ) ) ;
#1022 = ORIENTED_EDGE ( 'NONE', *, *, #1172, .F. ) ;
#1023 = ADVANCED_FACE ( 'NONE', ( #598, #808 ), #1123, .F. ) ;
#1024 = AXIS2_PLACEMENT_3D ( 'NONE', #1077, #231, #1171 ) ;
#1025 = CIRCLE ( 'NONE', #605, 1.249999999999999334 ) ;
#1026 = PLANE ( 'NONE',  #211 ) ;
#1027 = VECTOR ( 'NONE', #301, 1000.000000000000000 ) ;
#1028 = EDGE_LOOP ( 'NONE', ( #1163, #159, #1353, #621 ) ) ;
#1029 = SHAPE_DEFINITION_REPRESENTATION ( #752, #562 ) ;
#1030 = FACE_OUTER_BOUND ( 'NONE', #1318, .T. ) ;
#1031 = EDGE_LOOP ( 'NONE', ( #857, #365, #442, #759, #778, #634, #302, #1001, #1125, #968, #868, #865 ) ) ;
#1032 = EDGE_CURVE ( 'NONE', #300, #110, #917, .T. ) ;
#1033 = VECTOR ( 'NONE', #464, 1000.000000000000000 ) ;
#1034 = ORIENTED_EDGE ( 'NONE', *, *, #1344, .F. ) ;
#1035 = FACE_OUTER_BOUND ( 'NONE', #1227, .T. ) ;
#1036 = CARTESIAN_POINT ( 'NONE',  ( -7.999999999999996447, 17.00000000000000355, 12.44999999999999929 ) ) ;
#1037 = ADVANCED_FACE ( 'NONE', ( #1232, #615, #193 ), #289, .F. ) ;
#1038 = DIRECTION ( 'NONE',  ( -0.000000000000000000, -0.000000000000000000, -1.000000000000000000 ) ) ;
#1039 = ADVANCED_FACE ( 'NONE', ( #1035 ), #906, .T. ) ;
#1040 = CARTESIAN_POINT ( 'NONE',  ( 19.00000000000001776, -29.99999999999999645, 6.000000000000000000 ) ) ;
#1041 = EDGE_LOOP ( 'NONE', ( #1295, #435, #197, #1147 ) ) ;
#1042 = LINE ( 'NONE', #308, #1306 ) ;
#1043 = ORIENTED_EDGE ( 'NONE', *, *, #1032, .F. ) ;
#1044 = DIRECTION ( 'NONE',  ( -1.000000000000000000, -1.734723475976804136E-15, 0.000000000000000000 ) ) ;
#1045 = ORIENTED_EDGE ( 'NONE', *, *, #977, .T. ) ;
#1046 = DIRECTION ( 'NONE',  ( 1.000000000000000000, -0.000000000000000000, -0.000000000000000000 ) ) ;
#1047 = CARTESIAN_POINT ( 'NONE',  ( -14.99999999999999467, -33.00000000000000000, 2.000000000000000000 ) ) ;
#1048 = ORIENTED_EDGE ( 'NONE', *, *, #1300, .T. ) ;
#1049 = CARTESIAN_POINT ( 'NONE',  ( 18.00000000000001066, 20.00000000000000355, 15.19999999999999929 ) ) ;
#1050 = VERTEX_POINT ( 'NONE', #278 ) ;
#1051 = ADVANCED_FACE ( 'NONE', ( #379 ), #817, .F. ) ;
#1052 = DIRECTION ( 'NONE',  ( 0.000000000000000000, 1.000000000000000000, 0.000000000000000000 ) ) ;
#1053 = LINE ( 'NONE', #117, #145 ) ;
#1054 = VERTEX_POINT ( 'NONE', #269 ) ;
#1055 = VERTEX_POINT ( 'NONE', #689 ) ;
#1056 = DIRECTION ( 'NONE',  ( -0.000000000000000000, -0.000000000000000000, 1.000000000000000000 ) ) ;
#1057 =( LENGTH_UNIT ( ) NAMED_UNIT ( * ) SI_UNIT ( .MILLI., .METRE. ) );
#1058 = ORIENTED_EDGE ( 'NONE', *, *, #756, .T. ) ;
#1059 = CARTESIAN_POINT ( 'NONE',  ( -13.99999999999999467, 17.00000000000000355, 6.000000000000000000 ) ) ;
#1060 = LINE ( 'NONE', #549, #166 ) ;
#1061 = VECTOR ( 'NONE', #29, 1000.000000000000000 ) ;
#1062 = CARTESIAN_POINT ( 'NONE',  ( 20.00000000000000355, 20.00000000000000355, 0.000000000000000000 ) ) ;
#1063 = AXIS2_PLACEMENT_3D ( 'NONE', #1286, #338, #1069 ) ;
#1064 = VECTOR ( 'NONE', #704, 1000.000000000000000 ) ;
#1065 = DIRECTION ( 'NONE',  ( 0.000000000000000000, 0.000000000000000000, 1.000000000000000000 ) ) ;
#1066 = CARTESIAN_POINT ( 'NONE',  ( -14.99999999999999467, -33.00000000000000000, 0.000000000000000000 ) ) ;
#1067 = ORIENTED_EDGE ( 'NONE', *, *, #1196, .F. ) ;
#1068 = ADVANCED_FACE ( 'NONE', ( #1108 ), #169, .F. ) ;
#1069 = DIRECTION ( 'NONE',  ( 1.000000000000000000, 0.000000000000000000, -0.000000000000000000 ) ) ;
#1070 = CARTESIAN_POINT ( 'NONE',  ( -14.99999999999999645, -22.49999999999999645, 15.19999999999999929 ) ) ;
#1071 = CARTESIAN_POINT ( 'NONE',  ( 18.00000000000001066, -33.00000000000000000, 15.19999999999999929 ) ) ;
#1072 = ORIENTED_EDGE ( 'NONE', *, *, #180, .T. ) ;
#1073 = EDGE_CURVE ( 'NONE', #247, #1329, #1025, .T. ) ;
#1074 = DIRECTION ( 'NONE',  ( 0.000000000000000000, 0.000000000000000000, 1.000000000000000000 ) ) ;
#1075 = CARTESIAN_POINT ( 'NONE',  ( 8.000000000000008882, -27.00000000000000711, 13.19999999999999929 ) ) ;
#1076 = EDGE_CURVE ( 'NONE', #149, #699, #1285, .T. ) ;
#1077 = CARTESIAN_POINT ( 'NONE',  ( 0.000000000000000000, 0.000000000000000000, 6.000000000000000000 ) ) ;
#1078 = ORIENTED_EDGE ( 'NONE', *, *, #25, .T. ) ;
#1079 = DIRECTION ( 'NONE',  ( 1.309225264888156130E-16, -1.000000000000000000, 0.000000000000000000 ) ) ;
#1080 = CARTESIAN_POINT ( 'NONE',  ( -12.99999999999999467, 14.00000000000000533, 5.999999999999998224 ) ) ;
#1081 = PLANE ( 'NONE',  #253 ) ;
#1082 = DIRECTION ( 'NONE',  ( 1.000000000000000000, 0.000000000000000000, -0.000000000000000000 ) ) ;
#1083 = EDGE_CURVE ( 'NONE', #907, #1193, #1097, .T. ) ;
#1084 = CARTESIAN_POINT ( 'NONE',  ( 18.00000000000001066, -33.00000000000000000, 15.19999999999999929 ) ) ;
#1085 = EDGE_LOOP ( 'NONE', ( #939, #143, #1034, #1095, #892, #1121, #555, #850 ) ) ;
#1086 = FACE_OUTER_BOUND ( 'NONE', #359, .T. ) ;
#1087 = AXIS2_PLACEMENT_3D ( 'NONE', #608, #1341, #404 ) ;
#1088 = VERTEX_POINT ( 'NONE', #982 ) ;
#1089 = CARTESIAN_POINT ( 'NONE',  ( 13.00000000000000888, -27.00000000000000711, 11.19999999999999929 ) ) ;
#1090 = CARTESIAN_POINT ( 'NONE',  ( -12.99999999999999467, -30.00000000000000711, 13.19999999999999929 ) ) ;
#1091 = EDGE_CURVE ( 'NONE', #119, #89, #679, .T. ) ;
#1092 = DIRECTION ( 'NONE',  ( -1.309225264888156130E-16, 1.000000000000000000, -0.000000000000000000 ) ) ;
#1093 = DIRECTION ( 'NONE',  ( -0.000000000000000000, -0.000000000000000000, -1.000000000000000000 ) ) ;
#1094 = EDGE_CURVE ( 'NONE', #730, #985, #998, .T. ) ;
#1095 = ORIENTED_EDGE ( 'NONE', *, *, #616, .F. ) ;
#1096 = PLANE ( 'NONE',  #58 ) ;
#1097 = LINE ( 'NONE', #795, #788 ) ;
#1098 = CARTESIAN_POINT ( 'NONE',  ( -12.99999999999999467, -12.49999999999999822, 11.19999999999999929 ) ) ;
#1099 = CARTESIAN_POINT ( 'NONE',  ( 8.000000000000008882, -30.00000000000000711, 9.199999999999999289 ) ) ;
#1100 = ORIENTED_EDGE ( 'NONE', *, *, #1155, .F. ) ;
#1101 = ADVANCED_FACE ( 'NONE', ( #152 ), #32, .F. ) ;
#1102 = CARTESIAN_POINT ( 'NONE',  ( -7.999999999999996447, 17.00000000000000355, 9.950000000000001066 ) ) ;
#1103 = DIRECTION ( 'NONE',  ( 0.000000000000000000, -1.000000000000000000, 0.000000000000000000 ) ) ;
#1104 = AXIS2_PLACEMENT_3D ( 'NONE', #1005, #62, #482 ) ;
#1105 = PLANE ( 'NONE',  #1137 ) ;
#1106 = CARTESIAN_POINT ( 'NONE',  ( -7.999999999999992895, -27.00000000000001066, 12.44999999999999929 ) ) ;
#1107 = ORIENTED_EDGE ( 'NONE', *, *, #260, .T. ) ;
#1108 = FACE_OUTER_BOUND ( 'NONE', #151, .T. ) ;
#1109 = DIRECTION ( 'NONE',  ( 0.000000000000000000, 0.000000000000000000, 1.000000000000000000 ) ) ;
#1110 = CIRCLE ( 'NONE', #521, 1.249999999999999334 ) ;
#1111 = VECTOR ( 'NONE', #314, 1000.000000000000000 ) ;
#1112 = CARTESIAN_POINT ( 'NONE',  ( 13.00000000000000888, -27.00000000000000711, 9.950000000000001066 ) ) ;
#1113 = DIRECTION ( 'NONE',  ( 0.000000000000000000, -1.000000000000000000, 0.000000000000000000 ) ) ;
#1114 = EDGE_CURVE ( 'NONE', #1054, #125, #1311, .T. ) ;
#1115 = CARTESIAN_POINT ( 'NONE',  ( -13.99999999999999467, 17.00000000000000355, 6.000000000000000000 ) ) ;
#1116 = FACE_OUTER_BOUND ( 'NONE', #263, .T. ) ;
#1117 = ORIENTED_EDGE ( 'NONE', *, *, #1141, .T. ) ;
#1118 = DIRECTION ( 'NONE',  ( 0.000000000000000000, 0.000000000000000000, 1.000000000000000000 ) ) ;
#1119 = FACE_OUTER_BOUND ( 'NONE', #734, .T. ) ;
#1120 = DIRECTION ( 'NONE',  ( 1.107270303814983294E-16, -1.000000000000000000, 0.000000000000000000 ) ) ;
#1121 = ORIENTED_EDGE ( 'NONE', *, *, #1013, .F. ) ;
#1122 = EDGE_CURVE ( 'NONE', #536, #718, #234, .T. ) ;
#1123 = PLANE ( 'NONE',  #318 ) ;
#1124 = ORIENTED_EDGE ( 'NONE', *, *, #485, .F. ) ;
#1125 = ORIENTED_EDGE ( 'NONE', *, *, #683, .T. ) ;
#1126 = EDGE_LOOP ( 'NONE', ( #212, #266, #272, #115 ) ) ;
#1127 = CARTESIAN_POINT ( 'NONE',  ( 0.000000000000000000, 0.000000000000000000, 15.19999999999999929 ) ) ;
#1128 = AXIS2_PLACEMENT_3D ( 'NONE', #257, #439, #646 ) ;
#1129 = DIRECTION ( 'NONE',  ( 1.000000000000000000, 0.000000000000000000, 0.000000000000000000 ) ) ;
#1130 = ORIENTED_EDGE ( 'NONE', *, *, #792, .F. ) ;
#1131 = EDGE_CURVE ( 'NONE', #973, #713, #53, .T. ) ;
#1132 = CARTESIAN_POINT ( 'NONE',  ( -2.999999999999995559, -27.00000000000000711, 9.199999999999999289 ) ) ;
#1133 = DIRECTION ( 'NONE',  ( 1.000000000000000000, 0.000000000000000000, 0.000000000000000000 ) ) ;
#1134 = CIRCLE ( 'NONE', #499, 1.249999999999999334 ) ;
#1135 = CARTESIAN_POINT ( 'NONE',  ( 2.500000000000003997, -33.00100000000000477, 9.950000000000001066 ) ) ;
#1136 = AXIS2_PLACEMENT_3D ( 'NONE', #1115, #554, #785 ) ;
#1137 = AXIS2_PLACEMENT_3D ( 'NONE', #163, #657, #693 ) ;
#1138 = PRODUCT_DEFINITION ( 'Êú', '', #56, #336 ) ;
#1139 = ORIENTED_EDGE ( 'NONE', *, *, #1224, .F. ) ;
#1140 = CARTESIAN_POINT ( 'NONE',  ( 2.500000000000003997, 14.00000000000000533, 11.19999999999999929 ) ) ;
#1141 = EDGE_CURVE ( 'NONE', #397, #822, #138, .T. ) ;
#1142 = CARTESIAN_POINT ( 'NONE',  ( 2.500000000000003997, 14.00000000000000533, 9.950000000000001066 ) ) ;
#1143 = VERTEX_POINT ( 'NONE', #900 ) ;
#1144 = DIRECTION ( 'NONE',  ( -0.000000000000000000, -1.000000000000000000, -0.000000000000000000 ) ) ;
#1145 = CARTESIAN_POINT ( 'NONE',  ( -12.99999999999999467, 14.00000000000000533, 5.999999999999998224 ) ) ;
#1146 = EDGE_CURVE ( 'NONE', #282, #773, #672, .T. ) ;
#1147 = ORIENTED_EDGE ( 'NONE', *, *, #467, .T. ) ;
#1148 = LINE ( 'NONE', #114, #1027 ) ;
#1149 = VECTOR ( 'NONE', #87, 1000.000000000000000 ) ;
#1150 = ORIENTED_EDGE ( 'NONE', *, *, #844, .F. ) ;
#1151 = CARTESIAN_POINT ( 'NONE',  ( 0.000000000000000000, 0.000000000000000000, 2.000000000000000000 ) ) ;
#1152 = SURFACE_STYLE_FILL_AREA ( #641 ) ;
#1153 = VERTEX_POINT ( 'NONE', #1183 ) ;
#1154 = CARTESIAN_POINT ( 'NONE',  ( -12.99999999999999467, -33.00000000000000000, 15.19999999999999929 ) ) ;
#1155 = EDGE_CURVE ( 'NONE', #1050, #285, #990, .T. ) ;
#1156 = CARTESIAN_POINT ( 'NONE',  ( 2.500000000000003997, -33.00100000000000477, 12.44999999999999929 ) ) ;
#1157 = ORIENTED_EDGE ( 'NONE', *, *, #1344, .T. ) ;
#1158 = LINE ( 'NONE', #627, #1111 ) ;
#1159 = CARTESIAN_POINT ( 'NONE',  ( 18.00000000000001066, -27.00000000000000711, 13.20000000000000284 ) ) ;
#1160 = ORIENTED_EDGE ( 'NONE', *, *, #996, .T. ) ;
#1161 = PLANE ( 'NONE',  #927 ) ;
#1162 = AXIS2_PLACEMENT_3D ( 'NONE', #375, #769, #459 ) ;
#1163 = ORIENTED_EDGE ( 'NONE', *, *, #513, .T. ) ;
#1164 = DIRECTION ( 'NONE',  ( 1.000000000000000000, 0.000000000000000000, 0.000000000000000000 ) ) ;
#1165 = DIRECTION ( 'NONE',  ( 0.000000000000000000, -0.000000000000000000, 1.000000000000000000 ) ) ;
#1166 = DIRECTION ( 'NONE',  ( 1.000000000000000000, 0.000000000000000000, -0.000000000000000000 ) ) ;
#1167 = ORIENTED_EDGE ( 'NONE', *, *, #1083, .F. ) ;
#1168 = ORIENTED_EDGE ( 'NONE', *, *, #567, .T. ) ;
#1169 = ORIENTED_EDGE ( 'NONE', *, *, #652, .F. ) ;
#1170 = DIRECTION ( 'NONE',  ( 5.782411586589358625E-16, -1.000000000000000000, 0.000000000000000000 ) ) ;
#1171 = DIRECTION ( 'NONE',  ( 1.000000000000000000, 0.000000000000000000, 0.000000000000000000 ) ) ;
#1172 = EDGE_CURVE ( 'NONE', #14, #722, #935, .T. ) ;
#1173 = ORIENTED_EDGE ( 'NONE', *, *, #852, .F. ) ;
#1174 = ORIENTED_EDGE ( 'NONE', *, *, #1300, .F. ) ;
#1175 = AXIS2_PLACEMENT_3D ( 'NONE', #1098, #901, #79 ) ;
#1176 = VECTOR ( 'NONE', #936, 1000.000000000000000 ) ;
#1177 = CYLINDRICAL_SURFACE ( 'NONE', #525, 1.249999999999999334 ) ;
#1178 = VECTOR ( 'NONE', #1188, 1000.000000000000000 ) ;
#1179 = AXIS2_PLACEMENT_3D ( 'NONE', #265, #686, #1007 ) ;
#1180 = LINE ( 'NONE', #694, #1003 ) ;
#1181 = ORIENTED_EDGE ( 'NONE', *, *, #150, .F. ) ;
#1182 = ORIENTED_EDGE ( 'NONE', *, *, #1094, .T. ) ;
#1183 = CARTESIAN_POINT ( 'NONE',  ( -12.99999999999999645, -33.00000000000000000, 9.199999999999999289 ) ) ;
#1184 = ADVANCED_FACE ( 'NONE', ( #1299 ), #37, .F. ) ;
#1185 = DIRECTION ( 'NONE',  ( -6.546126324440780651E-17, 1.000000000000000000, 0.000000000000000000 ) ) ;
#1186 = ORIENTED_EDGE ( 'NONE', *, *, #1338, .F. ) ;
#1187 = DIRECTION ( 'NONE',  ( 1.000000000000000000, 0.000000000000000000, 0.000000000000000000 ) ) ;
#1188 = DIRECTION ( 'NONE',  ( -1.000000000000000000, -0.000000000000000000, -0.000000000000000000 ) ) ;
#1189 = CARTESIAN_POINT ( 'NONE',  ( 20.00000000000000355, 20.00000000000000355, 15.19999999999999929 ) ) ;
#1190 = LINE ( 'NONE', #1084, #1061 ) ;
#1191 = EDGE_LOOP ( 'NONE', ( #568, #232, #738, #214 ) ) ;
#1192 = VECTOR ( 'NONE', #1212, 1000.000000000000000 ) ;
#1193 = VERTEX_POINT ( 'NONE', #1303 ) ;
#1194 = CARTESIAN_POINT ( 'NONE',  ( -15.00000000000000178, 20.00000000000000000, 15.19999999999999929 ) ) ;
#1195 = DIRECTION ( 'NONE',  ( 1.000000000000000000, -0.000000000000000000, 0.000000000000000000 ) ) ;
#1196 = EDGE_CURVE ( 'NONE', #6, #1208, #1205, .T. ) ;
#1197 = DIRECTION ( 'NONE',  ( -1.000000000000000000, -5.782411586589358625E-16, 0.000000000000000000 ) ) ;
#1198 = VECTOR ( 'NONE', #560, 1000.000000000000000 ) ;
#1199 = AXIS2_PLACEMENT_3D ( 'NONE', #1009, #65, #487 ) ;
#1200 = ORIENTED_EDGE ( 'NONE', *, *, #220, .T. ) ;
#1201 = LINE ( 'NONE', #684, #678 ) ;
#1202 = CARTESIAN_POINT ( 'NONE',  ( 13.00000000000000888, 14.00000000000000533, 9.950000000000001066 ) ) ;
#1203 = ORIENTED_EDGE ( 'NONE', *, *, #1013, .T. ) ;
#1204 = ORIENTED_EDGE ( 'NONE', *, *, #320, .T. ) ;
#1205 = LINE ( 'NONE', #574, #749 ) ;
#1206 = PLANE ( 'NONE',  #1179 ) ;
#1207 = ORIENTED_EDGE ( 'NONE', *, *, #150, .T. ) ;
#1208 = VERTEX_POINT ( 'NONE', #360 ) ;
#1209 = DIRECTION ( 'NONE',  ( 1.000000000000000000, -0.000000000000000000, 0.000000000000000000 ) ) ;
#1210 = LINE ( 'NONE', #586, #787 ) ;
#1211 = EDGE_CURVE ( 'NONE', #985, #660, #781, .T. ) ;
#1212 = DIRECTION ( 'NONE',  ( -0.000000000000000000, -0.000000000000000000, 1.000000000000000000 ) ) ;
#1213 = VECTOR ( 'NONE', #1220, 1000.000000000000000 ) ;
#1214 = LINE ( 'NONE', #512, #854 ) ;
#1215 = LINE ( 'NONE', #251, #77 ) ;
#1216 = CARTESIAN_POINT ( 'NONE',  ( -13.99999999999998934, -29.99999999999999645, 6.000000000000000000 ) ) ;
#1217 = LINE ( 'NONE', #274, #1351 ) ;
#1218 = ORIENTED_EDGE ( 'NONE', *, *, #462, .T. ) ;
#1219 = VECTOR ( 'NONE', #148, 1000.000000000000000 ) ;
#1220 = DIRECTION ( 'NONE',  ( -1.000000000000000000, -9.912705577010325549E-17, -0.000000000000000000 ) ) ;
#1221 = VECTOR ( 'NONE', #1056, 1000.000000000000000 ) ;
#1222 = CARTESIAN_POINT ( 'NONE',  ( 13.00000000000000888, 14.00000000000000533, 12.44999999999999929 ) ) ;
#1223 = DIRECTION ( 'NONE',  ( 2.214540607629966834E-16, -1.000000000000000000, 0.000000000000000000 ) ) ;
#1224 = EDGE_CURVE ( 'NONE', #285, #84, #1201, .T. ) ;
#1225 = ORIENTED_EDGE ( 'NONE', *, *, #200, .F. ) ;
#1226 = DIRECTION ( 'NONE',  ( 0.000000000000000000, 0.000000000000000000, -1.000000000000000000 ) ) ;
#1227 = EDGE_LOOP ( 'NONE', ( #666, #95, #1160, #507 ) ) ;
#1228 = ORIENTED_EDGE ( 'NONE', *, *, #446, .F. ) ;
#1229 = ADVANCED_FACE ( 'NONE', ( #236 ), #1105, .T. ) ;
#1230 = CARTESIAN_POINT ( 'NONE',  ( 18.00000000000001066, -30.00000000000000711, 13.19999999999999929 ) ) ;
#1231 = ORIENTED_EDGE ( 'NONE', *, *, #505, .F. ) ;
#1232 = FACE_BOUND ( 'NONE', #10, .T. ) ;
#1233 = FACE_BOUND ( 'NONE', #78, .T. ) ;
#1234 = DIRECTION ( 'NONE',  ( 0.000000000000000000, 0.000000000000000000, -1.000000000000000000 ) ) ;
#1235 = DIRECTION ( 'NONE',  ( -0.000000000000000000, 0.000000000000000000, -1.000000000000000000 ) ) ;
#1236 = EDGE_CURVE ( 'NONE', #533, #746, #1214, .T. ) ;
#1237 = ORIENTED_EDGE ( 'NONE', *, *, #667, .T. ) ;
#1238 = AXIS2_PLACEMENT_3D ( 'NONE', #81, #1335, #824 ) ;
#1239 = VECTOR ( 'NONE', #1195, 1000.000000000000000 ) ;
#1240 = EDGE_LOOP ( 'NONE', ( #954, #1302, #488, #1207 ) ) ;
#1241 = VECTOR ( 'NONE', #763, 1000.000000000000000 ) ;
#1242 = AXIS2_PLACEMENT_3D ( 'NONE', #261, #784, #154 ) ;
#1243 = VECTOR ( 'NONE', #165, 1000.000000000000000 ) ;
#1244 = DIRECTION ( 'NONE',  ( -0.000000000000000000, 1.000000000000000000, -0.000000000000000000 ) ) ;
#1245 = ORIENTED_EDGE ( 'NONE', *, *, #225, .F. ) ;
#1246 = LINE ( 'NONE', #748, #1221 ) ;
#1247 = ORIENTED_EDGE ( 'NONE', *, *, #852, .T. ) ;
#1248 = DIRECTION ( 'NONE',  ( 0.000000000000000000, 0.000000000000000000, -1.000000000000000000 ) ) ;
#1249 = CARTESIAN_POINT ( 'NONE',  ( -12.99999999999999822, 20.00000000000000355, 15.19999999999999929 ) ) ;
#1250 = VERTEX_POINT ( 'NONE', #702 ) ;
#1251 = CARTESIAN_POINT ( 'NONE',  ( -12.99999999999999645, 17.00000000000000355, 9.199999999999999289 ) ) ;
#1252 = PLANE ( 'NONE',  #669 ) ;
#1253 = ORIENTED_EDGE ( 'NONE', *, *, #64, .T. ) ;
#1254 = CARTESIAN_POINT ( 'NONE',  ( -13.99999999999999467, 17.00000000000000355, 6.000000000000000000 ) ) ;
#1255 = ADVANCED_FACE ( 'NONE', ( #1119 ), #1026, .T. ) ;
#1256 = ORIENTED_EDGE ( 'NONE', *, *, #889, .T. ) ;
#1257 = LINE ( 'NONE', #431, #498 ) ;
#1258 = ORIENTED_EDGE ( 'NONE', *, *, #756, .F. ) ;
#1259 = CARTESIAN_POINT ( 'NONE',  ( 20.00000000000001066, -33.00000000000000000, 2.000000000000000000 ) ) ;
#1260 = FACE_OUTER_BOUND ( 'NONE', #584, .T. ) ;
#1261 = DIRECTION ( 'NONE',  ( -0.000000000000000000, 0.000000000000000000, 1.000000000000000000 ) ) ;
#1262 = ORIENTED_EDGE ( 'NONE', *, *, #838, .F. ) ;
#1263 = VECTOR ( 'NONE', #506, 1000.000000000000000 ) ;
#1264 = ORIENTED_EDGE ( 'NONE', *, *, #1073, .T. ) ;
#1265 = LINE ( 'NONE', #1049, #1331 ) ;
#1266 = AXIS2_PLACEMENT_3D ( 'NONE', #1347, #433, #12 ) ;
#1267 = EDGE_CURVE ( 'NONE', #966, #276, #178, .T. ) ;
#1268 = VERTEX_POINT ( 'NONE', #497 ) ;
#1269 = CARTESIAN_POINT ( 'NONE',  ( -12.99999999999999467, 14.00000000000000533, 12.99999999999999822 ) ) ;
#1270 = DIRECTION ( 'NONE',  ( 1.309225264888156130E-16, -1.000000000000000000, 0.000000000000000000 ) ) ;
#1271 = ORIENTED_EDGE ( 'NONE', *, *, #753, .F. ) ;
#1272 = LINE ( 'NONE', #1254, #184 ) ;
#1273 = EDGE_CURVE ( 'NONE', #67, #322, #1337, .T. ) ;
#1274 = CARTESIAN_POINT ( 'NONE',  ( -2.999999999999995559, -27.00000000000000711, -2.201754250991384332 ) ) ;
#1275 = ORIENTED_EDGE ( 'NONE', *, *, #541, .T. ) ;
#1276 = CARTESIAN_POINT ( 'NONE',  ( 18.00000000000001066, 20.00000000000000355, 9.199999999999999289 ) ) ;
#1277 = LINE ( 'NONE', #1047, #1287 ) ;
#1278 = ORIENTED_EDGE ( 'NONE', *, *, #553, .T. ) ;
#1279 = ORIENTED_EDGE ( 'NONE', *, *, #1091, .F. ) ;
#1280 = PLANE ( 'NONE',  #1063 ) ;
#1281 = APPLICATION_CONTEXT ( 'automotive_design' ) ;
#1282 = EDGE_CURVE ( 'NONE', #276, #533, #400, .T. ) ;
#1283 = LINE ( 'NONE', #1071, #1350 ) ;
#1284 = ORIENTED_EDGE ( 'NONE', *, *, #354, .T. ) ;
#1285 = LINE ( 'NONE', #775, #18 ) ;
#1286 = CARTESIAN_POINT ( 'NONE',  ( 0.000000000000000000, 0.000000000000000000, 13.19999999999999929 ) ) ;
#1287 = VECTOR ( 'NONE', #203, 1000.000000000000000 ) ;
#1288 = VECTOR ( 'NONE', #477, 1000.000000000000000 ) ;
#1289 = PLANE ( 'NONE',  #146 ) ;
#1290 = CARTESIAN_POINT ( 'NONE',  ( 18.00000000000001066, 17.00000000000000355, 9.199999999999999289 ) ) ;
#1291 = EDGE_LOOP ( 'NONE', ( #959, #416, #17, #1182 ) ) ;
#1292 = CARTESIAN_POINT ( 'NONE',  ( -15.00000000000000178, 20.00000000000000000, 15.19999999999999929 ) ) ;
#1293 = VECTOR ( 'NONE', #1079, 1000.000000000000000 ) ;
#1294 = CARTESIAN_POINT ( 'NONE',  ( -12.99999999999999467, -30.00000000000000711, 13.19999999999999929 ) ) ;
#1295 = ORIENTED_EDGE ( 'NONE', *, *, #606, .F. ) ;
#1296 = DIRECTION ( 'NONE',  ( -1.000000000000000000, -6.546126324440781884E-17, 0.000000000000000000 ) ) ;
#1297 = EDGE_CURVE ( 'NONE', #300, #660, #1215, .T. ) ;
#1298 = VERTEX_POINT ( 'NONE', #1090 ) ;
#1299 = FACE_OUTER_BOUND ( 'NONE', #1240, .T. ) ;
#1300 = EDGE_CURVE ( 'NONE', #204, #907, #572, .T. ) ;
#1301 = CARTESIAN_POINT ( 'NONE',  ( -15.00000000000000178, 20.00000000000000000, 2.000000000000000000 ) ) ;
#1302 = ORIENTED_EDGE ( 'NONE', *, *, #1122, .T. ) ;
#1303 = CARTESIAN_POINT ( 'NONE',  ( 18.00000000000001066, 14.00000000000000533, 13.00000000000000000 ) ) ;
#1304 = CARTESIAN_POINT ( 'NONE',  ( -12.99999999999999645, 17.00000000000000355, 13.00000000000000000 ) ) ;
#1305 = DIRECTION ( 'NONE',  ( 0.000000000000000000, 0.000000000000000000, 1.000000000000000000 ) ) ;
#1306 = VECTOR ( 'NONE', #97, 1000.000000000000000 ) ;
#1307 = ORIENTED_EDGE ( 'NONE', *, *, #243, .T. ) ;
#1308 = VECTOR ( 'NONE', #377, 1000.000000000000000 ) ;
#1309 = DIRECTION ( 'NONE',  ( -0.000000000000000000, -1.000000000000000000, -0.000000000000000000 ) ) ;
#1310 = EDGE_LOOP ( 'NONE', ( #1150, #133 ) ) ;
#1311 = LINE ( 'NONE', #1292, #1033 ) ;
#1312 = DIRECTION ( 'NONE',  ( 1.309225264888156130E-16, -1.000000000000000000, 0.000000000000000000 ) ) ;
#1313 = ADVANCED_FACE ( 'NONE', ( #259 ), #680, .F. ) ;
#1314 = ORIENTED_EDGE ( 'NONE', *, *, #118, .T. ) ;
#1315 = CARTESIAN_POINT ( 'NONE',  ( 0.000000000000000000, 0.000000000000000000, 15.19999999999999929 ) ) ;
#1316 = FACE_BOUND ( 'NONE', #423, .T. ) ;
#1317 = CARTESIAN_POINT ( 'NONE',  ( 2.500000000000003997, 14.00000000000000533, 12.44999999999999929 ) ) ;
#1318 = EDGE_LOOP ( 'NONE', ( #228, #1107, #450, #957 ) ) ;
#1319 = LINE ( 'NONE', #372, #988 ) ;
#1320 = VERTEX_POINT ( 'NONE', #1132 ) ;
#1321 = VERTEX_POINT ( 'NONE', #807 ) ;
#1322 = EDGE_CURVE ( 'NONE', #907, #276, #905, .T. ) ;
#1323 = PLANE ( 'NONE',  #343 ) ;
#1324 = CARTESIAN_POINT ( 'NONE',  ( 19.00000000000000711, 17.00000000000000355, 6.000000000000000000 ) ) ;
#1325 = ORIENTED_EDGE ( 'NONE', *, *, #703, .T. ) ;
#1326 = DIRECTION ( 'NONE',  ( 0.000000000000000000, 0.000000000000000000, 1.000000000000000000 ) ) ;
#1327 = CARTESIAN_POINT ( 'NONE',  ( 18.00000000000001066, -30.00000000000000711, 13.19999999999999929 ) ) ;
#1328 = CIRCLE ( 'NONE', #130, 1.249999999999999334 ) ;
#1329 = VERTEX_POINT ( 'NONE', #277 ) ;
#1330 = EDGE_CURVE ( 'NONE', #746, #966, #190, .T. ) ;
#1331 = VECTOR ( 'NONE', #846, 1000.000000000000000 ) ;
#1332 = CARTESIAN_POINT ( 'NONE',  ( -7.999999999999996447, -33.00100000000000477, 12.44999999999999929 ) ) ;
#1333 = VERTEX_POINT ( 'NONE', #1102 ) ;
#1334 = DIRECTION ( 'NONE',  ( -1.000000000000000000, -0.000000000000000000, -0.000000000000000000 ) ) ;
#1335 = DIRECTION ( 'NONE',  ( 0.000000000000000000, 1.000000000000000000, 0.000000000000000000 ) ) ;
#1336 = CYLINDRICAL_SURFACE ( 'NONE', #429, 1.249999999999999334 ) ;
#1337 = LINE ( 'NONE', #921, #1263 ) ;
#1338 = EDGE_CURVE ( 'NONE', #36, #1208, #715, .T. ) ;
#1339 = DIRECTION ( 'NONE',  ( -0.000000000000000000, -1.000000000000000000, -0.000000000000000000 ) ) ;
#1340 = ORIENTED_EDGE ( 'NONE', *, *, #1338, .T. ) ;
#1341 = DIRECTION ( 'NONE',  ( 1.119176436114069085E-16, -1.000000000000000000, 0.000000000000000000 ) ) ;
#1342 = DIRECTION ( 'NONE',  ( 0.000000000000000000, -0.000000000000000000, -1.000000000000000000 ) ) ;
#1343 = DIRECTION ( 'NONE',  ( 0.000000000000000000, 0.000000000000000000, -1.000000000000000000 ) ) ;
#1344 = EDGE_CURVE ( 'NONE', #106, #966, #493, .T. ) ;
#1345 = AXIS2_PLACEMENT_3D ( 'NONE', #427, #851, #964 ) ;
#1346 = ORIENTED_EDGE ( 'NONE', *, *, #134, .T. ) ;
#1347 = CARTESIAN_POINT ( 'NONE',  ( -13.99999999999998934, -29.99999999999999645, 6.000000000000000000 ) ) ;
#1348 = CARTESIAN_POINT ( 'NONE',  ( 13.00000000000000888, -23.46446609406726935, 12.44999999999999929 ) ) ;
#1349 = DIRECTION ( 'NONE',  ( -1.119176436114069085E-16, 1.000000000000000000, -0.000000000000000000 ) ) ;
#1350 = VECTOR ( 'NONE', #648, 1000.000000000000000 ) ;
#1351 = VECTOR ( 'NONE', #695, 1000.000000000000000 ) ;
#1352 = CARTESIAN_POINT ( 'NONE',  ( 0.000000000000000000, 0.000000000000000000, 9.199999999999999289 ) ) ;
#1353 = ORIENTED_EDGE ( 'NONE', *, *, #518, .F. ) ;
#1354 = ADVANCED_FACE ( 'NONE', ( #474 ), #706, .F. ) ;
#1355 = CARTESIAN_POINT ( 'NONE',  ( -12.99999999999999467, 14.00000000000000533, 46.34482300479488259 ) ) ;
#1356 = DIRECTION ( 'NONE',  ( -1.000000000000000000, -1.309225264888156130E-16, 0.000000000000000000 ) ) ;
#1357 = ORIENTED_EDGE ( 'NONE', *, *, #864, .F. ) ;
#1358 = CARTESIAN_POINT ( 'NONE',  ( -12.99999999999999467, -27.00000000000001066, 13.19999999999999929 ) ) ;
#1359 = EDGE_CURVE ( 'NONE', #607, #426, #209, .T. ) ;
ENDSEC;
END-ISO-10303-21;
