ISO-10303-21;
HEADER;
FILE_DESCRIPTION (( 'STEP AP214' ),
    '1' );
FILE_NAME ('³äµçµ××ù.STEP',
    '2026-08-16T01:19:00',
    ( '' ),
    ( '' ),
    'SwSTEP 2.0',
    'SolidWorks 2025',
    '' );
FILE_SCHEMA (( 'AUTOMOTIVE_DESIGN' ));
ENDSEC;

DATA;
#1 = DIRECTION ( 'NONE',  ( -0.000000000000000000, -0.000000000000000000, -1.000000000000000000 ) ) ;
#2 = CARTESIAN_POINT ( 'NONE',  ( 0.000000000000000000, -55.00000000000000000, 6.000000000000000000 ) ) ;
#3 = VERTEX_POINT ( 'NONE', #324 ) ;
#4 = VERTEX_POINT ( 'NONE', #607 ) ;
#5 = DIRECTION ( 'NONE',  ( 1.182766006347823109E-16, 1.000000000000000000, 0.000000000000000000 ) ) ;
#6 = EDGE_CURVE ( 'NONE', #788, #554, #544, .T. ) ;
#7 = VECTOR ( 'NONE', #547, 1000.000000000000000 ) ;
#8 = FACE_OUTER_BOUND ( 'NONE', #352, .T. ) ;
#9 = VECTOR ( 'NONE', #745, 1000.000000000000000 ) ;
#10 = VERTEX_POINT ( 'NONE', #168 ) ;
#11 = EDGE_CURVE ( 'NONE', #813, #492, #158, .T. ) ;
#12 = PLANE ( 'NONE',  #288 ) ;
#13 = CARTESIAN_POINT ( 'NONE',  ( -22.25000000000001066, 43.50000000000000711, 6.000000000000000000 ) ) ;
#14 = DIRECTION ( 'NONE',  ( 1.734723475976804136E-16, 1.000000000000000000, -0.000000000000000000 ) ) ;
#15 = CARTESIAN_POINT ( 'NONE',  ( 20.99999999999998934, 43.50000000000000711, 6.000000000000000000 ) ) ;
#16 = FACE_OUTER_BOUND ( 'NONE', #154, .T. ) ;
#17 = FACE_OUTER_BOUND ( 'NONE', #202, .T. ) ;
#18 = ORIENTED_EDGE ( 'NONE', *, *, #441, .F. ) ;
#19 = CARTESIAN_POINT ( 'NONE',  ( -14.99999999999999289, 44.00000000000000711, 5.000000000000000000 ) ) ;
#20 = DIRECTION ( 'NONE',  ( 0.000000000000000000, 1.000000000000000000, 0.000000000000000000 ) ) ;
#21 = DIRECTION ( 'NONE',  ( -0.000000000000000000, -0.000000000000000000, 1.000000000000000000 ) ) ;
#22 = VERTEX_POINT ( 'NONE', #532 ) ;
#23 = AXIS2_PLACEMENT_3D ( 'NONE', #38, #49, #638 ) ;
#24 = LINE ( 'NONE', #30, #372 ) ;
#25 = AXIS2_PLACEMENT_3D ( 'NONE', #459, #21, #235 ) ;
#26 = EDGE_CURVE ( 'NONE', #494, #798, #900, .T. ) ;
#27 = CARTESIAN_POINT ( 'NONE',  ( -30.00000000000000355, -6.000000000000005329, -0.000000000000000000 ) ) ;
#28 = DIRECTION ( 'NONE',  ( -0.000000000000000000, -0.000000000000000000, -1.000000000000000000 ) ) ;
#29 = ORIENTED_EDGE ( 'NONE', *, *, #796, .T. ) ;
#30 = CARTESIAN_POINT ( 'NONE',  ( 30.00000000000000355, 3.784851220313033947E-15, 0.000000000000000000 ) ) ;
#31 = CARTESIAN_POINT ( 'NONE',  ( 21.00000000000000711, -43.50000000000000711, 6.000000000000000000 ) ) ;
#32 = VERTEX_POINT ( 'NONE', #104 ) ;
#33 = FACE_OUTER_BOUND ( 'NONE', #727, .T. ) ;
#34 = DIRECTION ( 'NONE',  ( -1.000000000000000000, 0.000000000000000000, 0.000000000000000000 ) ) ;
#35 = EDGE_CURVE ( 'NONE', #591, #59, #687, .T. ) ;
#36 = LINE ( 'NONE', #913, #764 ) ;
#37 = EDGE_LOOP ( 'NONE', ( #910, #132, #792, #177 ) ) ;
#38 = CARTESIAN_POINT ( 'NONE',  ( 1.040834085586082482E-15, 6.000000000000000000, 3.000000000000000000 ) ) ;
#39 = VECTOR ( 'NONE', #308, 1000.000000000000000 ) ;
#40 = EDGE_CURVE ( 'NONE', #32, #302, #24, .T. ) ;
#41 = VECTOR ( 'NONE', #63, 1000.000000000000000 ) ;
#42 = CARTESIAN_POINT ( 'NONE',  ( -22.25000000000001066, 43.50000000000000711, 6.000000000000000000 ) ) ;
#43 = CARTESIAN_POINT ( 'NONE',  ( 10.00000000000000711, 44.00000000000000711, 3.000000000000000000 ) ) ;
#44 = VERTEX_POINT ( 'NONE', #248 ) ;
#45 = DIRECTION ( 'NONE',  ( -1.182766006347823109E-16, -1.000000000000000000, 0.000000000000000000 ) ) ;
#46 = APPLICATION_PROTOCOL_DEFINITION ( 'draft international standard', 'automotive_design', 1998, #221 ) ;
#47 = DIRECTION ( 'NONE',  ( -0.000000000000000000, -0.000000000000000000, -1.000000000000000000 ) ) ;
#48 = EDGE_LOOP ( 'NONE', ( #65, #448, #157, #363 ) ) ;
#49 = DIRECTION ( 'NONE',  ( -1.734723475976804136E-16, -1.000000000000000000, 0.000000000000000000 ) ) ;
#50 = ORIENTED_EDGE ( 'NONE', *, *, #842, .T. ) ;
#51 = ADVANCED_FACE ( 'NONE', ( #528 ), #233, .F. ) ;
#52 = EDGE_LOOP ( 'NONE', ( #443, #914, #390, #464 ) ) ;
#53 = CARTESIAN_POINT ( 'NONE',  ( 0.000000000000000000, 0.000000000000000000, 5.000000000000000000 ) ) ;
#54 = ORIENTED_EDGE ( 'NONE', *, *, #770, .F. ) ;
#55 = CARTESIAN_POINT ( 'NONE',  ( -22.25000000000001066, 43.50000000000000711, 3.000000000000000000 ) ) ;
#56 = VECTOR ( 'NONE', #349, 1000.000000000000000 ) ;
#57 = ADVANCED_FACE ( 'NONE', ( #672 ), #752, .F. ) ;
#58 =( GEOMETRIC_REPRESENTATION_CONTEXT ( 3 ) GLOBAL_UNCERTAINTY_ASSIGNED_CONTEXT ( ( #600 ) ) GLOBAL_UNIT_ASSIGNED_CONTEXT ( ( #374, #369, #932 ) ) REPRESENTATION_CONTEXT ( 'NONE', 'WORKASPACE' ) );
#59 = VERTEX_POINT ( 'NONE', #603 ) ;
#60 = LINE ( 'NONE', #358, #580 ) ;
#61 = EDGE_LOOP ( 'NONE', ( #264, #543, #944, #865 ) ) ;
#62 = ADVANCED_FACE ( 'NONE', ( #832, #95, #619, #86, #174 ), #12, .T. ) ;
#63 = DIRECTION ( 'NONE',  ( -0.000000000000000000, -0.000000000000000000, -1.000000000000000000 ) ) ;
#64 = VERTEX_POINT ( 'NONE', #393 ) ;
#65 = ORIENTED_EDGE ( 'NONE', *, *, #159, .F. ) ;
#66 = CARTESIAN_POINT ( 'NONE',  ( 27.49999999999999645, 50.00000000000000000, 0.000000000000000000 ) ) ;
#67 = ORIENTED_EDGE ( 'NONE', *, *, #283, .T. ) ;
#68 = LINE ( 'NONE', #442, #579 ) ;
#69 = EDGE_LOOP ( 'NONE', ( #426, #73, #670, #628 ) ) ;
#70 = SURFACE_STYLE_FILL_AREA ( #365 ) ;
#71 = EDGE_CURVE ( 'NONE', #885, #835, #683, .T. ) ;
#72 = CYLINDRICAL_SURFACE ( 'NONE', #489, 1.250000000000001110 ) ;
#73 = ORIENTED_EDGE ( 'NONE', *, *, #510, .T. ) ;
#74 = VECTOR ( 'NONE', #162, 1000.000000000000000 ) ;
#75 = FACE_OUTER_BOUND ( 'NONE', #413, .T. ) ;
#76 = VECTOR ( 'NONE', #953, 1000.000000000000000 ) ;
#77 = DIRECTION ( 'NONE',  ( 0.000000000000000000, 0.000000000000000000, -1.000000000000000000 ) ) ;
#78 = EDGE_LOOP ( 'NONE', ( #560, #663, #873, #137 ) ) ;
#79 = PLANE ( 'NONE',  #417 ) ;
#80 = CARTESIAN_POINT ( 'NONE',  ( -27.50000000000000711, -50.00000000000000000, 0.000000000000000000 ) ) ;
#81 = EDGE_LOOP ( 'NONE', ( #934, #615, #642, #376 ) ) ;
#82 = EDGE_CURVE ( 'NONE', #255, #206, #385, .T. ) ;
#83 = CARTESIAN_POINT ( 'NONE',  ( 21.00000000000000711, -43.50000000000000711, 3.000000000000000000 ) ) ;
#84 = DIRECTION ( 'NONE',  ( -1.000000000000000000, 0.000000000000000000, 0.000000000000000000 ) ) ;
#85 = ORIENTED_EDGE ( 'NONE', *, *, #709, .T. ) ;
#86 = FACE_BOUND ( 'NONE', #452, .T. ) ;
#87 = EDGE_CURVE ( 'NONE', #591, #788, #643, .T. ) ;
#88 = FACE_OUTER_BOUND ( 'NONE', #357, .T. ) ;
#89 = AXIS2_PLACEMENT_3D ( 'NONE', #265, #632, #852 ) ;
#90 = CARTESIAN_POINT ( 'NONE',  ( -22.25000000000000000, -43.50000000000000711, 3.000000000000000000 ) ) ;
#91 = AXIS2_PLACEMENT_3D ( 'NONE', #454, #825, #537 ) ;
#92 = DIRECTION ( 'NONE',  ( -0.000000000000000000, -0.000000000000000000, -1.000000000000000000 ) ) ;
#93 = CARTESIAN_POINT ( 'NONE',  ( -27.50000000000000711, -6.000000000000006217, 3.000000000000000000 ) ) ;
#94 = PLANE ( 'NONE',  #917 ) ;
#95 = FACE_BOUND ( 'NONE', #482, .T. ) ;
#96 = CARTESIAN_POINT ( 'NONE',  ( 0.000000000000000000, 0.000000000000000000, 0.000000000000000000 ) ) ;
#97 = DIRECTION ( 'NONE',  ( -1.000000000000000000, 1.734723475976804136E-16, 0.000000000000000000 ) ) ;
#98 = EDGE_LOOP ( 'NONE', ( #786, #699, #924, #790, #67, #587, #724, #831 ) ) ;
#99 = EDGE_CURVE ( 'NONE', #813, #558, #895, .T. ) ;
#100 = VERTEX_POINT ( 'NONE', #551 ) ;
#101 = LINE ( 'NONE', #850, #659 ) ;
#102 = ORIENTED_EDGE ( 'NONE', *, *, #344, .T. ) ;
#103 = VECTOR ( 'NONE', #129, 1000.000000000000000 ) ;
#104 = CARTESIAN_POINT ( 'NONE',  ( 29.99999999999999645, 55.00000000000000000, 0.000000000000000000 ) ) ;
#105 = AXIS2_PLACEMENT_3D ( 'NONE', #446, #535, #736 ) ;
#106 = DIRECTION ( 'NONE',  ( -1.000000000000000000, 0.000000000000000000, 0.000000000000000000 ) ) ;
#107 = VERTEX_POINT ( 'NONE', #343 ) ;
#108 = CARTESIAN_POINT ( 'NONE',  ( -20.99999999999999645, -43.50000000000000711, 3.000000000000000000 ) ) ;
#109 = EDGE_CURVE ( 'NONE', #274, #380, #256, .T. ) ;
#110 = CARTESIAN_POINT ( 'NONE',  ( -30.00000000000000355, -6.000000000000005329, 6.000000000000000000 ) ) ;
#111 = DIRECTION ( 'NONE',  ( -0.000000000000000000, -0.000000000000000000, -1.000000000000000000 ) ) ;
#112 = ORIENTED_EDGE ( 'NONE', *, *, #281, .F. ) ;
#113 = PLANE ( 'NONE',  #259 ) ;
#114 = CARTESIAN_POINT ( 'NONE',  ( 22.25000000000001066, -43.50000000000000711, 6.000000000000000000 ) ) ;
#115 = LINE ( 'NONE', #843, #779 ) ;
#116 = ORIENTED_EDGE ( 'NONE', *, *, #241, .F. ) ;
#117 = EDGE_CURVE ( 'NONE', #107, #368, #423, .T. ) ;
#118 = CARTESIAN_POINT ( 'NONE',  ( -27.50000000000000711, -50.00000000000000000, 0.000000000000000000 ) ) ;
#119 = VECTOR ( 'NONE', #45, 1000.000000000000000 ) ;
#120 = AXIS2_PLACEMENT_3D ( 'NONE', #557, #111, #775 ) ;
#121 = VECTOR ( 'NONE', #480, 1000.000000000000000 ) ;
#122 = CARTESIAN_POINT ( 'NONE',  ( -19.74999999999999645, -43.50000000000000711, 3.000000000000000000 ) ) ;
#123 = ORIENTED_EDGE ( 'NONE', *, *, #936, .T. ) ;
#124 = EDGE_CURVE ( 'NONE', #10, #890, #882, .T. ) ;
#125 = PLANE ( 'NONE',  #89 ) ;
#126 = ORIENTED_EDGE ( 'NONE', *, *, #40, .T. ) ;
#127 = DIRECTION ( 'NONE',  ( -1.387778780781445676E-16, -1.000000000000000000, 0.000000000000000000 ) ) ;
#128 = ORIENTED_EDGE ( 'NONE', *, *, #171, .T. ) ;
#129 = DIRECTION ( 'NONE',  ( -1.000000000000000000, 1.734723475976804136E-16, 0.000000000000000000 ) ) ;
#130 = EDGE_CURVE ( 'NONE', #798, #44, #338, .T. ) ;
#131 = DIRECTION ( 'NONE',  ( 0.000000000000000000, 0.000000000000000000, -1.000000000000000000 ) ) ;
#132 = ORIENTED_EDGE ( 'NONE', *, *, #404, .F. ) ;
#133 = LINE ( 'NONE', #293, #673 ) ;
#134 = VECTOR ( 'NONE', #692, 1000.000000000000000 ) ;
#135 = VECTOR ( 'NONE', #463, 1000.000000000000000 ) ;
#136 = AXIS2_PLACEMENT_3D ( 'NONE', #53, #131, #791 ) ;
#137 = ORIENTED_EDGE ( 'NONE', *, *, #833, .F. ) ;
#138 = DIRECTION ( 'NONE',  ( -0.000000000000000000, -0.000000000000000000, -1.000000000000000000 ) ) ;
#139 = ORIENTED_EDGE ( 'NONE', *, *, #109, .T. ) ;
#140 = PLANE ( 'NONE',  #488 ) ;
#141 = ADVANCED_FACE ( 'NONE', ( #334 ), #769, .T. ) ;
#142 = ORIENTED_EDGE ( 'NONE', *, *, #796, .F. ) ;
#143 = CARTESIAN_POINT ( 'NONE',  ( -30.00000000000000355, 6.000000000000005329, 3.000000000000000000 ) ) ;
#144 = CARTESIAN_POINT ( 'NONE',  ( -29.99999999999999645, -55.00000000000000000, 0.000000000000000000 ) ) ;
#145 = EDGE_CURVE ( 'NONE', #562, #576, #925, .T. ) ;
#146 = ORIENTED_EDGE ( 'NONE', *, *, #431, .T. ) ;
#147 = LINE ( 'NONE', #503, #933 ) ;
#148 = FACE_BOUND ( 'NONE', #497, .T. ) ;
#149 = ORIENTED_EDGE ( 'NONE', *, *, #364, .F. ) ;
#150 = CIRCLE ( 'NONE', #319, 1.250000000000001110 ) ;
#151 = DIRECTION ( 'NONE',  ( 0.000000000000000000, 0.000000000000000000, 1.000000000000000000 ) ) ;
#152 = PRESENTATION_LAYER_ASSIGNMENT (  '', '', ( #566 ) ) ;
#153 = DIRECTION ( 'NONE',  ( -0.000000000000000000, -0.000000000000000000, -1.000000000000000000 ) ) ;
#154 = EDGE_LOOP ( 'NONE', ( #550, #200, #359, #522 ) ) ;
#155 = DIRECTION ( 'NONE',  ( 1.000000000000000000, -1.182766006347823109E-16, 0.000000000000000000 ) ) ;
#156 = PLANE ( 'NONE',  #644 ) ;
#157 = ORIENTED_EDGE ( 'NONE', *, *, #26, .T. ) ;
#158 = LINE ( 'NONE', #836, #916 ) ;
#159 = EDGE_CURVE ( 'NONE', #940, #44, #559, .T. ) ;
#160 = CARTESIAN_POINT ( 'NONE',  ( 19.75000000000000711, -43.50000000000000711, 3.000000000000000000 ) ) ;
#161 = CARTESIAN_POINT ( 'NONE',  ( 0.000000000000000000, 44.00000000000000711, 5.000000000000000000 ) ) ;
#162 = DIRECTION ( 'NONE',  ( -0.000000000000000000, -0.000000000000000000, -1.000000000000000000 ) ) ;
#163 = CARTESIAN_POINT ( 'NONE',  ( 0.000000000000000000, 50.00000000000000000, 0.000000000000000000 ) ) ;
#164 = VECTOR ( 'NONE', #490, 1000.000000000000000 ) ;
#165 = CYLINDRICAL_SURFACE ( 'NONE', #610, 1.250000000000001110 ) ;
#166 = VECTOR ( 'NONE', #866, 1000.000000000000000 ) ;
#167 = AXIS2_PLACEMENT_3D ( 'NONE', #203, #711, #296 ) ;
#168 = CARTESIAN_POINT ( 'NONE',  ( -19.75000000000000711, 43.50000000000000711, 6.000000000000000000 ) ) ;
#169 = PRODUCT_DEFINITION_CONTEXT ( 'detailed design', #582, 'design' ) ;
#170 = LINE ( 'NONE', #449, #660 ) ;
#171 = EDGE_CURVE ( 'NONE', #606, #407, #414, .T. ) ;
#172 = CARTESIAN_POINT ( 'NONE',  ( 9.999999999999996447, -44.00000000000000711, 3.000000000000000000 ) ) ;
#173 = ORIENTED_EDGE ( 'NONE', *, *, #938, .T. ) ;
#174 = FACE_BOUND ( 'NONE', #436, .T. ) ;
#175 = LINE ( 'NONE', #774, #323 ) ;
#176 = LINE ( 'NONE', #2, #196 ) ;
#177 = ORIENTED_EDGE ( 'NONE', *, *, #311, .T. ) ;
#178 = DIRECTION ( 'NONE',  ( -0.000000000000000000, -0.000000000000000000, -1.000000000000000000 ) ) ;
#179 = DIRECTION ( 'NONE',  ( -1.182766006347823109E-16, -1.000000000000000000, 0.000000000000000000 ) ) ;
#180 = DIRECTION ( 'NONE',  ( -1.577021341797097067E-16, -1.000000000000000000, 0.000000000000000000 ) ) ;
#181 = ORIENTED_EDGE ( 'NONE', *, *, #364, .T. ) ;
#182 = VECTOR ( 'NONE', #549, 1000.000000000000000 ) ;
#183 = DIRECTION ( 'NONE',  ( 1.000000000000000000, 0.000000000000000000, 0.000000000000000000 ) ) ;
#184 = ADVANCED_FACE ( 'NONE', ( #840 ), #125, .T. ) ;
#185 = PRODUCT_DEFINITION ( 'æœ', '', #800, #169 ) ;
#186 = DIRECTION ( 'NONE',  ( 1.261617073437677999E-16, -1.000000000000000000, 0.000000000000000000 ) ) ;
#187 = LINE ( 'NONE', #257, #227 ) ;
#188 = ORIENTED_EDGE ( 'NONE', *, *, #361, .F. ) ;
#189 = LINE ( 'NONE', #777, #119 ) ;
#190 = DIRECTION ( 'NONE',  ( 1.261617073437677999E-16, -1.000000000000000000, 0.000000000000000000 ) ) ;
#191 = ORIENTED_EDGE ( 'NONE', *, *, #639, .T. ) ;
#192 = LINE ( 'NONE', #118, #164 ) ;
#193 = CARTESIAN_POINT ( 'NONE',  ( -15.00000000000000000, 2.365532012695645428E-15, 3.000000000000000000 ) ) ;
#194 = ORIENTED_EDGE ( 'NONE', *, *, #763, .F. ) ;
#195 = CARTESIAN_POINT ( 'NONE',  ( 27.49999999999999645, 50.00000000000000000, 0.000000000000000000 ) ) ;
#196 = VECTOR ( 'NONE', #889, 1000.000000000000000 ) ;
#197 = VECTOR ( 'NONE', #1, 1000.000000000000000 ) ;
#198 = EDGE_CURVE ( 'NONE', #252, #22, #192, .T. ) ;
#199 = CYLINDRICAL_SURFACE ( 'NONE', #457, 1.250000000000001110 ) ;
#200 = ORIENTED_EDGE ( 'NONE', *, *, #763, .T. ) ;
#201 = CARTESIAN_POINT ( 'NONE',  ( -19.75000000000000711, 43.50000000000000711, 3.000000000000000000 ) ) ;
#202 = EDGE_LOOP ( 'NONE', ( #191, #286, #278, #538 ) ) ;
#203 = CARTESIAN_POINT ( 'NONE',  ( -20.99999999999999645, -43.50000000000000711, 6.000000000000000000 ) ) ;
#204 = ORIENTED_EDGE ( 'NONE', *, *, #230, .F. ) ;
#205 = CARTESIAN_POINT ( 'NONE',  ( -29.99999999999999645, -55.00000000000000000, 6.000000000000000000 ) ) ;
#206 = VERTEX_POINT ( 'NONE', #201 ) ;
#207 = CARTESIAN_POINT ( 'NONE',  ( -15.00000000000000711, -44.00000000000000711, 5.000000000000000000 ) ) ;
#208 = ORIENTED_EDGE ( 'NONE', *, *, #6, .T. ) ;
#209 = LINE ( 'NONE', #367, #518 ) ;
#210 = EDGE_CURVE ( 'NONE', #722, #514, #496, .T. ) ;
#211 = AXIS2_PLACEMENT_3D ( 'NONE', #15, #906, #312 ) ;
#212 = VECTOR ( 'NONE', #771, 1000.000000000000000 ) ;
#213 = ORIENTED_EDGE ( 'NONE', *, *, #82, .T. ) ;
#214 = CARTESIAN_POINT ( 'NONE',  ( -18.00000000000000355, 6.000000000000003553, 6.000000000000000000 ) ) ;
#215 = ORIENTED_EDGE ( 'NONE', *, *, #109, .F. ) ;
#216 = DIRECTION ( 'NONE',  ( -0.000000000000000000, 0.000000000000000000, 1.000000000000000000 ) ) ;
#217 = VERTEX_POINT ( 'NONE', #859 ) ;
#218 = PLANE ( 'NONE',  #594 ) ;
#219 = FACE_BOUND ( 'NONE', #564, .T. ) ;
#220 = ORIENTED_EDGE ( 'NONE', *, *, #596, .F. ) ;
#221 = APPLICATION_CONTEXT ( 'automotive_design' ) ;
#222 = CARTESIAN_POINT ( 'NONE',  ( -30.00000000000000355, -3.784851220313033947E-15, 6.000000000000000000 ) ) ;
#223 = ADVANCED_FACE ( 'NONE', ( #33 ), #113, .T. ) ;
#224 = CARTESIAN_POINT ( 'NONE',  ( -30.00000000000000355, -3.784851220313033947E-15, 0.000000000000000000 ) ) ;
#225 = ORIENTED_EDGE ( 'NONE', *, *, #589, .T. ) ;
#226 = AXIS2_PLACEMENT_3D ( 'NONE', #758, #469, #456 ) ;
#227 = VECTOR ( 'NONE', #493, 1000.000000000000000 ) ;
#228 = DIRECTION ( 'NONE',  ( -1.000000000000000000, 0.000000000000000000, 0.000000000000000000 ) ) ;
#229 = VECTOR ( 'NONE', #626, 1000.000000000000000 ) ;
#230 = EDGE_CURVE ( 'NONE', #59, #554, #795, .T. ) ;
#231 = DIRECTION ( 'NONE',  ( -1.000000000000000000, 0.000000000000000000, 0.000000000000000000 ) ) ;
#232 = EDGE_LOOP ( 'NONE', ( #146, #128 ) ) ;
#233 = PLANE ( 'NONE',  #565 ) ;
#234 = PLANE ( 'NONE',  #105 ) ;
#235 = DIRECTION ( 'NONE',  ( -1.000000000000000000, 0.000000000000000000, 0.000000000000000000 ) ) ;
#236 = ORIENTED_EDGE ( 'NONE', *, *, #479, .T. ) ;
#237 = EDGE_LOOP ( 'NONE', ( #776, #817, #397, #720 ) ) ;
#238 = PLANE ( 'NONE',  #886 ) ;
#239 = DIRECTION ( 'NONE',  ( -1.000000000000000000, 0.000000000000000000, 0.000000000000000000 ) ) ;
#240 = DIRECTION ( 'NONE',  ( -1.000000000000000000, 0.000000000000000000, 0.000000000000000000 ) ) ;
#241 = EDGE_CURVE ( 'NONE', #940, #494, #732, .T. ) ;
#242 = DIRECTION ( 'NONE',  ( -0.000000000000000000, -0.000000000000000000, -1.000000000000000000 ) ) ;
#243 = VECTOR ( 'NONE', #812, 1000.000000000000000 ) ;
#244 = EDGE_CURVE ( 'NONE', #316, #813, #189, .T. ) ;
#245 = DIRECTION ( 'NONE',  ( -0.000000000000000000, -0.000000000000000000, -1.000000000000000000 ) ) ;
#246 = AXIS2_PLACEMENT_3D ( 'NONE', #894, #396, #685 ) ;
#247 = ORIENTED_EDGE ( 'NONE', *, *, #269, .T. ) ;
#248 = CARTESIAN_POINT ( 'NONE',  ( 22.25000000000001066, -43.50000000000000711, 3.000000000000000000 ) ) ;
#249 = PRODUCT ( '\X2\514575355e955ea7\X0\', '\X2\514575355e955ea7\X0\', '', ( #634 ) ) ;
#250 =( NAMED_UNIT ( * ) PLANE_ANGLE_UNIT ( ) SI_UNIT ( $, .RADIAN. ) );
#251 = DIRECTION ( 'NONE',  ( -1.000000000000000000, 0.000000000000000000, 0.000000000000000000 ) ) ;
#252 = VERTEX_POINT ( 'NONE', #272 ) ;
#253 = ORIENTED_EDGE ( 'NONE', *, *, #117, .T. ) ;
#254 = CARTESIAN_POINT ( 'NONE',  ( 19.74999999999998934, 43.50000000000000711, 6.000000000000000000 ) ) ;
#255 = VERTEX_POINT ( 'NONE', #55 ) ;
#256 = LINE ( 'NONE', #268, #778 ) ;
#257 = CARTESIAN_POINT ( 'NONE',  ( -22.25000000000000000, -43.50000000000000711, 6.000000000000000000 ) ) ;
#258 = ORIENTED_EDGE ( 'NONE', *, *, #462, .T. ) ;
#259 = AXIS2_PLACEMENT_3D ( 'NONE', #416, #784, #629 ) ;
#260 = EDGE_CURVE ( 'NONE', #788, #591, #150, .T. ) ;
#261 = DIRECTION ( 'NONE',  ( -0.000000000000000000, 0.000000000000000000, 1.000000000000000000 ) ) ;
#262 = EDGE_CURVE ( 'NONE', #494, #940, #701, .T. ) ;
#263 = PLANE ( 'NONE',  #373 ) ;
#264 = ORIENTED_EDGE ( 'NONE', *, *, #842, .F. ) ;
#265 = CARTESIAN_POINT ( 'NONE',  ( 0.000000000000000000, 50.00000000000000000, 3.000000000000000000 ) ) ;
#266 = CARTESIAN_POINT ( 'NONE',  ( 22.24999999999999289, 43.50000000000000711, 3.000000000000000000 ) ) ;
#267 = ORIENTED_EDGE ( 'NONE', *, *, #902, .T. ) ;
#268 = CARTESIAN_POINT ( 'NONE',  ( -30.00000000000000355, -3.784851220313033947E-15, 6.000000000000000000 ) ) ;
#269 = EDGE_CURVE ( 'NONE', #316, #581, #478, .T. ) ;
#270 = CYLINDRICAL_SURFACE ( 'NONE', #120, 1.250000000000001110 ) ;
#271 = ORIENTED_EDGE ( 'NONE', *, *, #693, .F. ) ;
#272 = CARTESIAN_POINT ( 'NONE',  ( -27.50000000000000711, -50.00000000000000000, 0.000000000000000000 ) ) ;
#273 = VECTOR ( 'NONE', #656, 1000.000000000000000 ) ;
#274 = VERTEX_POINT ( 'NONE', #645 ) ;
#275 = DIRECTION ( 'NONE',  ( -0.000000000000000000, -0.000000000000000000, -1.000000000000000000 ) ) ;
#276 = EDGE_LOOP ( 'NONE', ( #951, #955 ) ) ;
#277 = CARTESIAN_POINT ( 'NONE',  ( -27.50000000000000355, 6.000000000000004441, 3.000000000000000000 ) ) ;
#278 = ORIENTED_EDGE ( 'NONE', *, *, #877, .F. ) ;
#279 = FACE_OUTER_BOUND ( 'NONE', #928, .T. ) ;
#280 = ORIENTED_EDGE ( 'NONE', *, *, #244, .T. ) ;
#281 = EDGE_CURVE ( 'NONE', #252, #487, #935, .T. ) ;
#282 = PLANE ( 'NONE',  #747 ) ;
#283 = EDGE_CURVE ( 'NONE', #517, #487, #726, .T. ) ;
#284 = EDGE_LOOP ( 'NONE', ( #524, #208, #204, #402 ) ) ;
#285 = PLANE ( 'NONE',  #290 ) ;
#286 = ORIENTED_EDGE ( 'NONE', *, *, #667, .T. ) ;
#287 = CARTESIAN_POINT ( 'NONE',  ( -21.00000000000000711, 43.50000000000000711, 6.000000000000000000 ) ) ;
#288 = AXIS2_PLACEMENT_3D ( 'NONE', #465, #599, #822 ) ;
#289 = AXIS2_PLACEMENT_3D ( 'NONE', #741, #379, #251 ) ;
#290 = AXIS2_PLACEMENT_3D ( 'NONE', #214, #668, #515 ) ;
#291 = ORIENTED_EDGE ( 'NONE', *, *, #833, .T. ) ;
#292 = DIRECTION ( 'NONE',  ( -1.387778780781445676E-16, -1.000000000000000000, 0.000000000000000000 ) ) ;
#293 = CARTESIAN_POINT ( 'NONE',  ( 0.000000000000000000, -50.00000000000000000, -0.000000000000000000 ) ) ;
#294 = ORIENTED_EDGE ( 'NONE', *, *, #569, .F. ) ;
#295 = EDGE_CURVE ( 'NONE', #107, #64, #651, .T. ) ;
#296 = DIRECTION ( 'NONE',  ( -1.000000000000000000, 0.000000000000000000, 0.000000000000000000 ) ) ;
#297 = DIRECTION ( 'NONE',  ( -1.000000000000000000, 0.000000000000000000, 0.000000000000000000 ) ) ;
#298 = ORIENTED_EDGE ( 'NONE', *, *, #952, .F. ) ;
#299 = ADVANCED_FACE ( 'NONE', ( #572 ), #140, .T. ) ;
#300 = CYLINDRICAL_SURFACE ( 'NONE', #674, 1.250000000000001110 ) ;
#301 = LINE ( 'NONE', #669, #135 ) ;
#302 = VERTEX_POINT ( 'NONE', #723 ) ;
#303 = VECTOR ( 'NONE', #292, 1000.000000000000000 ) ;
#304 = DIRECTION ( 'NONE',  ( -1.000000000000000000, 0.000000000000000000, 0.000000000000000000 ) ) ;
#305 = AXIS2_PLACEMENT_3D ( 'NONE', #96, #395, #684 ) ;
#306 = LINE ( 'NONE', #665, #827 ) ;
#307 = ORIENTED_EDGE ( 'NONE', *, *, #462, .F. ) ;
#308 = DIRECTION ( 'NONE',  ( -0.000000000000000000, -0.000000000000000000, -1.000000000000000000 ) ) ;
#309 = CARTESIAN_POINT ( 'NONE',  ( 9.999999999999996447, -44.00000000000000711, 5.000000000000000000 ) ) ;
#310 = CARTESIAN_POINT ( 'NONE',  ( -27.50000000000000711, -50.00000000000000000, 3.000000000000000000 ) ) ;
#311 = EDGE_CURVE ( 'NONE', #328, #383, #950, .T. ) ;
#312 = DIRECTION ( 'NONE',  ( 1.000000000000000000, 0.000000000000000000, 0.000000000000000000 ) ) ;
#313 = PRODUCT_RELATED_PRODUCT_CATEGORY ( 'part', '', ( #249 ) ) ;
#314 = LINE ( 'NONE', #604, #197 ) ;
#315 = LINE ( 'NONE', #161, #9 ) ;
#316 = VERTEX_POINT ( 'NONE', #577 ) ;
#317 = CARTESIAN_POINT ( 'NONE',  ( -21.00000000000000711, 43.50000000000000711, 6.000000000000000000 ) ) ;
#318 = DIRECTION ( 'NONE',  ( 0.000000000000000000, -0.000000000000000000, 1.000000000000000000 ) ) ;
#319 = AXIS2_PLACEMENT_3D ( 'NONE', #789, #353, #183 ) ;
#320 = CARTESIAN_POINT ( 'NONE',  ( 20.99999999999998934, 43.50000000000000711, 3.000000000000000000 ) ) ;
#321 = AXIS2_PLACEMENT_3D ( 'NONE', #808, #512, #793 ) ;
#322 = VERTEX_POINT ( 'NONE', #427 ) ;
#323 = VECTOR ( 'NONE', #34, 1000.000000000000000 ) ;
#324 = CARTESIAN_POINT ( 'NONE',  ( -27.50000000000000355, 50.00000000000000000, 0.000000000000000000 ) ) ;
#325 = ADVANCED_FACE ( 'NONE', ( #864 ), #500, .T. ) ;
#326 = DIRECTION ( 'NONE',  ( 0.000000000000000000, 0.000000000000000000, 1.000000000000000000 ) ) ;
#327 = DIRECTION ( 'NONE',  ( 3.469446951953614189E-17, 1.000000000000000000, 0.000000000000000000 ) ) ;
#328 = VERTEX_POINT ( 'NONE', #719 ) ;
#329 = DIRECTION ( 'NONE',  ( -0.000000000000000000, -0.000000000000000000, -1.000000000000000000 ) ) ;
#330 = CARTESIAN_POINT ( 'NONE',  ( -0.000000000000000000, 55.00000000000000000, 0.000000000000000000 ) ) ;
#331 = EDGE_CURVE ( 'NONE', #322, #576, #872, .T. ) ;
#332 = CARTESIAN_POINT ( 'NONE',  ( -27.50000000000000355, 50.00000000000000000, 0.000000000000000000 ) ) ;
#333 = ORIENTED_EDGE ( 'NONE', *, *, #117, .F. ) ;
#334 = FACE_OUTER_BOUND ( 'NONE', #502, .T. ) ;
#335 = DIRECTION ( 'NONE',  ( -0.000000000000000000, -0.000000000000000000, -1.000000000000000000 ) ) ;
#336 = CARTESIAN_POINT ( 'NONE',  ( -18.00000000000000355, 6.000000000000003553, 3.000000000000000000 ) ) ;
#337 = ORIENTED_EDGE ( 'NONE', *, *, #839, .T. ) ;
#338 = CIRCLE ( 'NONE', #578, 1.250000000000001110 ) ;
#339 = AXIS2_PLACEMENT_3D ( 'NONE', #630, #476, #412 ) ;
#340 = CARTESIAN_POINT ( 'NONE',  ( 22.25000000000001066, -43.50000000000000711, 6.000000000000000000 ) ) ;
#341 = LINE ( 'NONE', #406, #182 ) ;
#342 = VERTEX_POINT ( 'NONE', #731 ) ;
#343 = CARTESIAN_POINT ( 'NONE',  ( -27.50000000000000355, 6.000000000000005329, 0.000000000000000000 ) ) ;
#344 = EDGE_CURVE ( 'NONE', #492, #217, #68, .T. ) ;
#345 = EDGE_CURVE ( 'NONE', #691, #252, #133, .T. ) ;
#346 =( NAMED_UNIT ( * ) SI_UNIT ( $, .STERADIAN. ) SOLID_ANGLE_UNIT ( ) );
#347 = ORIENTED_EDGE ( 'NONE', *, *, #739, .T. ) ;
#348 = CARTESIAN_POINT ( 'NONE',  ( 29.99999999999999645, 55.00000000000000000, 6.000000000000000000 ) ) ;
#349 = DIRECTION ( 'NONE',  ( -0.000000000000000000, -0.000000000000000000, -1.000000000000000000 ) ) ;
#350 = ORIENTED_EDGE ( 'NONE', *, *, #921, .F. ) ;
#351 = FACE_OUTER_BOUND ( 'NONE', #419, .T. ) ;
#352 = EDGE_LOOP ( 'NONE', ( #173, #29, #647, #194, #438, #783 ) ) ;
#353 = DIRECTION ( 'NONE',  ( -0.000000000000000000, 0.000000000000000000, 1.000000000000000000 ) ) ;
#354 = CIRCLE ( 'NONE', #534, 1.250000000000001110 ) ;
#355 = VECTOR ( 'NONE', #179, 1000.000000000000000 ) ;
#356 = ADVANCED_FACE ( 'NONE', ( #360, #875, #648, #219, #148, #447 ), #282, .T. ) ;
#357 = EDGE_LOOP ( 'NONE', ( #757, #50, #504, #298 ) ) ;
#358 = CARTESIAN_POINT ( 'NONE',  ( -27.50000000000000711, -50.00000000000000000, 3.000000000000000000 ) ) ;
#359 = ORIENTED_EDGE ( 'NONE', *, *, #361, .T. ) ;
#360 = FACE_OUTER_BOUND ( 'NONE', #98, .T. ) ;
#361 = EDGE_CURVE ( 'NONE', #926, #383, #575, .T. ) ;
#362 = ORIENTED_EDGE ( 'NONE', *, *, #344, .F. ) ;
#363 = ORIENTED_EDGE ( 'NONE', *, *, #839, .F. ) ;
#364 = EDGE_CURVE ( 'NONE', #380, #880, #209, .T. ) ;
#365 = FILL_AREA_STYLE ('',( #878 ) ) ;
#366 = EDGE_LOOP ( 'NONE', ( #213, #942 ) ) ;
#367 = CARTESIAN_POINT ( 'NONE',  ( -30.00000000000000355, 6.000000000000005329, 6.000000000000000000 ) ) ;
#368 = VERTEX_POINT ( 'NONE', #737 ) ;
#369 =( NAMED_UNIT ( * ) PLANE_ANGLE_UNIT ( ) SI_UNIT ( $, .RADIAN. ) );
#370 = CARTESIAN_POINT ( 'NONE',  ( -20.99999999999999645, -43.50000000000000711, 6.000000000000000000 ) ) ;
#371 = ORIENTED_EDGE ( 'NONE', *, *, #697, .T. ) ;
#372 = VECTOR ( 'NONE', #892, 1000.000000000000000 ) ;
#373 = AXIS2_PLACEMENT_3D ( 'NONE', #909, #837, #553 ) ;
#374 =( LENGTH_UNIT ( ) NAMED_UNIT ( * ) SI_UNIT ( .MILLI., .METRE. ) );
#375 = DIRECTION ( 'NONE',  ( -1.000000000000000000, 0.000000000000000000, 0.000000000000000000 ) ) ;
#376 = ORIENTED_EDGE ( 'NONE', *, *, #441, .T. ) ;
#377 = EDGE_CURVE ( 'NONE', #890, #10, #735, .T. ) ;
#378 = DIRECTION ( 'NONE',  ( -1.000000000000000000, 0.000000000000000000, 0.000000000000000000 ) ) ;
#379 = DIRECTION ( 'NONE',  ( -0.000000000000000000, -0.000000000000000000, 1.000000000000000000 ) ) ;
#380 = VERTEX_POINT ( 'NONE', #805 ) ;
#381 = CYLINDRICAL_SURFACE ( 'NONE', #536, 1.250000000000001110 ) ;
#382 = PLANE ( 'NONE',  #91 ) ;
#383 = VERTEX_POINT ( 'NONE', #144 ) ;
#384 = CARTESIAN_POINT ( 'NONE',  ( 0.000000000000000000, -50.00000000000000000, 3.000000000000000000 ) ) ;
#385 = CIRCLE ( 'NONE', #226, 1.250000000000001110 ) ;
#386 = VECTOR ( 'NONE', #327, 1000.000000000000000 ) ;
#387 = CARTESIAN_POINT ( 'NONE',  ( -18.00000000000000355, 6.000000000000003553, 6.000000000000000000 ) ) ;
#388 = ADVANCED_FACE ( 'NONE', ( #437 ), #72, .F. ) ;
#389 = DIRECTION ( 'NONE',  ( 3.469446951953613573E-17, 1.000000000000000000, 0.000000000000000000 ) ) ;
#390 = ORIENTED_EDGE ( 'NONE', *, *, #35, .T. ) ;
#391 = DIRECTION ( 'NONE',  ( 1.000000000000000000, 1.261617073437677999E-16, -0.000000000000000000 ) ) ;
#392 = FACE_OUTER_BOUND ( 'NONE', #439, .T. ) ;
#393 = CARTESIAN_POINT ( 'NONE',  ( -27.50000000000000355, 6.000000000000005329, 3.000000000000000000 ) ) ;
#394 = EDGE_CURVE ( 'NONE', #206, #255, #703, .T. ) ;
#395 = DIRECTION ( 'NONE',  ( -0.000000000000000000, 0.000000000000000000, 1.000000000000000000 ) ) ;
#396 = DIRECTION ( 'NONE',  ( -0.000000000000000000, 0.000000000000000000, 1.000000000000000000 ) ) ;
#397 = ORIENTED_EDGE ( 'NONE', *, *, #734, .T. ) ;
#398 = ORIENTED_EDGE ( 'NONE', *, *, #529, .F. ) ;
#399 = EDGE_CURVE ( 'NONE', #4, #606, #883, .T. ) ;
#400 = LINE ( 'NONE', #927, #386 ) ;
#401 = MECHANICAL_DESIGN_GEOMETRIC_PRESENTATION_REPRESENTATION (  '', ( #566 ), #58 ) ;
#402 = ORIENTED_EDGE ( 'NONE', *, *, #35, .F. ) ;
#403 = CARTESIAN_POINT ( 'NONE',  ( 19.74999999999998934, 43.50000000000000711, 6.000000000000000000 ) ) ;
#404 = EDGE_CURVE ( 'NONE', #342, #302, #306, .T. ) ;
#405 = LINE ( 'NONE', #42, #887 ) ;
#406 = CARTESIAN_POINT ( 'NONE',  ( -30.00000000000001066, 55.00000000000000000, 6.000000000000000000 ) ) ;
#407 = VERTEX_POINT ( 'NONE', #90 ) ;
#408 = DIRECTION ( 'NONE',  ( 0.000000000000000000, 0.000000000000000000, 1.000000000000000000 ) ) ;
#409 = LINE ( 'NONE', #193, #229 ) ;
#410 = ORIENTED_EDGE ( 'NONE', *, *, #295, .T. ) ;
#411 = DIRECTION ( 'NONE',  ( 1.000000000000000000, 0.000000000000000000, 0.000000000000000000 ) ) ;
#412 = DIRECTION ( 'NONE',  ( 1.000000000000000000, 0.000000000000000000, 0.000000000000000000 ) ) ;
#413 = EDGE_LOOP ( 'NONE', ( #220, #307, #280, #715 ) ) ;
#414 = CIRCLE ( 'NONE', #899, 1.250000000000001110 ) ;
#415 = CIRCLE ( 'NONE', #25, 1.250000000000001110 ) ;
#416 = CARTESIAN_POINT ( 'NONE',  ( -15.00000000000000000, 2.365532012695645428E-15, 5.000000000000000000 ) ) ;
#417 = AXIS2_PLACEMENT_3D ( 'NONE', #749, #391, #520 ) ;
#418 = DIRECTION ( 'NONE',  ( 1.000000000000000000, 0.000000000000000000, 0.000000000000000000 ) ) ;
#419 = EDGE_LOOP ( 'NONE', ( #271, #215, #225, #772 ) ) ;
#420 = CARTESIAN_POINT ( 'NONE',  ( 21.00000000000000711, -43.50000000000000711, 3.000000000000000000 ) ) ;
#421 = ORIENTED_EDGE ( 'NONE', *, *, #87, .F. ) ;
#422 = ORIENTED_EDGE ( 'NONE', *, *, #620, .F. ) ;
#423 = LINE ( 'NONE', #484, #103 ) ;
#424 = ADVANCED_FACE ( 'NONE', ( #392 ), #165, .F. ) ;
#425 = ORIENTED_EDGE ( 'NONE', *, *, #908, .F. ) ;
#426 = ORIENTED_EDGE ( 'NONE', *, *, #399, .F. ) ;
#427 = CARTESIAN_POINT ( 'NONE',  ( -18.00000000000000355, -6.000000000000005329, 6.000000000000000000 ) ) ;
#428 = AXIS2_PLACEMENT_3D ( 'NONE', #845, #920, #411 ) ;
#429 = VECTOR ( 'NONE', #531, 1000.000000000000000 ) ;
#430 = AXIS2_PLACEMENT_3D ( 'NONE', #689, #326, #617 ) ;
#431 = EDGE_CURVE ( 'NONE', #407, #606, #415, .T. ) ;
#432 = ORIENTED_EDGE ( 'NONE', *, *, #639, .F. ) ;
#433 = DIRECTION ( 'NONE',  ( -1.000000000000000000, 0.000000000000000000, 0.000000000000000000 ) ) ;
#434 = ORIENTED_EDGE ( 'NONE', *, *, #130, .F. ) ;
#435 = DIRECTION ( 'NONE',  ( 3.469446951953613573E-17, 1.000000000000000000, 0.000000000000000000 ) ) ;
#436 = EDGE_LOOP ( 'NONE', ( #539, #622 ) ) ;
#437 = FACE_OUTER_BOUND ( 'NONE', #821, .T. ) ;
#438 = ORIENTED_EDGE ( 'NONE', *, *, #739, .F. ) ;
#439 = EDGE_LOOP ( 'NONE', ( #527, #946, #434, #473 ) ) ;
#440 = DIRECTION ( 'NONE',  ( -1.000000000000000000, 0.000000000000000000, 0.000000000000000000 ) ) ;
#441 = EDGE_CURVE ( 'NONE', #637, #32, #526, .T. ) ;
#442 = CARTESIAN_POINT ( 'NONE',  ( -0.000000000000000000, -44.00000000000000711, 3.000000000000000000 ) ) ;
#443 = ORIENTED_EDGE ( 'NONE', *, *, #6, .F. ) ;
#444 = AXIS2_PLACEMENT_3D ( 'NONE', #317, #178, #677 ) ;
#445 = AXIS2_PLACEMENT_3D ( 'NONE', #588, #155, #5 ) ;
#446 = CARTESIAN_POINT ( 'NONE',  ( 27.49999999999999645, 50.00000000000000000, 0.000000000000000000 ) ) ;
#447 = FACE_BOUND ( 'NONE', #809, .T. ) ;
#448 = ORIENTED_EDGE ( 'NONE', *, *, #241, .T. ) ;
#449 = CARTESIAN_POINT ( 'NONE',  ( 27.49999999999998224, -50.00000000000000000, 0.000000000000000000 ) ) ;
#450 = DIRECTION ( 'NONE',  ( -0.000000000000000000, -0.000000000000000000, -1.000000000000000000 ) ) ;
#451 = ORIENTED_EDGE ( 'NONE', *, *, #71, .T. ) ;
#452 = EDGE_LOOP ( 'NONE', ( #421, #931 ) ) ;
#453 = DIRECTION ( 'NONE',  ( -0.000000000000000000, -0.000000000000000000, 1.000000000000000000 ) ) ;
#454 = CARTESIAN_POINT ( 'NONE',  ( 0.000000000000000000, -55.00000000000000000, 6.000000000000000000 ) ) ;
#455 = VERTEX_POINT ( 'NONE', #466 ) ;
#456 = DIRECTION ( 'NONE',  ( -1.000000000000000000, 0.000000000000000000, 0.000000000000000000 ) ) ;
#457 = AXIS2_PLACEMENT_3D ( 'NONE', #31, #28, #486 ) ;
#458 = FACE_OUTER_BOUND ( 'NONE', #905, .T. ) ;
#459 = CARTESIAN_POINT ( 'NONE',  ( -20.99999999999999645, -43.50000000000000711, 3.000000000000000000 ) ) ;
#460 = DIRECTION ( 'NONE',  ( 0.000000000000000000, -0.000000000000000000, -1.000000000000000000 ) ) ;
#461 = PLANE ( 'NONE',  #305 ) ;
#462 = EDGE_CURVE ( 'NONE', #316, #885, #315, .T. ) ;
#463 = DIRECTION ( 'NONE',  ( 1.000000000000000000, -1.445602896647339163E-16, 0.000000000000000000 ) ) ;
#464 = ORIENTED_EDGE ( 'NONE', *, *, #513, .F. ) ;
#465 = CARTESIAN_POINT ( 'NONE',  ( 0.000000000000000000, 0.000000000000000000, 6.000000000000000000 ) ) ;
#466 = CARTESIAN_POINT ( 'NONE',  ( -22.25000000000000000, -43.50000000000000711, 6.000000000000000000 ) ) ;
#467 = EDGE_LOOP ( 'NONE', ( #710, #654, #258, #451 ) ) ;
#468 = ADVANCED_FACE ( 'NONE', ( #751 ), #382, .F. ) ;
#469 = DIRECTION ( 'NONE',  ( -0.000000000000000000, -0.000000000000000000, 1.000000000000000000 ) ) ;
#470 = ADVANCED_FACE ( 'NONE', ( #17 ), #602, .T. ) ;
#471 = VECTOR ( 'NONE', #418, 1000.000000000000000 ) ;
#472 = CARTESIAN_POINT ( 'NONE',  ( 0.000000000000000000, 55.00000000000000000, 6.000000000000000000 ) ) ;
#473 = ORIENTED_EDGE ( 'NONE', *, *, #26, .F. ) ;
#474 = CARTESIAN_POINT ( 'NONE',  ( 21.00000000000000711, -43.50000000000000711, 6.000000000000000000 ) ) ;
#475 = DIRECTION ( 'NONE',  ( 1.000000000000000000, 0.000000000000000000, 0.000000000000000000 ) ) ;
#476 = DIRECTION ( 'NONE',  ( -0.000000000000000000, 0.000000000000000000, 1.000000000000000000 ) ) ;
#477 = ORIENTED_EDGE ( 'NONE', *, *, #541, .T. ) ;
#478 = LINE ( 'NONE', #801, #533 ) ;
#479 = EDGE_CURVE ( 'NONE', #328, #342, #176, .T. ) ;
#480 = DIRECTION ( 'NONE',  ( 1.000000000000000000, -1.734723475976804136E-16, 0.000000000000000000 ) ) ;
#481 = LINE ( 'NONE', #704, #854 ) ;
#482 = EDGE_LOOP ( 'NONE', ( #729, #116 ) ) ;
#483 = EDGE_CURVE ( 'NONE', #937, #328, #830, .T. ) ;
#484 = CARTESIAN_POINT ( 'NONE',  ( 1.040834085586082482E-15, 6.000000000000000000, 0.000000000000000000 ) ) ;
#485 = LINE ( 'NONE', #846, #491 ) ;
#486 = DIRECTION ( 'NONE',  ( -1.000000000000000000, 0.000000000000000000, 0.000000000000000000 ) ) ;
#487 = VERTEX_POINT ( 'NONE', #310 ) ;
#488 = AXIS2_PLACEMENT_3D ( 'NONE', #941, #945, #435 ) ;
#489 = AXIS2_PLACEMENT_3D ( 'NONE', #370, #450, #239 ) ;
#490 = DIRECTION ( 'NONE',  ( 3.469446951953614189E-17, 1.000000000000000000, 0.000000000000000000 ) ) ;
#491 = VECTOR ( 'NONE', #186, 1000.000000000000000 ) ;
#492 = VERTEX_POINT ( 'NONE', #172 ) ;
#493 = DIRECTION ( 'NONE',  ( -0.000000000000000000, -0.000000000000000000, -1.000000000000000000 ) ) ;
#494 = VERTEX_POINT ( 'NONE', #760 ) ;
#495 = EDGE_CURVE ( 'NONE', #64, #562, #301, .T. ) ;
#496 = LINE ( 'NONE', #195, #592 ) ;
#497 = EDGE_LOOP ( 'NONE', ( #584, #337 ) ) ;
#498 = DIRECTION ( 'NONE',  ( -1.261617073437677999E-16, 1.000000000000000000, 0.000000000000000000 ) ) ;
#499 = ORIENTED_EDGE ( 'NONE', *, *, #11, .F. ) ;
#500 = PLANE ( 'NONE',  #321 ) ;
#501 = ADVANCED_FACE ( 'NONE', ( #8 ), #94, .T. ) ;
#502 = EDGE_LOOP ( 'NONE', ( #333, #410, #571, #898, #149, #686 ) ) ;
#503 = CARTESIAN_POINT ( 'NONE',  ( 0.000000000000000000, 50.00000000000000000, 3.000000000000000000 ) ) ;
#504 = ORIENTED_EDGE ( 'NONE', *, *, #82, .F. ) ;
#505 = DIRECTION ( 'NONE',  ( -0.000000000000000000, -0.000000000000000000, -1.000000000000000000 ) ) ;
#506 = AXIS2_PLACEMENT_3D ( 'NONE', #555, #911, #713 ) ;
#507 = DIRECTION ( 'NONE',  ( -0.000000000000000000, -0.000000000000000000, -1.000000000000000000 ) ) ;
#508 = ORIENTED_EDGE ( 'NONE', *, *, #431, .F. ) ;
#509 = DIRECTION ( 'NONE',  ( 1.000000000000000000, 0.000000000000000000, 0.000000000000000000 ) ) ;
#510 = EDGE_CURVE ( 'NONE', #4, #455, #625, .T. ) ;
#511 = ORIENTED_EDGE ( 'NONE', *, *, #331, .F. ) ;
#512 = DIRECTION ( 'NONE',  ( 1.000000000000000000, 1.261617073437677999E-16, -0.000000000000000000 ) ) ;
#513 = EDGE_CURVE ( 'NONE', #554, #59, #354, .T. ) ;
#514 = VERTEX_POINT ( 'NONE', #614 ) ;
#515 = DIRECTION ( 'NONE',  ( -0.000000000000000000, 0.000000000000000000, -1.000000000000000000 ) ) ;
#516 = DIRECTION ( 'NONE',  ( 1.000000000000000000, -1.445602896647339163E-16, 0.000000000000000000 ) ) ;
#517 = VERTEX_POINT ( 'NONE', #904 ) ;
#518 = VECTOR ( 'NONE', #516, 1000.000000000000000 ) ;
#519 = CIRCLE ( 'NONE', #782, 1.250000000000001110 ) ;
#520 = DIRECTION ( 'NONE',  ( -1.261617073437677999E-16, 1.000000000000000000, 0.000000000000000000 ) ) ;
#521 = CARTESIAN_POINT ( 'NONE',  ( 21.00000000000000711, -43.50000000000000711, 6.000000000000000000 ) ) ;
#522 = ORIENTED_EDGE ( 'NONE', *, *, #311, .F. ) ;
#523 = ADVANCED_FACE ( 'NONE', ( #816 ), #156, .T. ) ;
#524 = ORIENTED_EDGE ( 'NONE', *, *, #87, .T. ) ;
#525 = CARTESIAN_POINT ( 'NONE',  ( -27.50000000000000711, -50.00000000000000000, 3.000000000000000000 ) ) ;
#526 = LINE ( 'NONE', #834, #814 ) ;
#527 = ORIENTED_EDGE ( 'NONE', *, *, #262, .T. ) ;
#528 = FACE_OUTER_BOUND ( 'NONE', #78, .T. ) ;
#529 = EDGE_CURVE ( 'NONE', #637, #342, #36, .T. ) ;
#530 = CARTESIAN_POINT ( 'NONE',  ( 0.000000000000000000, 55.00000000000000000, 6.000000000000000000 ) ) ;
#531 = DIRECTION ( 'NONE',  ( -0.000000000000000000, -0.000000000000000000, -1.000000000000000000 ) ) ;
#532 = CARTESIAN_POINT ( 'NONE',  ( -27.50000000000000711, -6.000000000000005329, 0.000000000000000000 ) ) ;
#533 = VECTOR ( 'NONE', #505, 1000.000000000000000 ) ;
#534 = AXIS2_PLACEMENT_3D ( 'NONE', #320, #590, #231 ) ;
#535 = DIRECTION ( 'NONE',  ( -1.000000000000000000, 1.387778780781445429E-16, 0.000000000000000000 ) ) ;
#536 = AXIS2_PLACEMENT_3D ( 'NONE', #896, #242, #304 ) ;
#537 = DIRECTION ( 'NONE',  ( 0.000000000000000000, -0.000000000000000000, 1.000000000000000000 ) ) ;
#538 = ORIENTED_EDGE ( 'NONE', *, *, #295, .F. ) ;
#539 = ORIENTED_EDGE ( 'NONE', *, *, #377, .F. ) ;
#540 = CARTESIAN_POINT ( 'NONE',  ( -1.040834085586084257E-15, -6.000000000000010658, -0.000000000000000000 ) ) ;
#541 = EDGE_CURVE ( 'NONE', #880, #322, #481, .T. ) ;
#542 = CARTESIAN_POINT ( 'NONE',  ( -19.74999999999999645, -43.50000000000000711, 6.000000000000000000 ) ) ;
#543 = ORIENTED_EDGE ( 'NONE', *, *, #124, .T. ) ;
#544 = LINE ( 'NONE', #616, #548 ) ;
#545 = CARTESIAN_POINT ( 'NONE',  ( -18.00000000000000355, -6.000000000000005329, 3.000000000000000000 ) ) ;
#546 = ORIENTED_EDGE ( 'NONE', *, *, #399, .T. ) ;
#547 = DIRECTION ( 'NONE',  ( 0.000000000000000000, -1.000000000000000000, 0.000000000000000000 ) ) ;
#548 = VECTOR ( 'NONE', #329, 1000.000000000000000 ) ;
#549 = DIRECTION ( 'NONE',  ( -0.000000000000000000, -0.000000000000000000, -1.000000000000000000 ) ) ;
#550 = ORIENTED_EDGE ( 'NONE', *, *, #483, .F. ) ;
#551 = CARTESIAN_POINT ( 'NONE',  ( -30.00000000000001066, 55.00000000000000000, 0.000000000000000000 ) ) ;
#552 = EDGE_CURVE ( 'NONE', #581, #835, #115, .T. ) ;
#553 = DIRECTION ( 'NONE',  ( 0.000000000000000000, -0.000000000000000000, -1.000000000000000000 ) ) ;
#554 = VERTEX_POINT ( 'NONE', #266 ) ;
#555 = CARTESIAN_POINT ( 'NONE',  ( 21.00000000000000711, -43.50000000000000711, 6.000000000000000000 ) ) ;
#556 = ADVANCED_FACE ( 'NONE', ( #698 ), #270, .F. ) ;
#557 = CARTESIAN_POINT ( 'NONE',  ( 20.99999999999998934, 43.50000000000000711, 6.000000000000000000 ) ) ;
#558 = VERTEX_POINT ( 'NONE', #856 ) ;
#559 = LINE ( 'NONE', #340, #56 ) ;
#560 = ORIENTED_EDGE ( 'NONE', *, *, #345, .T. ) ;
#561 = EDGE_CURVE ( 'NONE', #455, #4, #799, .T. ) ;
#562 = VERTEX_POINT ( 'NONE', #336 ) ;
#563 = DIRECTION ( 'NONE',  ( 0.000000000000000000, -1.000000000000000000, 0.000000000000000000 ) ) ;
#564 = EDGE_LOOP ( 'NONE', ( #742, #733 ) ) ;
#565 = AXIS2_PLACEMENT_3D ( 'NONE', #384, #743, #460 ) ;
#566 = STYLED_ITEM ( 'NONE', ( #573 ), #678 ) ;
#567 = DIRECTION ( 'NONE',  ( -0.000000000000000000, -0.000000000000000000, 1.000000000000000000 ) ) ;
#568 = VECTOR ( 'NONE', #475, 1000.000000000000000 ) ;
#569 = EDGE_CURVE ( 'NONE', #455, #407, #187, .T. ) ;
#570 = FACE_OUTER_BOUND ( 'NONE', #69, .T. ) ;
#571 = ORIENTED_EDGE ( 'NONE', *, *, #495, .T. ) ;
#572 = FACE_OUTER_BOUND ( 'NONE', #826, .T. ) ;
#573 = PRESENTATION_STYLE_ASSIGNMENT (( #874 ) ) ;
#574 = EDGE_LOOP ( 'NONE', ( #802, #18, #705, #860 ) ) ;
#575 = LINE ( 'NONE', #224, #166 ) ;
#576 = VERTEX_POINT ( 'NONE', #545 ) ;
#577 = CARTESIAN_POINT ( 'NONE',  ( 10.00000000000000711, 44.00000000000000711, 5.000000000000000000 ) ) ;
#578 = AXIS2_PLACEMENT_3D ( 'NONE', #420, #567, #708 ) ;
#579 = VECTOR ( 'NONE', #375, 1000.000000000000000 ) ;
#580 = VECTOR ( 'NONE', #646, 1000.000000000000000 ) ;
#581 = VERTEX_POINT ( 'NONE', #43 ) ;
#582 = APPLICATION_CONTEXT ( 'automotive_design' ) ;
#583 = CARTESIAN_POINT ( 'NONE',  ( -18.00000000000000355, -6.000000000000005329, 6.000000000000000000 ) ) ;
#584 = ORIENTED_EDGE ( 'NONE', *, *, #130, .T. ) ;
#585 = PLANE ( 'NONE',  #136 ) ;
#586 = CARTESIAN_POINT ( 'NONE',  ( 0.000000000000000000, 0.000000000000000000, 3.000000000000000000 ) ) ;
#587 = ORIENTED_EDGE ( 'NONE', *, *, #770, .T. ) ;
#588 = CARTESIAN_POINT ( 'NONE',  ( 10.00000000000000178, -1.182766006347823306E-15, 5.000000000000000000 ) ) ;
#589 = EDGE_CURVE ( 'NONE', #274, #100, #341, .T. ) ;
#590 = DIRECTION ( 'NONE',  ( -0.000000000000000000, -0.000000000000000000, 1.000000000000000000 ) ) ;
#591 = VERTEX_POINT ( 'NONE', #254 ) ;
#592 = VECTOR ( 'NONE', #408, 1000.000000000000000 ) ;
#593 = EDGE_CURVE ( 'NONE', #383, #302, #923, .T. ) ;
#594 = AXIS2_PLACEMENT_3D ( 'NONE', #222, #661, #498 ) ;
#595 = FACE_OUTER_BOUND ( 'NONE', #52, .T. ) ;
#596 = EDGE_CURVE ( 'NONE', #885, #558, #101, .T. ) ;
#597 = CARTESIAN_POINT ( 'NONE',  ( -27.50000000000000711, -50.00000000000000000, 0.000000000000000000 ) ) ;
#598 = ORIENTED_EDGE ( 'NONE', *, *, #561, .T. ) ;
#599 = DIRECTION ( 'NONE',  ( -0.000000000000000000, 0.000000000000000000, 1.000000000000000000 ) ) ;
#600 = UNCERTAINTY_MEASURE_WITH_UNIT (LENGTH_MEASURE( 1.000000000000000082E-05 ), #374, 'distance_accuracy_value', 'NONE');
#601 = FACE_OUTER_BOUND ( 'NONE', #81, .T. ) ;
#602 = PLANE ( 'NONE',  #948 ) ;
#603 = CARTESIAN_POINT ( 'NONE',  ( 19.74999999999998934, 43.50000000000000711, 3.000000000000000000 ) ) ;
#604 = CARTESIAN_POINT ( 'NONE',  ( -19.75000000000000711, 43.50000000000000711, 6.000000000000000000 ) ) ;
#605 = DIRECTION ( 'NONE',  ( -0.000000000000000000, -0.000000000000000000, -1.000000000000000000 ) ) ;
#606 = VERTEX_POINT ( 'NONE', #122 ) ;
#607 = CARTESIAN_POINT ( 'NONE',  ( -19.74999999999999645, -43.50000000000000711, 6.000000000000000000 ) ) ;
#608 = EDGE_CURVE ( 'NONE', #835, #217, #409, .T. ) ;
#609 = VECTOR ( 'NONE', #153, 1000.000000000000000 ) ;
#610 = AXIS2_PLACEMENT_3D ( 'NONE', #521, #820, #84 ) ;
#611 = LINE ( 'NONE', #540, #121 ) ;
#612 = VECTOR ( 'NONE', #664, 1000.000000000000000 ) ;
#613 = ADVANCED_FACE ( 'NONE', ( #621 ), #199, .F. ) ;
#614 = CARTESIAN_POINT ( 'NONE',  ( 27.49999999999999645, 50.00000000000000000, 3.000000000000000000 ) ) ;
#615 = ORIENTED_EDGE ( 'NONE', *, *, #589, .F. ) ;
#616 = CARTESIAN_POINT ( 'NONE',  ( 22.24999999999999289, 43.50000000000000711, 6.000000000000000000 ) ) ;
#617 = DIRECTION ( 'NONE',  ( 1.000000000000000000, 0.000000000000000000, 0.000000000000000000 ) ) ;
#618 = FACE_OUTER_BOUND ( 'NONE', #851, .T. ) ;
#619 = FACE_BOUND ( 'NONE', #276, .T. ) ;
#620 = EDGE_CURVE ( 'NONE', #274, #637, #781, .T. ) ;
#621 = FACE_OUTER_BOUND ( 'NONE', #48, .T. ) ;
#622 = ORIENTED_EDGE ( 'NONE', *, *, #124, .F. ) ;
#623 = DIRECTION ( 'NONE',  ( -1.000000000000000000, 0.000000000000000000, 0.000000000000000000 ) ) ;
#624 = LINE ( 'NONE', #702, #355 ) ;
#625 = CIRCLE ( 'NONE', #246, 1.250000000000001110 ) ;
#626 = DIRECTION ( 'NONE',  ( -1.577021341797097067E-16, -1.000000000000000000, 0.000000000000000000 ) ) ;
#627 =( GEOMETRIC_REPRESENTATION_CONTEXT ( 3 ) GLOBAL_UNCERTAINTY_ASSIGNED_CONTEXT ( ( #754 ) ) GLOBAL_UNIT_ASSIGNED_CONTEXT ( ( #912, #250, #346 ) ) REPRESENTATION_CONTEXT ( 'NONE', 'WORKASPACE' ) );
#628 = ORIENTED_EDGE ( 'NONE', *, *, #171, .F. ) ;
#629 = DIRECTION ( 'NONE',  ( 1.577021341797097067E-16, 1.000000000000000000, 0.000000000000000000 ) ) ;
#630 = CARTESIAN_POINT ( 'NONE',  ( -20.99999999999999645, -43.50000000000000711, 6.000000000000000000 ) ) ;
#631 = ORIENTED_EDGE ( 'NONE', *, *, #633, .T. ) ;
#632 = DIRECTION ( 'NONE',  ( 0.000000000000000000, -1.000000000000000000, 0.000000000000000000 ) ) ;
#633 = EDGE_CURVE ( 'NONE', #880, #562, #918, .T. ) ;
#634 = PRODUCT_CONTEXT ( 'NONE', #221, 'mechanical' ) ;
#635 = ORIENTED_EDGE ( 'NONE', *, *, #908, .T. ) ;
#636 = CARTESIAN_POINT ( 'NONE',  ( 0.000000000000000000, 44.00000000000000711, 5.000000000000000000 ) ) ;
#637 = VERTEX_POINT ( 'NONE', #348 ) ;
#638 = DIRECTION ( 'NONE',  ( 1.000000000000000000, -1.734723475976804136E-16, 0.000000000000000000 ) ) ;
#639 = EDGE_CURVE ( 'NONE', #107, #3, #400, .T. ) ;
#640 = ORIENTED_EDGE ( 'NONE', *, *, #593, .F. ) ;
#641 = CARTESIAN_POINT ( 'NONE',  ( -18.00000000000000355, -6.000000000000005329, 6.000000000000000000 ) ) ;
#642 = ORIENTED_EDGE ( 'NONE', *, *, #620, .T. ) ;
#643 = CIRCLE ( 'NONE', #211, 1.250000000000001110 ) ;
#644 = AXIS2_PLACEMENT_3D ( 'NONE', #636, #767, #847 ) ;
#645 = CARTESIAN_POINT ( 'NONE',  ( -30.00000000000001066, 55.00000000000000000, 6.000000000000000000 ) ) ;
#646 = DIRECTION ( 'NONE',  ( 3.469446951953614189E-17, 1.000000000000000000, 0.000000000000000000 ) ) ;
#647 = ORIENTED_EDGE ( 'NONE', *, *, #902, .F. ) ;
#648 = FACE_BOUND ( 'NONE', #366, .T. ) ;
#649 = ORIENTED_EDGE ( 'NONE', *, *, #823, .T. ) ;
#650 = CYLINDRICAL_SURFACE ( 'NONE', #167, 1.250000000000001110 ) ;
#651 = LINE ( 'NONE', #277, #243 ) ;
#652 = ORIENTED_EDGE ( 'NONE', *, *, #552, .T. ) ;
#653 = ADVANCED_FACE ( 'NONE', ( #618 ), #263, .F. ) ;
#654 = ORIENTED_EDGE ( 'NONE', *, *, #269, .F. ) ;
#655 = CARTESIAN_POINT ( 'NONE',  ( 27.49999999999999645, 50.00000000000000000, 0.000000000000000000 ) ) ;
#656 = DIRECTION ( 'NONE',  ( 0.000000000000000000, 0.000000000000000000, 1.000000000000000000 ) ) ;
#657 = VECTOR ( 'NONE', #297, 1000.000000000000000 ) ;
#658 = ORIENTED_EDGE ( 'NONE', *, *, #541, .F. ) ;
#659 = VECTOR ( 'NONE', #180, 1000.000000000000000 ) ;
#660 = VECTOR ( 'NONE', #151, 1000.000000000000000 ) ;
#661 = DIRECTION ( 'NONE',  ( 1.000000000000000000, 1.261617073437677999E-16, -0.000000000000000000 ) ) ;
#662 = DIRECTION ( 'NONE',  ( -1.000000000000000000, 0.000000000000000000, 0.000000000000000000 ) ) ;
#663 = ORIENTED_EDGE ( 'NONE', *, *, #281, .T. ) ;
#664 = DIRECTION ( 'NONE',  ( 0.000000000000000000, 0.000000000000000000, -1.000000000000000000 ) ) ;
#665 = CARTESIAN_POINT ( 'NONE',  ( 30.00000000000001066, -55.00000000000000000, 6.000000000000000000 ) ) ;
#666 = ORIENTED_EDGE ( 'NONE', *, *, #728, .F. ) ;
#667 = EDGE_CURVE ( 'NONE', #3, #738, #694, .T. ) ;
#668 = DIRECTION ( 'NONE',  ( 1.000000000000000000, 0.000000000000000000, -0.000000000000000000 ) ) ;
#669 = CARTESIAN_POINT ( 'NONE',  ( -30.00000000000000355, 6.000000000000005329, 3.000000000000000000 ) ) ;
#670 = ORIENTED_EDGE ( 'NONE', *, *, #569, .T. ) ;
#671 = VECTOR ( 'NONE', #240, 1000.000000000000000 ) ;
#672 = FACE_OUTER_BOUND ( 'NONE', #61, .T. ) ;
#673 = VECTOR ( 'NONE', #662, 1000.000000000000000 ) ;
#674 = AXIS2_PLACEMENT_3D ( 'NONE', #810, #815, #679 ) ;
#675 = CARTESIAN_POINT ( 'NONE',  ( -14.99999999999999289, 44.00000000000000711, 5.000000000000000000 ) ) ;
#676 = CARTESIAN_POINT ( 'NONE',  ( -30.00000000000000355, -3.784851220313033947E-15, 6.000000000000000000 ) ) ;
#677 = DIRECTION ( 'NONE',  ( -1.000000000000000000, 0.000000000000000000, 0.000000000000000000 ) ) ;
#678 = MANIFOLD_SOLID_BREP ( '\X2\52079664\X0\-\X2\62c94f38\X0\5', #853 ) ;
#679 = DIRECTION ( 'NONE',  ( -1.000000000000000000, 0.000000000000000000, 0.000000000000000000 ) ) ;
#680 = DIRECTION ( 'NONE',  ( 1.261617073437677999E-16, -1.000000000000000000, 0.000000000000000000 ) ) ;
#681 = ORIENTED_EDGE ( 'NONE', *, *, #198, .T. ) ;
#682 = ADVANCED_FACE ( 'NONE', ( #351 ), #218, .F. ) ;
#683 = LINE ( 'NONE', #19, #74 ) ;
#684 = DIRECTION ( 'NONE',  ( 1.000000000000000000, 0.000000000000000000, 0.000000000000000000 ) ) ;
#685 = DIRECTION ( 'NONE',  ( 1.000000000000000000, 0.000000000000000000, 0.000000000000000000 ) ) ;
#686 = ORIENTED_EDGE ( 'NONE', *, *, #693, .T. ) ;
#687 = LINE ( 'NONE', #403, #134 ) ;
#688 = AXIS2_PLACEMENT_3D ( 'NONE', #474, #261, #696 ) ;
#689 = CARTESIAN_POINT ( 'NONE',  ( 0.000000000000000000, 0.000000000000000000, 0.000000000000000000 ) ) ;
#690 = CARTESIAN_POINT ( 'NONE',  ( 0.000000000000000000, -55.00000000000000000, 0.000000000000000000 ) ) ;
#691 = VERTEX_POINT ( 'NONE', #807 ) ;
#692 = DIRECTION ( 'NONE',  ( -0.000000000000000000, -0.000000000000000000, -1.000000000000000000 ) ) ;
#693 = EDGE_CURVE ( 'NONE', #380, #368, #939, .T. ) ;
#694 = LINE ( 'NONE', #332, #76 ) ;
#695 = ORIENTED_EDGE ( 'NONE', *, *, #709, .F. ) ;
#696 = DIRECTION ( 'NONE',  ( 1.000000000000000000, 0.000000000000000000, 0.000000000000000000 ) ) ;
#697 = EDGE_CURVE ( 'NONE', #558, #217, #947, .T. ) ;
#698 = FACE_OUTER_BOUND ( 'NONE', #284, .T. ) ;
#699 = ORIENTED_EDGE ( 'NONE', *, *, #877, .T. ) ;
#700 = DIRECTION ( 'NONE',  ( -0.000000000000000000, -0.000000000000000000, 1.000000000000000000 ) ) ;
#701 = CIRCLE ( 'NONE', #688, 1.250000000000001110 ) ;
#702 = CARTESIAN_POINT ( 'NONE',  ( 10.00000000000000178, -1.182766006347823306E-15, 3.000000000000000000 ) ) ;
#703 = CIRCLE ( 'NONE', #289, 1.250000000000001110 ) ;
#704 = CARTESIAN_POINT ( 'NONE',  ( -18.00000000000000355, 6.000000000000003553, 6.000000000000000000 ) ) ;
#705 = ORIENTED_EDGE ( 'NONE', *, *, #529, .T. ) ;
#706 = DIRECTION ( 'NONE',  ( -0.000000000000000000, -0.000000000000000000, 1.000000000000000000 ) ) ;
#707 = CARTESIAN_POINT ( 'NONE',  ( -18.00000000000000355, 6.000000000000003553, 6.000000000000000000 ) ) ;
#708 = DIRECTION ( 'NONE',  ( -1.000000000000000000, 0.000000000000000000, 0.000000000000000000 ) ) ;
#709 = EDGE_CURVE ( 'NONE', #722, #691, #725, .T. ) ;
#710 = ORIENTED_EDGE ( 'NONE', *, *, #552, .F. ) ;
#711 = DIRECTION ( 'NONE',  ( -0.000000000000000000, -0.000000000000000000, -1.000000000000000000 ) ) ;
#712 = ORIENTED_EDGE ( 'NONE', *, *, #210, .F. ) ;
#713 = DIRECTION ( 'NONE',  ( 1.000000000000000000, 0.000000000000000000, 0.000000000000000000 ) ) ;
#714 = AXIS2_PLACEMENT_3D ( 'NONE', #915, #706, #929 ) ;
#715 = ORIENTED_EDGE ( 'NONE', *, *, #99, .T. ) ;
#716 = CARTESIAN_POINT ( 'NONE',  ( 27.49999999999999645, 50.00000000000000000, 3.000000000000000000 ) ) ;
#717 = ORIENTED_EDGE ( 'NONE', *, *, #244, .F. ) ;
#718 = VECTOR ( 'NONE', #127, 1000.000000000000000 ) ;
#719 = CARTESIAN_POINT ( 'NONE',  ( -29.99999999999999645, -55.00000000000000000, 6.000000000000000000 ) ) ;
#720 = ORIENTED_EDGE ( 'NONE', *, *, #667, .F. ) ;
#721 = ORIENTED_EDGE ( 'NONE', *, *, #99, .F. ) ;
#722 = VERTEX_POINT ( 'NONE', #655 ) ;
#723 = CARTESIAN_POINT ( 'NONE',  ( 30.00000000000001066, -55.00000000000000000, 0.000000000000000000 ) ) ;
#724 = ORIENTED_EDGE ( 'NONE', *, *, #938, .F. ) ;
#725 = LINE ( 'NONE', #66, #718 ) ;
#726 = LINE ( 'NONE', #954, #657 ) ;
#727 = EDGE_LOOP ( 'NONE', ( #761, #876, #869, #371 ) ) ;
#728 = EDGE_CURVE ( 'NONE', #514, #517, #787, .T. ) ;
#729 = ORIENTED_EDGE ( 'NONE', *, *, #262, .F. ) ;
#730 = CARTESIAN_POINT ( 'NONE',  ( -27.50000000000000355, 50.00000000000000000, 3.000000000000000000 ) ) ;
#731 = CARTESIAN_POINT ( 'NONE',  ( 30.00000000000001066, -55.00000000000000000, 6.000000000000000000 ) ) ;
#732 = CIRCLE ( 'NONE', #506, 1.250000000000001110 ) ;
#733 = ORIENTED_EDGE ( 'NONE', *, *, #513, .T. ) ;
#734 = EDGE_CURVE ( 'NONE', #514, #738, #147, .T. ) ;
#735 = CIRCLE ( 'NONE', #841, 1.250000000000001110 ) ;
#736 = DIRECTION ( 'NONE',  ( -1.387778780781445429E-16, -1.000000000000000000, 0.000000000000000000 ) ) ;
#737 = CARTESIAN_POINT ( 'NONE',  ( -30.00000000000000355, 6.000000000000005329, 0.000000000000000000 ) ) ;
#738 = VERTEX_POINT ( 'NONE', #730 ) ;
#739 = EDGE_CURVE ( 'NONE', #322, #937, #861, .T. ) ;
#740 = CARTESIAN_POINT ( 'NONE',  ( -14.99999999999999289, 44.00000000000000711, 3.000000000000000000 ) ) ;
#741 = CARTESIAN_POINT ( 'NONE',  ( -21.00000000000000711, 43.50000000000000711, 3.000000000000000000 ) ) ;
#742 = ORIENTED_EDGE ( 'NONE', *, *, #230, .T. ) ;
#743 = DIRECTION ( 'NONE',  ( 0.000000000000000000, -1.000000000000000000, 0.000000000000000000 ) ) ;
#744 = LINE ( 'NONE', #525, #748 ) ;
#745 = DIRECTION ( 'NONE',  ( -1.000000000000000000, 0.000000000000000000, 0.000000000000000000 ) ) ;
#746 = CARTESIAN_POINT ( 'NONE',  ( 19.75000000000000711, -43.50000000000000711, 6.000000000000000000 ) ) ;
#747 = AXIS2_PLACEMENT_3D ( 'NONE', #586, #77, #879 ) ;
#748 = VECTOR ( 'NONE', #819, 1000.000000000000000 ) ;
#749 = CARTESIAN_POINT ( 'NONE',  ( -30.00000000000000355, -3.784851220313033947E-15, 6.000000000000000000 ) ) ;
#750 = ADVANCED_FACE ( 'NONE', ( #570 ), #650, .F. ) ;
#751 = FACE_OUTER_BOUND ( 'NONE', #37, .T. ) ;
#752 = CYLINDRICAL_SURFACE ( 'NONE', #444, 1.250000000000001110 ) ;
#753 = ADVANCED_BREP_SHAPE_REPRESENTATION ( '\X2\514575355e955ea7\X0\', ( #678, #430 ), #627 ) ;
#754 = UNCERTAINTY_MEASURE_WITH_UNIT (LENGTH_MEASURE( 1.000000000000000082E-05 ), #912, 'distance_accuracy_value', 'NONE');
#755 = CARTESIAN_POINT ( 'NONE',  ( -27.50000000000000711, -6.000000000000005329, 3.000000000000000000 ) ) ;
#756 = CARTESIAN_POINT ( 'NONE',  ( -1.040834085586084257E-15, -6.000000000000010658, 3.000000000000000000 ) ) ;
#757 = ORIENTED_EDGE ( 'NONE', *, *, #377, .T. ) ;
#758 = CARTESIAN_POINT ( 'NONE',  ( -21.00000000000000711, 43.50000000000000711, 3.000000000000000000 ) ) ;
#759 = APPLICATION_PROTOCOL_DEFINITION ( 'draft international standard', 'automotive_design', 1998, #582 ) ;
#760 = CARTESIAN_POINT ( 'NONE',  ( 19.75000000000000711, -43.50000000000000711, 6.000000000000000000 ) ) ;
#761 = ORIENTED_EDGE ( 'NONE', *, *, #608, .F. ) ;
#762 = CARTESIAN_POINT ( 'NONE',  ( 0.000000000000000000, -44.00000000000000711, 5.000000000000000000 ) ) ;
#763 = EDGE_CURVE ( 'NONE', #937, #926, #943, .T. ) ;
#764 = VECTOR ( 'NONE', #190, 1000.000000000000000 ) ;
#765 = VECTOR ( 'NONE', #138, 1000.000000000000000 ) ;
#766 = ADVANCED_FACE ( 'NONE', ( #75 ), #585, .T. ) ;
#767 = DIRECTION ( 'NONE',  ( 0.000000000000000000, -1.000000000000000000, 0.000000000000000000 ) ) ;
#768 = EDGE_LOOP ( 'NONE', ( #181, #477, #347, #838, #236, #398, #422, #139 ) ) ;
#769 = PLANE ( 'NONE',  #23 ) ;
#770 = EDGE_CURVE ( 'NONE', #487, #862, #60, .T. ) ;
#771 = DIRECTION ( 'NONE',  ( 1.000000000000000000, 0.000000000000000000, 0.000000000000000000 ) ) ;
#772 = ORIENTED_EDGE ( 'NONE', *, *, #921, .T. ) ;
#773 = DIRECTION ( 'NONE',  ( 1.261617073437677999E-16, -1.000000000000000000, 0.000000000000000000 ) ) ;
#774 = CARTESIAN_POINT ( 'NONE',  ( -18.00000000000000355, -6.000000000000005329, 3.000000000000000000 ) ) ;
#775 = DIRECTION ( 'NONE',  ( -1.000000000000000000, 0.000000000000000000, 0.000000000000000000 ) ) ;
#776 = ORIENTED_EDGE ( 'NONE', *, *, #823, .F. ) ;
#777 = CARTESIAN_POINT ( 'NONE',  ( 10.00000000000000178, -1.182766006347823306E-15, 5.000000000000000000 ) ) ;
#778 = VECTOR ( 'NONE', #773, 1000.000000000000000 ) ;
#779 = VECTOR ( 'NONE', #106, 1000.000000000000000 ) ;
#780 = ADVANCED_FACE ( 'NONE', ( #279 ), #285, .F. ) ;
#781 = LINE ( 'NONE', #472, #471 ) ;
#782 = AXIS2_PLACEMENT_3D ( 'NONE', #83, #453, #378 ) ;
#783 = ORIENTED_EDGE ( 'NONE', *, *, #331, .T. ) ;
#784 = DIRECTION ( 'NONE',  ( 1.000000000000000000, -1.577021341797097067E-16, 0.000000000000000000 ) ) ;
#785 = PRODUCT_DEFINITION_SHAPE ( 'NONE', 'NONE',  #185 ) ;
#786 = ORIENTED_EDGE ( 'NONE', *, *, #495, .F. ) ;
#787 = LINE ( 'NONE', #716, #303 ) ;
#788 = VERTEX_POINT ( 'NONE', #881 ) ;
#789 = CARTESIAN_POINT ( 'NONE',  ( 20.99999999999998934, 43.50000000000000711, 6.000000000000000000 ) ) ;
#790 = ORIENTED_EDGE ( 'NONE', *, *, #728, .T. ) ;
#791 = DIRECTION ( 'NONE',  ( -1.000000000000000000, 0.000000000000000000, -0.000000000000000000 ) ) ;
#792 = ORIENTED_EDGE ( 'NONE', *, *, #479, .F. ) ;
#793 = DIRECTION ( 'NONE',  ( -1.261617073437677999E-16, 1.000000000000000000, 0.000000000000000000 ) ) ;
#794 = ADVANCED_FACE ( 'NONE', ( #458 ), #893, .F. ) ;
#795 = CIRCLE ( 'NONE', #714, 1.250000000000001110 ) ;
#796 = EDGE_CURVE ( 'NONE', #862, #22, #824, .T. ) ;
#797 = CARTESIAN_POINT ( 'NONE',  ( -30.00000000000000355, -6.000000000000005329, 3.000000000000000000 ) ) ;
#798 = VERTEX_POINT ( 'NONE', #160 ) ;
#799 = CIRCLE ( 'NONE', #339, 1.250000000000001110 ) ;
#800 = PRODUCT_DEFINITION_FORMATION_WITH_SPECIFIED_SOURCE ( 'ä»', '', #249, .NOT_KNOWN. ) ;
#801 = CARTESIAN_POINT ( 'NONE',  ( 10.00000000000000711, 44.00000000000000711, 5.000000000000000000 ) ) ;
#802 = ORIENTED_EDGE ( 'NONE', *, *, #40, .F. ) ;
#803 = EDGE_LOOP ( 'NONE', ( #666, #712, #85, #291 ) ) ;
#804 = ADVANCED_FACE ( 'NONE', ( #16 ), #79, .F. ) ;
#805 = CARTESIAN_POINT ( 'NONE',  ( -30.00000000000000355, 6.000000000000005329, 6.000000000000000000 ) ) ;
#806 = ORIENTED_EDGE ( 'NONE', *, *, #345, .F. ) ;
#807 = CARTESIAN_POINT ( 'NONE',  ( 27.49999999999998224, -50.00000000000000000, 0.000000000000000000 ) ) ;
#808 = CARTESIAN_POINT ( 'NONE',  ( 30.00000000000000355, 3.784851220313033947E-15, 6.000000000000000000 ) ) ;
#809 = EDGE_LOOP ( 'NONE', ( #652, #844, #362, #425 ) ) ;
#810 = CARTESIAN_POINT ( 'NONE',  ( 20.99999999999998934, 43.50000000000000711, 6.000000000000000000 ) ) ;
#811 = ADVANCED_FACE ( 'NONE', ( #595 ), #300, .F. ) ;
#812 = DIRECTION ( 'NONE',  ( 0.000000000000000000, 0.000000000000000000, 1.000000000000000000 ) ) ;
#813 = VERTEX_POINT ( 'NONE', #309 ) ;
#814 = VECTOR ( 'NONE', #245, 1000.000000000000000 ) ;
#815 = DIRECTION ( 'NONE',  ( -0.000000000000000000, -0.000000000000000000, -1.000000000000000000 ) ) ;
#816 = FACE_OUTER_BOUND ( 'NONE', #467, .T. ) ;
#817 = ORIENTED_EDGE ( 'NONE', *, *, #210, .T. ) ;
#818 = ORIENTED_EDGE ( 'NONE', *, *, #697, .F. ) ;
#819 = DIRECTION ( 'NONE',  ( 3.469446951953614189E-17, 1.000000000000000000, 0.000000000000000000 ) ) ;
#820 = DIRECTION ( 'NONE',  ( -0.000000000000000000, -0.000000000000000000, -1.000000000000000000 ) ) ;
#821 = EDGE_LOOP ( 'NONE', ( #598, #546, #508, #294 ) ) ;
#822 = DIRECTION ( 'NONE',  ( 1.000000000000000000, 0.000000000000000000, 0.000000000000000000 ) ) ;
#823 = EDGE_CURVE ( 'NONE', #722, #3, #903, .T. ) ;
#824 = LINE ( 'NONE', #93, #612 ) ;
#825 = DIRECTION ( 'NONE',  ( 0.000000000000000000, 1.000000000000000000, 0.000000000000000000 ) ) ;
#826 = EDGE_LOOP ( 'NONE', ( #54, #112, #681, #142 ) ) ;
#827 = VECTOR ( 'NONE', #605, 1000.000000000000000 ) ;
#828 = VECTOR ( 'NONE', #433, 1000.000000000000000 ) ;
#829 = FACE_OUTER_BOUND ( 'NONE', #867, .T. ) ;
#830 = LINE ( 'NONE', #676, #901 ) ;
#831 = ORIENTED_EDGE ( 'NONE', *, *, #145, .F. ) ;
#832 = FACE_OUTER_BOUND ( 'NONE', #768, .T. ) ;
#833 = EDGE_CURVE ( 'NONE', #691, #517, #170, .T. ) ;
#834 = CARTESIAN_POINT ( 'NONE',  ( 29.99999999999999645, 55.00000000000000000, 6.000000000000000000 ) ) ;
#835 = VERTEX_POINT ( 'NONE', #740 ) ;
#836 = CARTESIAN_POINT ( 'NONE',  ( 9.999999999999996447, -44.00000000000000711, 5.000000000000000000 ) ) ;
#837 = DIRECTION ( 'NONE',  ( 0.000000000000000000, -1.000000000000000000, 0.000000000000000000 ) ) ;
#838 = ORIENTED_EDGE ( 'NONE', *, *, #483, .T. ) ;
#839 = EDGE_CURVE ( 'NONE', #44, #798, #519, .T. ) ;
#840 = FACE_OUTER_BOUND ( 'NONE', #237, .T. ) ;
#841 = AXIS2_PLACEMENT_3D ( 'NONE', #287, #216, #509 ) ;
#842 = EDGE_CURVE ( 'NONE', #10, #206, #314, .T. ) ;
#843 = CARTESIAN_POINT ( 'NONE',  ( 0.000000000000000000, 44.00000000000000711, 3.000000000000000000 ) ) ;
#844 = ORIENTED_EDGE ( 'NONE', *, *, #608, .T. ) ;
#845 = CARTESIAN_POINT ( 'NONE',  ( -21.00000000000000711, 43.50000000000000711, 6.000000000000000000 ) ) ;
#846 = CARTESIAN_POINT ( 'NONE',  ( -30.00000000000000355, -3.784851220313033947E-15, 0.000000000000000000 ) ) ;
#847 = DIRECTION ( 'NONE',  ( 0.000000000000000000, -0.000000000000000000, -1.000000000000000000 ) ) ;
#848 = CARTESIAN_POINT ( 'NONE',  ( -18.00000000000000355, 6.000000000000003553, 3.000000000000000000 ) ) ;
#849 = ADVANCED_FACE ( 'NONE', ( #88 ), #381, .F. ) ;
#850 = CARTESIAN_POINT ( 'NONE',  ( -15.00000000000000000, 2.365532012695645428E-15, 5.000000000000000000 ) ) ;
#851 = EDGE_LOOP ( 'NONE', ( #102, #818, #721, #858 ) ) ;
#852 = DIRECTION ( 'NONE',  ( 0.000000000000000000, -0.000000000000000000, -1.000000000000000000 ) ) ;
#853 = CLOSED_SHELL ( 'NONE', ( #424, #388, #556, #849, #868, #501, #141, #682, #356, #804, #57, #811, #750, #613, #325, #891, #468, #62, #51, #184, #223, #653, #794, #523, #766, #780, #470, #863, #299 ) ) ;
#854 = VECTOR ( 'NONE', #563, 1000.000000000000000 ) ;
#855 = ORIENTED_EDGE ( 'NONE', *, *, #198, .F. ) ;
#856 = CARTESIAN_POINT ( 'NONE',  ( -15.00000000000000711, -44.00000000000000711, 5.000000000000000000 ) ) ;
#857 = VECTOR ( 'NONE', #275, 1000.000000000000000 ) ;
#858 = ORIENTED_EDGE ( 'NONE', *, *, #11, .T. ) ;
#859 = CARTESIAN_POINT ( 'NONE',  ( -15.00000000000000711, -44.00000000000000711, 3.000000000000000000 ) ) ;
#860 = ORIENTED_EDGE ( 'NONE', *, *, #404, .T. ) ;
#861 = LINE ( 'NONE', #641, #828 ) ;
#862 = VERTEX_POINT ( 'NONE', #755 ) ;
#863 = ADVANCED_FACE ( 'NONE', ( #888 ), #234, .T. ) ;
#864 = FACE_OUTER_BOUND ( 'NONE', #574, .T. ) ;
#865 = ORIENTED_EDGE ( 'NONE', *, *, #394, .F. ) ;
#866 = DIRECTION ( 'NONE',  ( 1.261617073437677999E-16, -1.000000000000000000, 0.000000000000000000 ) ) ;
#867 = EDGE_LOOP ( 'NONE', ( #695, #649, #432, #253, #350, #123, #126, #640, #188, #267, #855, #806 ) ) ;
#868 = ADVANCED_FACE ( 'NONE', ( #829 ), #461, .F. ) ;
#869 = ORIENTED_EDGE ( 'NONE', *, *, #596, .T. ) ;
#870 = SURFACE_SIDE_STYLE ('',( #70 ) ) ;
#871 = VECTOR ( 'NONE', #47, 1000.000000000000000 ) ;
#872 = LINE ( 'NONE', #583, #41 ) ;
#873 = ORIENTED_EDGE ( 'NONE', *, *, #283, .F. ) ;
#874 = SURFACE_STYLE_USAGE ( .BOTH. , #870 ) ;
#875 = FACE_BOUND ( 'NONE', #232, .T. ) ;
#876 = ORIENTED_EDGE ( 'NONE', *, *, #71, .F. ) ;
#877 = EDGE_CURVE ( 'NONE', #64, #738, #744, .T. ) ;
#878 = FILL_AREA_STYLE_COLOUR ( '', #884 ) ;
#879 = DIRECTION ( 'NONE',  ( -1.000000000000000000, 0.000000000000000000, -0.000000000000000000 ) ) ;
#880 = VERTEX_POINT ( 'NONE', #387 ) ;
#881 = CARTESIAN_POINT ( 'NONE',  ( 22.24999999999999289, 43.50000000000000711, 6.000000000000000000 ) ) ;
#882 = CIRCLE ( 'NONE', #428, 1.250000000000001110 ) ;
#883 = LINE ( 'NONE', #542, #429 ) ;
#884 = COLOUR_RGB ( '',0.7921568627450980005, 0.8196078431372548767, 0.9333333333333333481 ) ;
#885 = VERTEX_POINT ( 'NONE', #675 ) ;
#886 = AXIS2_PLACEMENT_3D ( 'NONE', #530, #20, #318 ) ;
#887 = VECTOR ( 'NONE', #335, 1000.000000000000000 ) ;
#888 = FACE_OUTER_BOUND ( 'NONE', #803, .T. ) ;
#889 = DIRECTION ( 'NONE',  ( 1.000000000000000000, 0.000000000000000000, 0.000000000000000000 ) ) ;
#890 = VERTEX_POINT ( 'NONE', #13 ) ;
#891 = ADVANCED_FACE ( 'NONE', ( #601 ), #238, .T. ) ;
#892 = DIRECTION ( 'NONE',  ( 1.261617073437677999E-16, -1.000000000000000000, 0.000000000000000000 ) ) ;
#893 = PLANE ( 'NONE',  #445 ) ;
#894 = CARTESIAN_POINT ( 'NONE',  ( -20.99999999999999645, -43.50000000000000711, 6.000000000000000000 ) ) ;
#895 = LINE ( 'NONE', #762, #671 ) ;
#896 = CARTESIAN_POINT ( 'NONE',  ( -21.00000000000000711, 43.50000000000000711, 6.000000000000000000 ) ) ;
#897 = DIRECTION ( 'NONE',  ( 1.000000000000000000, -3.469446951953613573E-17, 0.000000000000000000 ) ) ;
#898 = ORIENTED_EDGE ( 'NONE', *, *, #633, .F. ) ;
#899 = AXIS2_PLACEMENT_3D ( 'NONE', #108, #700, #623 ) ;
#900 = LINE ( 'NONE', #746, #39 ) ;
#901 = VECTOR ( 'NONE', #680, 1000.000000000000000 ) ;
#902 = EDGE_CURVE ( 'NONE', #926, #22, #611, .T. ) ;
#903 = LINE ( 'NONE', #163, #949 ) ;
#904 = CARTESIAN_POINT ( 'NONE',  ( 27.49999999999998224, -50.00000000000000000, 3.000000000000000000 ) ) ;
#905 = EDGE_LOOP ( 'NONE', ( #635, #499, #717, #247 ) ) ;
#906 = DIRECTION ( 'NONE',  ( -0.000000000000000000, 0.000000000000000000, 1.000000000000000000 ) ) ;
#907 = SHAPE_DEFINITION_REPRESENTATION ( #785, #753 ) ;
#908 = EDGE_CURVE ( 'NONE', #581, #492, #624, .T. ) ;
#909 = CARTESIAN_POINT ( 'NONE',  ( 0.000000000000000000, -44.00000000000000711, 5.000000000000000000 ) ) ;
#910 = ORIENTED_EDGE ( 'NONE', *, *, #593, .T. ) ;
#911 = DIRECTION ( 'NONE',  ( -0.000000000000000000, 0.000000000000000000, 1.000000000000000000 ) ) ;
#912 =( LENGTH_UNIT ( ) NAMED_UNIT ( * ) SI_UNIT ( .MILLI., .METRE. ) );
#913 = CARTESIAN_POINT ( 'NONE',  ( 30.00000000000000355, 3.784851220313033947E-15, 6.000000000000000000 ) ) ;
#914 = ORIENTED_EDGE ( 'NONE', *, *, #260, .T. ) ;
#915 = CARTESIAN_POINT ( 'NONE',  ( 20.99999999999998934, 43.50000000000000711, 3.000000000000000000 ) ) ;
#916 = VECTOR ( 'NONE', #92, 1000.000000000000000 ) ;
#917 = AXIS2_PLACEMENT_3D ( 'NONE', #756, #14, #97 ) ;
#918 = LINE ( 'NONE', #707, #871 ) ;
#919 = ORIENTED_EDGE ( 'NONE', *, *, #145, .T. ) ;
#920 = DIRECTION ( 'NONE',  ( -0.000000000000000000, 0.000000000000000000, 1.000000000000000000 ) ) ;
#921 = EDGE_CURVE ( 'NONE', #100, #368, #485, .T. ) ;
#922 = LINE ( 'NONE', #330, #568 ) ;
#923 = LINE ( 'NONE', #690, #212 ) ;
#924 = ORIENTED_EDGE ( 'NONE', *, *, #734, .F. ) ;
#925 = LINE ( 'NONE', #848, #7 ) ;
#926 = VERTEX_POINT ( 'NONE', #27 ) ;
#927 = CARTESIAN_POINT ( 'NONE',  ( -27.50000000000000711, -50.00000000000000000, 0.000000000000000000 ) ) ;
#928 = EDGE_LOOP ( 'NONE', ( #919, #511, #658, #631 ) ) ;
#929 = DIRECTION ( 'NONE',  ( -1.000000000000000000, 0.000000000000000000, 0.000000000000000000 ) ) ;
#930 = VECTOR ( 'NONE', #507, 1000.000000000000000 ) ;
#931 = ORIENTED_EDGE ( 'NONE', *, *, #260, .F. ) ;
#932 =( NAMED_UNIT ( * ) SI_UNIT ( $, .STERADIAN. ) SOLID_ANGLE_UNIT ( ) );
#933 = VECTOR ( 'NONE', #440, 1000.000000000000000 ) ;
#934 = ORIENTED_EDGE ( 'NONE', *, *, #936, .F. ) ;
#935 = LINE ( 'NONE', #80, #273 ) ;
#936 = EDGE_CURVE ( 'NONE', #100, #32, #922, .T. ) ;
#937 = VERTEX_POINT ( 'NONE', #110 ) ;
#938 = EDGE_CURVE ( 'NONE', #576, #862, #175, .T. ) ;
#939 = LINE ( 'NONE', #143, #765 ) ;
#940 = VERTEX_POINT ( 'NONE', #114 ) ;
#941 = CARTESIAN_POINT ( 'NONE',  ( -27.50000000000000711, -50.00000000000000000, 0.000000000000000000 ) ) ;
#942 = ORIENTED_EDGE ( 'NONE', *, *, #394, .T. ) ;
#943 = LINE ( 'NONE', #797, #857 ) ;
#944 = ORIENTED_EDGE ( 'NONE', *, *, #952, .T. ) ;
#945 = DIRECTION ( 'NONE',  ( 1.000000000000000000, -3.469446951953613573E-17, 0.000000000000000000 ) ) ;
#946 = ORIENTED_EDGE ( 'NONE', *, *, #159, .T. ) ;
#947 = LINE ( 'NONE', #207, #930 ) ;
#948 = AXIS2_PLACEMENT_3D ( 'NONE', #597, #897, #389 ) ;
#949 = VECTOR ( 'NONE', #228, 1000.000000000000000 ) ;
#950 = LINE ( 'NONE', #205, #609 ) ;
#951 = ORIENTED_EDGE ( 'NONE', *, *, #561, .F. ) ;
#952 = EDGE_CURVE ( 'NONE', #890, #255, #405, .T. ) ;
#953 = DIRECTION ( 'NONE',  ( 0.000000000000000000, 0.000000000000000000, 1.000000000000000000 ) ) ;
#954 = CARTESIAN_POINT ( 'NONE',  ( 0.000000000000000000, -50.00000000000000000, 3.000000000000000000 ) ) ;
#955 = ORIENTED_EDGE ( 'NONE', *, *, #510, .F. ) ;
ENDSEC;
END-ISO-10303-21;
